<svg xmlns="http://www.w3.org/2000/svg" viewBox="0 0 149.86 183.95"><defs><style>.cls-1{fill:none;stroke:#fdfdfd;stroke-miterlimit:10;}.cls-2{fill:#fdfdfd;}</style></defs><title>7</title><g id="Layer_2" data-name="Layer 2"><g id="lines"><line class="cls-1" x1="65.23" y1="3" x2="51.93" y2="8.9"/><line class="cls-1" x1="78.39" y1="7.46" x2="65.23" y2="3"/><line class="cls-1" x1="82.73" y1="21.53" x2="78.39" y2="7.46"/><line class="cls-1" x1="47.59" y1="23.58" x2="51.93" y2="8.9"/><line class="cls-1" x1="58.42" y1="33.93" x2="47.59" y2="21.58"/><line class="cls-1" x1="74.54" y1="34.34" x2="58.42" y2="33.93"/><line class="cls-1" x1="82.73" y1="21.53" x2="74.54" y2="34.34"/><line class="cls-1" x1="66.55" y1="53.4" x2="58.42" y2="33.93"/><line class="cls-1" x1="84.89" y1="100.83" x2="66.55" y2="53.4"/><line class="cls-1" x1="91.62" y1="117.38" x2="84.89" y2="100.83"/><line class="cls-1" x1="113.78" y1="140.59" x2="91.62" y2="117.38"/><line class="cls-1" x1="142.61" y1="167.78" x2="113.78" y2="140.59"/><line class="cls-1" x1="107.95" y1="161.33" x2="142.61" y2="167.78"/><line class="cls-1" x1="75.27" y1="160.78" x2="107.95" y2="161.33"/><line class="cls-1" x1="32.18" y1="161.75" x2="75.27" y2="160.78"/><line class="cls-1" x1="19.57" y1="176.45" x2="32.18" y2="161.75"/><line class="cls-1" x1="4.35" y1="161.04" x2="19.57" y2="176.45"/></g><g id="dots"><path class="cls-2" d="M51.93,11.9c3.86,0,3.86-6,0-6s-3.87,6,0,6Z"/><path class="cls-2" d="M65.23,6c3.87,0,3.87-6,0-6s-3.86,6,0,6Z"/><path class="cls-2" d="M78.39,10.46c3.87,0,3.87-6,0-6s-3.86,6,0,6Z"/><path class="cls-2" d="M82.73,24.53c3.86,0,3.86-6,0-6s-3.87,6,0,6Z"/><path class="cls-2" d="M74.54,37.34c3.87,0,3.87-6,0-6s-3.86,6,0,6Z"/><path class="cls-2" d="M57.42,36.93c3.86,0,3.87-6,0-6s-3.86,6,0,6Z"/><path class="cls-2" d="M47.59,24.58c3.86,0,3.87-6,0-6s-3.86,6,0,6Z"/><path class="cls-2" d="M84.89,103.83c3.86,0,3.87-6,0-6s-3.87,6,0,6Z"/><path class="cls-2" d="M91.62,120.38c3.86,0,3.87-6,0-6s-3.86,6,0,6Z"/><path class="cls-2" d="M108,164.33c3.86,0,3.87-6,0-6s-3.87,6,0,6Z"/><path class="cls-2" d="M32.18,164.75c3.86,0,3.87-6,0-6s-3.87,6,0,6Z"/><path class="cls-2" d="M113.78,145.09c5.79,0,5.8-9,0-9s-5.8,9,0,9Z"/><path class="cls-2" d="M75.27,165.28c5.79,0,5.8-9,0-9s-5.81,9,0,9Z"/><path class="cls-2" d="M4.35,165.54c5.79,0,5.8-9,0-9s-5.8,9,0,9Z"/><path class="cls-2" d="M66.55,60.9c9.65,0,9.67-15,0-15s-9.67,15,0,15Z"/><path class="cls-2" d="M142.61,175.28c9.66,0,9.67-15,0-15s-9.66,15,0,15Z"/><path class="cls-2" d="M19.57,184c9.65,0,9.67-15,0-15s-9.67,15,0,15Z"/></g></g></svg>