<svg xmlns="http://www.w3.org/2000/svg" viewBox="0 0 194.94 155.51"><defs><style>.cls-1{fill:none;stroke:#fdfdfd;stroke-miterlimit:10;}.cls-2{fill:#fdfdfd;}</style></defs><title>11</title><g id="Layer_2" data-name="Layer 2"><g id="lines"><line class="cls-1" x1="37.35" y1="97.74" x2="23.92" y2="113.58"/><line class="cls-1" x1="7.73" y1="130.81" x2="23.92" y2="113.58"/><line class="cls-1" x1="31.5" y1="151.48" x2="7.73" y2="130.81"/><line class="cls-1" x1="60.78" y1="152.51" x2="31.5" y2="151.48"/><line class="cls-1" x1="88.34" y1="147" x2="60.78" y2="152.51"/><line class="cls-1" x1="96.26" y1="121.85" x2="88.34" y2="147"/><line class="cls-1" x1="101.43" y1="90.5" x2="96.26" y2="121.85"/><line class="cls-1" x1="117.97" y1="56.4" x2="101.43" y2="90.5"/><line class="cls-1" x1="132.44" y1="41.93" x2="117.97" y2="56.4"/><line class="cls-1" x1="152.07" y1="36.07" x2="132.44" y2="41.93"/><line class="cls-1" x1="187.21" y1="25.74" x2="152.07" y2="36.07"/><line class="cls-1" x1="188.93" y1="50.2" x2="187.21" y2="25.74"/><line class="cls-1" x1="180.32" y1="73.62" x2="188.93" y2="50.2"/><line class="cls-1" x1="176.88" y1="3" x2="187.21" y2="25.74"/></g><g id="dots"><path class="cls-2" d="M7.73,138.81c10.29,0,10.31-16,0-16s-10.31,16,0,16Z"/><path class="cls-2" d="M101.43,98.5c10.3,0,10.31-16,0-16s-10.31,16,0,16Z"/><path class="cls-2" d="M187.21,33.74c10.3,0,10.31-16,0-16s-10.31,16,0,16Z"/><path class="cls-2" d="M176.88,6c3.86,0,3.86-6,0-6s-3.87,6,0,6Z"/><path class="cls-2" d="M152.07,39.07c3.86,0,3.87-6,0-6s-3.86,6,0,6Z"/><path class="cls-2" d="M132.44,44.93c3.86,0,3.86-6,0-6s-3.87,6,0,6Z"/><path class="cls-2" d="M118,59.4c3.86,0,3.86-6,0-6s-3.87,6,0,6Z"/><path class="cls-2" d="M188.93,53.2c3.87,0,3.87-6,0-6s-3.86,6,0,6Z"/><path class="cls-2" d="M180.32,76.62c3.86,0,3.87-6,0-6s-3.86,6,0,6Z"/><path class="cls-2" d="M96.26,124.85c3.86,0,3.87-6,0-6s-3.86,6,0,6Z"/><path class="cls-2" d="M88.34,150c3.86,0,3.87-6,0-6s-3.87,6,0,6Z"/><path class="cls-2" d="M60.78,155.51c3.86,0,3.87-6,0-6s-3.87,6,0,6Z"/><path class="cls-2" d="M31.5,154.48c3.86,0,3.87-6,0-6s-3.87,6,0,6Z"/><path class="cls-2" d="M23.92,116.58c3.86,0,3.87-6,0-6s-3.87,6,0,6Z"/><path class="cls-2" d="M37.35,100.74c3.87,0,3.87-6,0-6s-3.86,6,0,6Z"/></g></g></svg>