<svg xmlns="http://www.w3.org/2000/svg" viewBox="0 0 603.04 148.06"><defs><style>.cls-1{fill:#208b45;}.cls-2{fill:#a5c954;}.cls-3{fill:#5cab4a;}.cls-4{fill:#5cac4a;}.cls-5{fill:#fefefe;}.cls-6{fill:#f4f8ee;}.cls-7{fill:#5dac4a;}.cls-8{fill:#f3f8ed;}.cls-9{fill:#f4f8ed;}.cls-10{fill:#228c45;}.cls-11{fill:#278f45;}.cls-12{fill:#96c352;}.cls-13{fill:#a3c853;}.cls-14{fill:#3b9a47;}.cls-15{fill:#379847;}.cls-16{fill:#2d9346;}.cls-17{fill:#78b54e;}.cls-18{fill:#63ab4c;}.cls-19{fill:#419b48;}.cls-20{fill:#349646;}.cls-21{fill:#4da349;}.cls-22{fill:#70b14e;}.cls-23{fill:#7fb84f;}.cls-24{fill:#85ba50;}.cls-25{fill:#48a148;}.cls-26{fill:#4da448;}.cls-27{fill:#499f49;}.cls-28{fill:#2c9146;}.cls-29{fill:#3f9c48;}.cls-30{fill:#5ba64b;}.cls-31{fill:#3d9949;}.cls-32{fill:#399947;}.cls-33{fill:#3e9b48;}.cls-34{fill:#88bc50;}.cls-35{fill:#51a24a;}.cls-36{fill:#46a048;}.cls-37{fill:#49a148;}.cls-38{fill:#abd3a0;}.cls-39{fill:#f2f7ea;}.cls-40{fill:#e5efd2;}.cls-41{fill:#a5c957;}.cls-42{fill:#fff;stroke:#000;stroke-miterlimit:10;}</style></defs><title>back_btn_1</title><g id="Layer_2" data-name="Layer 2"><g id="Layer_1-2" data-name="Layer 1"><g id="Layer_2-2" data-name="Layer 2-2"><g id="_8JbguO.tif" data-name=" 8JbguO.tif"><path class="cls-1" d="M108,.08H259.08c.91,1.33.27,2.17-.89,2.88a13.07,13.07,0,0,1-8.46,1.58,2.35,2.35,0,0,1-.53-.09C236.51,0,225,4.74,213.56,9.24c-7,2.76-13.65,6.46-20.76,9.08-1.72.63-3.67,1.2-4.51,3.13,0,0,.11.2.15.16,4.64-1.43,9-3.44,13.63-4.82,6.63-2,13.23-4.08,19.72-6.52,3.5-1.32,5-.64,7.16,2.48,2.43,3.59,4.79,4.67,8.5,2.78,7.1-3.63,14.81-4.28,22.46-5.32a40.93,40.93,0,0,0,10.82-2.83A10.53,10.53,0,0,1,282.25,9a4,4,0,0,1,.9,5.59,4.47,4.47,0,0,1-.35.41,17,17,0,0,1-6.88,4.78c-1,.4-2.12.66-2.68,1.71.05.19.07.38.14.57,1.51,1.31,3.23.89,4.68.26,7.74-3.35,16-3.29,24.15-3.87,4.35-.31,8.65-1.29,13.06-.56A26.13,26.13,0,0,1,319.73,19a4.07,4.07,0,0,1,2.87,3.92c.12,2-1.11,3.07-2.7,3.71a27.45,27.45,0,0,1-8.27,1.65c-5.48.4-10.87,1.21-15.83,3.83a23.91,23.91,0,0,0-5.71,4.18c-.51.5-1,1.13-.67,1.93s1.2.74,1.92.64c12.09-1.64,24.44.49,36.47-2.64,4.43-1.16,6.29.18,8.45,4.38a7.44,7.44,0,0,0,3.59,3.24A44.36,44.36,0,0,0,348,46.89a78,78,0,0,1,22.1,9.9,125,125,0,0,1,12.29,8.63c3.11,2.48,5.76,5.45,9.1,7.74,4.15,2.86,2.72,7.71-1.49,9.8a28.82,28.82,0,0,1-8.94,2.35c-1.45.21-3.56-.1-4,1.66s1.78,1.74,2.71,2.65c.7.69,1.6,1.2,2.37,1.84,2.93,2.44,2.72,5.28-.55,7.25a4.66,4.66,0,0,1-1.24.57c-6.39,1.57-12.33,4.51-18.67,6.17-4.37,1.14-8.86,1.1-13-1.46-1-.63-2.08-1.13-3.08-1.78-4.27-2.79-8.65-2.86-13.25-.73-3.71,1.72-7.71,4.06-11.71,1.9-4.82-2.64-9.4-2-14.26-.89a11.14,11.14,0,0,1-6-.25c-2.59-.85-3.9-2.75-2.91-5.26,1.74-4.42,1.26-5.71-4.25-7.67a18.24,18.24,0,0,1-5.51-3c-2.11-1.73-2.11-4,.16-5.64,4.27-3,9.3-3.6,14.28-4.16a26.71,26.71,0,0,1,15.09,3c1.28.64,2.39,1.39,2.4,3s-1.09,2.39-2.46,2.89-2.69,1.11-4.1,1.53c-.7.21-1.49.51-1.53,1.36s.87,1.31,1.65,1.55a44.3,44.3,0,0,0,7.2,1.6c5,.7,10.08,1.62,15.22,1.41A15.25,15.25,0,0,0,344,90.18c.81-.56,1.76-1.18,1.5-2.39-.22-1-1.19-1.3-2.07-1.55-2.19-.62-4.4-1.19-6.64-1.61l-.55-.07c-7-1.26-8.21-3.7-4.77-9.56a1.7,1.7,0,0,0-.27-1,4.64,4.64,0,0,0-3-1.32c-6.8-1.29-13.5-1.45-20.23.74-3.41,1.11-7.17,1.8-10.38-1-1.93-1.64-1.81-3.42.23-5a4.65,4.65,0,0,1,1.68-.87c8.25-1.87,16.41-4.34,25-4,3,.14,5.94.92,8.93,1.25a8.12,8.12,0,0,0,4-.38c1.31-.54,1.39-1.41.2-2.2A9.33,9.33,0,0,0,334,59.94c-11.28-1.94-22.46-2.51-33.24,2.49a12,12,0,0,1-12.25-1c-5.77-3.85-11.37-3.4-17.25-.24-4.32,2.33-9.18,2.88-14,3.43-3.73.43-7.46.93-10.78,2.8a4.81,4.81,0,0,1-5.86-.37c-4.31-3.61-9-3.12-14-2-8.17,1.93-15.65,5.4-22.9,9.48a4.68,4.68,0,0,0-2.26,2.28,2.87,2.87,0,0,0-.09,1.48c.4,1.57,1.62,2.31,2.92,3,4.15,2.24,8.65,3.72,12.88,5.76,2.46,1.19,4.84,2.57,5,5.8a4.7,4.7,0,0,0,.13,1.63c-.19,2.39,1.21,3.57,3.16,4.55,7.44,3.72,15.43,5.43,23.56,6.59,2.28.33,4.48,1.06,6.78,1.25a4.47,4.47,0,0,1,.64.25l.14.07c-6.23-.83-10.69-4.74-15.16-8.63a43.19,43.19,0,0,1-4.74-4.12c-2.18-2.54-2-5,.67-7,2.41-1.76,5.25-2.92,7-5.54.66-1,2-.87,3.06-.82a53.75,53.75,0,0,1,19.85,4.59c4,1.8,4.28,6,.94,8.85-1,.83-2.05,1.53-3,2.34s-2.07,1.69-1.83,3.15c.27,1.63,1.72,2,3,2.4a47.19,47.19,0,0,0,6.47,1.07c3.91.56,7.71,1.47,11,3.79s4.34,5.17,3.29,9c-.91,3.37,0,5.09,3.38,6.25a28.45,28.45,0,0,0,8.11,1c9.67.37,19.38.33,28.7-2.75,12.1-4,24.59-6.85,36.09-12.66,4.52-2.29,9.58-3.57,14.85-2.5,1.41.29,2.67.75,3.09,2.31s-.43,2.56-1.59,3.46A54.47,54.47,0,0,1,369.11,118a283.25,283.25,0,0,1-26.87,10c7.23-1.56,14.31-3.68,21.43-5.6,9.6-2.59,19.27-4.9,28.7-8.07,7-2.36,14.06-4.62,20.74-7.76,5.67-2.66,10.79-6.15,13.49-12.21,1.84-4.1,1.19-7.33-2.25-10.26a5.73,5.73,0,0,1-2.41-3.49c-.64-4,3-7.22,7.47-6.56,1.26.19,2.44.75,3.73.82.64,0,1.36.12,1.71-.56s-.15-1.21-.54-1.71a20.13,20.13,0,0,0-9.58-6.24,45.82,45.82,0,0,1-9-4,8.14,8.14,0,0,1-3.46-4.08c-1.95-5-5.69-8.43-10.09-11.15a55.53,55.53,0,0,1-12.84-10.46c-4.39-5-12.86-7-19-4.16a18,18,0,0,1-13.81.84,16.24,16.24,0,0,0-11,0c-3.48,1.23-7,1.47-10.07-1.17a4.65,4.65,0,0,1-.67-6.31,10.69,10.69,0,0,1,5.37-3.6,44.48,44.48,0,0,1,8-1.61,14.29,14.29,0,0,0,6.5-2.09,6.21,6.21,0,0,1,5.49-.7c3.18.86,6.28,1.93,9.35,3.09a11.44,11.44,0,0,0,5.35.92c2.07-.24,2.6-1.56,1.37-3.24A10.44,10.44,0,0,0,374,16.54c-1.31-1-2.45-2.13-1.84-3.89a4.56,4.56,0,0,1,4-2.84c3.07-.44,6,.45,8.89,1.21a7,7,0,0,0,3.19.61c-1.49-2-3.65-2.77-5.56-3.72-4.07-2-8.38-3.58-12.62-5.25C369,2.21,367.51,1.92,368,.1h66.79C441.87,1,448,4.54,454.6,6.76a51.1,51.1,0,0,0,5.27,1.39c3.64.85,4.48,1.94,4.38,5.59a5.22,5.22,0,0,0,2,4.54c1.15.88,2.26,1.83,3.5,2.6-2.53-7.41-2.67-12.94-12.3-18.21-.9-.5-2-1.15-1.32-2.57H483.5c3.19,1.27,3.68,3.33,1.46,6-.9,1.11-2.23,1.85-3.23,2.89-1.48,1.53-1.38,2.86.6,3.59A28.15,28.15,0,0,1,490,17.25a13.68,13.68,0,0,0,9.24,2.82c5.09-.23,8.94,2.16,11.13,7.85,1.7,4.42,5.2,7.48,8.82,10.22,5.89,4.46,12.39,8,18.72,11.76,3.74,2.24,7.66,4.24,10.87,7.29A4.73,4.73,0,0,0,553,58.54c2.3-.42,3.29-2.13,2.23-4.22a33.66,33.66,0,0,0-9.32-12,90.83,90.83,0,0,0-13.39-8.44c-1.83-1-4.24-1.59-4.36-4.37a14.16,14.16,0,0,0-.13-2.06,2.94,2.94,0,0,1,2.17-3.53,2,2,0,0,1,.34-.06A3.63,3.63,0,0,1,535,25.69a10.64,10.64,0,0,0,4.85,4.6A123,123,0,0,1,557,40.9c5.89,4.5,10.38,9.88,12.12,17.24a4.12,4.12,0,0,1,.14,1.35,2.39,2.39,0,0,0,0,1.54,5,5,0,0,1,.89,2.35c.65,4.89,1.18,9.79.07,14.66-.6,2.62-1,5.38-3.27,7.31-1,.42-2,.65-2.78-.19-2.1-2.37-4.84-2-7.53-2-5.33-1.36-8.92-5.15-11.54-9.5-4.59-7.61-11.33-11.6-19.69-13.48-1.24-.28-2.47-.64-4.23-1a39.62,39.62,0,0,1,8.7,8,108.88,108.88,0,0,1,6.85,9.18c2,3.27,4.83,6.17,6.86,9.53a10.67,10.67,0,0,1,.7,9.73,37,37,0,0,1-9.64,13.72c-4.27,4-9.23,7.12-13.87,10.65a16.92,16.92,0,0,0-6.66,9.6c-1,3.9-4.77,5.89-8.42,7.14-5.25,1.82-10.52,3.55-15.62,5.82-3.06,1.36-5.91,3.2-9.15,4.19a7.25,7.25,0,0,1-2.88.76H408.84c-2.15-.91-.57-1.58.24-1.92a32.75,32.75,0,0,1,6.62-1.66c9.88-1.88,19.43-4.95,29-7.91,5.92-1.83,11.91-3.46,17.78-5.46,3.72-1.27,6.19-3.17,6.16-7.56,0-2.81,2-4.56,4.35-5.84a60.87,60.87,0,0,1,9.39-3.75c5.49-1.93,8.86-5.92,10.8-11.22,1.38-3.72,0-8.7-5.9-9-8.69-.49-10.93-3.66-8.83-12.16a50.54,50.54,0,0,0,1.62-11.48c.13-6.71-2.77-11.72-7.91-15.68a42.48,42.48,0,0,0-3.57-2.52,22.87,22.87,0,0,1-9.7-12.8,6.58,6.58,0,0,1-.64-2.26,16.24,16.24,0,0,0-3.35-7.88c.33,6.53-.86,13.07.81,19.49.13.86.43,1.68.57,2.54a13.5,13.5,0,0,0,1.1,4.76,8,8,0,0,1,.6,2.35,58.22,58.22,0,0,0,5.6,16c.89,1.68,1.57,3.49,2.29,5.25,1.11,2.71-.11,4.67-3.05,5.16a32.39,32.39,0,0,1-6.82.11c-1.66-.08-2.79.62-2.76,2.28.19,9.79-5.94,16.08-12.21,22.28-6.11,6-13.83,9.37-21.66,12.42a131.72,131.72,0,0,1-20.55,6.28c7.43-2.19,17.14-4,26.76-6.07,11.51-2.54,22.1-7.32,31.12-15.21,2.27-2,4.6-4.2,8.16-3.73,2.45.32,3.74,1.18,4,3.65a14.73,14.73,0,0,1-2.37,10.4c-5.58,7.86-13.41,12.68-22,16.58-12.1,5.53-25.13,8.1-37.76,12a96.4,96.4,0,0,1-11,2.69H364.32c-1.77-1.06-.4-1.74.4-2.14a29.87,29.87,0,0,1,5.46-1.73c12.53-3.28,25.31-5.34,37.95-8,8.77-1.88,17.31-4.35,25.13-8.88.69-.4,1.49-.58,1.81-.79-9.42,4.15-19.75,6.7-30.18,9-19.85,4.34-40,7.08-59.94,10.83-4.2.79-8.48,1.19-12.72,1.79h-38.7a21.25,21.25,0,0,1-9.26-2.86c-7.33-4.38-15.37-6-23.79-5.91-5.67,0-11.26-.17-16.6-2.45a16.67,16.67,0,0,1-5.32-3.26c-6.29-6.2-13.36-11.5-19.8-17.52a92.35,92.35,0,0,1-10.12-11.17c0,.66.62,1,.65,1.6,1.1,5.37,4.59,9.46,7.51,13.83,2.38,3.55,4.85,6.93,6,11.21,1,3.69,4.06,5.94,7.34,7.73A65.83,65.83,0,0,0,243.06,144a21.48,21.48,0,0,1,4.86,1.79c.69.41,2.09,1.35-.09,1.86h-41.1c-4.46-.56-7.51-3.51-10.39-6.49-3.09-3.21-5.8-6.74-7.1-11.2-.94-3.26-3.69-4.56-6.79-5.23s-6.15-.69-9.2-1.24c-3.79-.68-7.5-1.53-10.49-4.24a11.07,11.07,0,0,1-3.35-5.21,11.28,11.28,0,0,0-8.14-8.11,52.39,52.39,0,0,1-6.43-2.31c-1.62-.74-3.47-1.52-3.44-3.79,0-2.1,1.64-2.88,3.22-3.67a16,16,0,0,1,1.76-.74,17.48,17.48,0,0,0,10.21-9.73c1.38-3.17,2.87-6.29,4.42-9.38,1.8-3.57,1.16-5.06-2.53-6.51-1-.4-2-.75-3.09-1.09a2.06,2.06,0,0,1-1.66-2.18c.09-1.17.94-1.69,2-2,3.46-.85,7-1.18,10.51-1.79a31.67,31.67,0,0,0,5.85-1.37,4.53,4.53,0,0,0,3.27-4.78c-.12-3.47.38-4,3.87-4.68a38.5,38.5,0,0,1,8.16-.68,15.8,15.8,0,0,0,8.17-1.87c2-1.11,4-.93,6.1-.41a3.33,3.33,0,0,1,2.79,3.76c-.1,4,1.12,5,5.14,4.34,4.95-.78,9.86-1.81,14.76-2.87a188.32,188.32,0,0,1,47-4c3.09.11,6.16.65,9.27.45.85,0,2.1.19,2.17-1,.06-1-1.09-1.06-1.85-1.29a13.49,13.49,0,0,0-4.34-.41c-8.6.22-17.08-1.21-25.61-1.88-8.36-.66-16.57-.52-24.49,2.67-3.38,1.36-6.81,1.91-10.36.38-3.16-1.36-4-3.56-2.29-6.55.59-1,1.92-2,.87-3.41s-2.47-1.16-3.81-.93a156.3,156.3,0,0,1-17.38,2.32c-6.72.36-13.43,1.23-20.19.77a31.3,31.3,0,0,0-5.72.29,4.86,4.86,0,0,0-3.89,2.17,5.09,5.09,0,0,0-.34,2.56c-.17,3.37-1.46,4.88-4.84,5.45-9.15,1.53-18.39,2.57-27.37,5.09-4.65,1.3-9.33,2.47-13.64,4.74-1.16.61-2.37,1.18-2.38,2.7s1.08,2.21,2.25,2.82a17.55,17.55,0,0,0,11.09,2,26.63,26.63,0,0,1,12.64,1.34c1.4.47,2.44,1.26,2.52,2.86s-1.14,2.36-2.49,2.83c-5.44,1.83-10.11,5.38-15.61,7.11-2.11.68-4.29.79-6.39,1.4-2.54.75-5.09,1.44-7.22,3.13-2.4,1.91-2.76,4-.83,6.35a39,39,0,0,1,3.36,5,7.54,7.54,0,0,1,.77,6.79,3.79,3.79,0,0,0,0,3.47c2.82,6.21,7.62,10.64,13.32,14,2.47,1.47,5.2.88,7.59-1.15,3.3-2.8,10.74-1.74,13.37,1.7a2.44,2.44,0,0,1,.61,2,4.72,4.72,0,0,0,.18,1.67c.2,2.1-.47,4.12-.5,6.22a10.22,10.22,0,0,0,3,7.61c1.2,1.23,2.36,2.51,3.52,3.79.68.76,1.25,1.64-.11,2.37H144c-1.64,0-2.74-1.22-4-2-1.49-.94-2.28-.62-3,.68-.48.82-1,1.45-2.12,1.3H104.66a3.39,3.39,0,0,1-3.24-2.41c.21-3.17-1.86-5.43-3.39-7.8-2.32-3.58-4.79-7.07-7.12-10.65a10.23,10.23,0,0,1-1.78-5.92A9.21,9.21,0,0,0,86.19,114a135.84,135.84,0,0,0-11.8-11c-9.5-7.94-11.79-17.67-9-29.49,1-4.29,4.33-7.5,7.74-10.3a36,36,0,0,1,5.44-3.63c1.25-.69,2.62-1.41,2.66-3.16a1.64,1.64,0,0,0-.52-.8c-1.62-.84-3.27-.19-4.83.07a59.23,59.23,0,0,0-23.12,9.31,59.3,59.3,0,0,1-6.28,3.85c-1.25.61-2.54.51-3.09-.71-2.45-5.46-5.46-10.7-6.86-16.59a2.23,2.23,0,0,1,.2-1.32,5.16,5.16,0,0,0,0-2.53c0-4.27,3.37-6,6.32-7.84,5.78-3.67,12.33-5.9,18.22-9.39a14.87,14.87,0,0,0,3.38-2.28,12,12,0,0,1,10.12-3.79c8.53.62,16.64-1.7,24.79-3.63,3.55-.85,7.12-1.59,10.71-2.26.68-.13,1.64-.19,1.63-1.14s-.91-1-1.62-1.18a87.62,87.62,0,0,1-12-2.85,15.75,15.75,0,0,1-5-2.78c-3-2.47-2.5-5.55,1.22-6.75,3.11-1,6.3-1.79,9.48-2.58A24.57,24.57,0,0,0,108,.08Z"/><path class="cls-2" d="M270.54,20.87c1.59-1.67,3.89-1.87,5.84-2.79a14.77,14.77,0,0,0,5.6-4.19,2.33,2.33,0,0,0-.21-3.56c-2.73-2.52-6.11-3.39-9.35-2-6.33,2.77-13,3.39-19.7,4.19a37.33,37.33,0,0,0-13.54,3.93,10.39,10.39,0,0,1-6.32,1.3,5.1,5.1,0,0,1-4.59-3.21c-1.51-3.6-2.66-4.22-6.06-2.89-9.51,3.71-19.48,6-29,9.78-2.35.94-4.6,2.14-6.9,3.21a2.59,2.59,0,0,1-.13-3.23,7.1,7.1,0,0,1,4.54-3.64c10.14-3.74,19.53-9.25,29.79-12.7a100,100,0,0,1,15.63-3.78,22.25,22.25,0,0,1,10.48,1.19c3.89,1.25,7.69,1.3,11.3-1a2,2,0,0,0,1.16-1.4h55.29a155.76,155.76,0,0,0,25,.65,65.38,65.38,0,0,0,9.48-.65H368c4.92,2.08,9.87,4.09,14.74,6.28a30,30,0,0,1,9.64,6.23c-1.55,1.36-3.19,1.23-4.91.73-2.27-.66-4.54-1.35-6.84-1.9a15.41,15.41,0,0,0-3.52-.35c-1.49,0-3.13.3-3.79,1.7-.83,1.78,1.34,2,2.1,3a11.1,11.1,0,0,0,2,1.81c1.21,1,2.21,2.08,1.71,3.69s-2.2,1.76-3.61,2c-2.23.38-4.33-.37-6.41-1s-4.29-1.52-6.44-2.28c-2.95-1-5.63-1.72-8.7.49-2.55,1.84-6.12,1.5-9.26,2.06-3.31.59-6.67,1.06-8.88,4.12-1.23,1.71-1.18,3.08.47,4.47a7.34,7.34,0,0,0,7.73,1.15c4.79-1.9,9.37-1.58,14.12.06a14.1,14.1,0,0,0,11.36-1c6.81-3.45,16.75-.89,21.44,5,3.48,4.39,8.4,7.12,12.9,10.3,4.25,3,8.18,6.16,9.8,11.53.69,2.31,3.09,3.39,5.3,4.39,3.64,1.64,7.52,2.71,11,4.69a22.8,22.8,0,0,1,7.73,7.8c1.18,1.78,0,1.81-1,2-1.95.3-3.79-.33-5.64-.85-1.5-.43-3-.82-4.53-.11-1.32.6-2.85.94-3.17,2.66a4.38,4.38,0,0,0,1.81,4.51c3.95,3.24,5.25,7.78,3.44,11.6a24.76,24.76,0,0,1-9.08,10.19c-7.4,4.83-15.75,7.47-24,10.23-16.69,5.56-33.9,9.3-50.77,14.21a14.69,14.69,0,0,1-7.45.07l-.17-.72c3.25-1.14,6.51-2.26,9.76-3.41,9.17-3.27,18.51-6.12,27-10.92a21.91,21.91,0,0,0,5.51-3.94c1.59-1.69,1.45-2.49-.8-3.08a17.72,17.72,0,0,0-8.65.36c-5.28,1.24-9.86,4.21-14.92,6-11.93,4.19-23.87,8.51-36.37,10.69a93.38,93.38,0,0,1-25.92.3,15.79,15.79,0,0,1-4.19-1.19,5.08,5.08,0,0,1-3.28-6.39,4.65,4.65,0,0,1,.28-.7c1.35-3.38.57-5.84-2.45-7.89-3.19-2.17-6.84-2.89-10.55-3.43a44.78,44.78,0,0,1-7.78-1.44c-4.35-1.41-4.84-3.7-1.4-6.76,1.35-1.2,2.9-2.18,4.23-3.4,2.59-2.35,2.31-5-.88-6.45-6.14-2.71-12.71-3.8-19.34-4.48-.6-.07-1.63,0-1.79.36-1.66,3.42-5.36,4.19-8,6.31-1.55,1.26-1.53,2.89-.28,4,6.3,5.75,12.58,11.57,21,14.1-.46,1.34-1.4.61-2.19.51-11.36-.85-22.42-2.75-32.75-8-2.65-1.34-3.4-2.67-2.09-5.21a1.21,1.21,0,0,0,0-1.69c-.74-2.54-2.88-3.63-5-4.62-4-1.86-8.12-3.56-12.16-5.39-1.91-.87-3.71-1.94-4.36-4.16a1.85,1.85,0,0,1,0-2.25c.52-1.64,1.93-2.42,3.26-3.14,8.41-4.61,17.14-8.41,26.62-10.29,3.85-.76,7.4-.64,10.46,2.2,1.94,1.81,4,2.2,6.43.72,3.11-1.91,6.71-2.2,10.24-2.62,5.71-.68,11.22-1.8,16.46-4.55a13.32,13.32,0,0,1,14.3.65c4.94,3.36,9.88,3.54,15.16.75A25.28,25.28,0,0,1,313,57.79c9-.56,18.06-1.06,26.59,2.91,1,.48,2.57.8,2.44,2.17s-1.76,1.63-2.94,2a13.69,13.69,0,0,1-7.56.3c-7.86-2-15.56-.94-23.25.91-2.74.66-5.53,1.13-8.26,1.85-1.17.31-2.79.69-2.65,2.25s1.55,2.21,2.89,2.49a13.06,13.06,0,0,0,7.27-.49c7.77-2.84,15.61-2,23.44-.29a3.4,3.4,0,0,1,2.53,1.46,1.43,1.43,0,0,1,0,1.73,8.47,8.47,0,0,1-1.8,2.32c-1.89,1.74-1.5,3.55.84,4.68a31.78,31.78,0,0,0,6.87,1.75,33.55,33.55,0,0,1,6.81,2c3,1.31,3.05,2.33.55,4.28a19,19,0,0,1-13.46,4.25c-7.37-.52-14.71-1.28-21.81-3.44-1.25-.38-3-.6-3-2.31,0-1.91,1.8-2,3.11-2.52,1.8-.65,3.65-1.15,5.46-1.76.77-.25,1.64-.49,1.72-1.51s-.66-1.34-1.42-1.75c-9.47-5.08-18.86-3.59-28.18.34-2.33,1-2.35,2.45-.28,4.07a20.67,20.67,0,0,0,5.79,2.94,24.52,24.52,0,0,1,4.43,2c1.59,1,2.2,2.32.85,4.09A7.19,7.19,0,0,0,299,97c-.68,2.61.06,3.73,2.77,4.16,3.33.54,6.54-.27,9.72-1.07a9,9,0,0,1,7.77,1.21c3.7,2.49,7.63,1.55,11.16-.38,5.94-3.24,11.56-3.42,17.11.72,6,4.46,12.33,3.65,18.66,1a76.46,76.46,0,0,1,11.9-3.94c2-.48,4.43-1,4.86-3.34.45-2.55-2.09-3.28-3.7-4.51-1.37-1.06-3.14-1.39-4.43-2.64-1.68-1.66-1.66-2.42.64-3.11a40.17,40.17,0,0,1,6.44-1.21,22.28,22.28,0,0,0,7.81-2.3c3.65-2,4.45-5.67,1-7.43-4.62-2.38-7.25-6.7-11.31-9.54-10.39-7.27-21-14.08-33.59-16.91a27.28,27.28,0,0,1-7.8-3.21c-1.59-.92-2.95-1.89-3.34-4a3.77,3.77,0,0,0-3.86-3.18,12.74,12.74,0,0,0-3.26.23,81.22,81.22,0,0,1-20.91,1.91,80.63,80.63,0,0,0-16.35,1c-1.16.21-2.73.71-3.43-.8s.33-2.63,1.42-3.75c6.17-6.35,14-8.4,22.48-9,2.91-.22,5.82-.35,8.6-1.43,1.2-.47,2.12-1.12,2.08-2.52a2.91,2.91,0,0,0-2-2.67A18,18,0,0,0,310.07,19q-9.12.8-18.27,1.38a40.26,40.26,0,0,0-13,3.1c-2.83,1.14-5.84,1.66-8.35-1A1.35,1.35,0,0,1,270.54,20.87Z"/><path class="cls-3" d="M37.82,50.46c.66,5,3.52,9.27,5.37,13.87,1.68,4.17,2,4.17,5.88,1.55,7.82-5.34,16.06-9.62,25.46-11.23,2.7-.47,5.45-1.63,8.27-.39.53.44.53,1.21,1,1.68-.75,2.43-2.51,3.88-4.68,5.05A29.08,29.08,0,0,0,68.26,71.05c-3.08,4.81-2.79,10.08-2.18,15.32.75,6.47,4.37,11.39,9.15,15.59s9.89,8.29,13.91,13.4a4.42,4.42,0,0,1,1.31,3.18c-.58,4.9,2.26,8.44,4.69,12.16,2,3.11,4.52,5.89,6.18,9.27a9.33,9.33,0,0,1,1.19,4.67c-1.66,1.23-3,0-4.23-.72a80.83,80.83,0,0,0-8.11-4.46c-4-1.67-8-2.8-12.45-1.7s-5.49,3.17-3.37,7.31c.52,1,1.49,2.16-.63,2.55H29.59a2.81,2.81,0,0,1-2.81-1.75A76.41,76.41,0,0,0,16,130.17a19.08,19.08,0,0,1-2.3-3.39,5.51,5.51,0,0,1,1.45-7c1.28-1.07,2.83-1.65,4.16-2.62,3.76-2.74,4.62-6.72,2.39-10.83a26.31,26.31,0,0,0-6.91-7.65c-1.68-1.39-3.44-2.67-5-4.2C8.65,90.68,6,87.74,4.05,84.42a4.86,4.86,0,0,1,.57-6.18c3.72-2.58,5-6.11,4.6-10.58-.29-3-.61-6-1.19-9.45-2.56,2.15-3.1,5-5,7-.84.85-1.49,1.91-2.92,1.15V35.66c.83-2,2.5-3,4.33-3.91C10,29,15.66,26.47,20.12,22a12.42,12.42,0,0,0,3.2-4.7c2-6,6.12-9.68,12.12-11.56C41,4,46.25,1.05,52.12.08H108c-2.81,2.79-6.6,3.27-10.16,4.33C95.9,5,93,4.74,92.87,7.35c-.1,2.4,2.54,3.36,4.5,4.18a60.9,60.9,0,0,0,13.21,3.32,14.23,14.23,0,0,1,3.14.88A2.09,2.09,0,0,1,115,18a1.83,1.83,0,0,1-1.88,1.66c-9.72,1-18.93,4.54-28.61,5.82a86.91,86.91,0,0,1-11.18.36,10,10,0,0,0-6.88,2.75c-4.78,4.23-10.8,6.29-16.36,9.15-3.79,1.94-7.74,3.62-10.69,6.9a5.35,5.35,0,0,0-1.57,3.08A2.16,2.16,0,0,0,37.82,50.46Z"/><path class="cls-3" d="M567.94,59.73c-1.29-7.64-5.9-13-11.76-17.66a109.66,109.66,0,0,0-17.89-10.91c-1.83-.95-3.49-2.08-4.22-4.05a2.58,2.58,0,0,0-2.56-2c-1.59,0-2.21,1-2.57,2.34a1.5,1.5,0,0,0-.07,2.13l.07.08c1.31,2,3.55,2.78,5.54,3.83,6.72,3.55,13.18,7.44,17.9,13.58a69.32,69.32,0,0,1,4,6.18c.91,1.51,1.77,3.28.53,4.84a5.56,5.56,0,0,1-5.62,2,6.34,6.34,0,0,1-2.95-1.33c-4.61-4.4-10.32-7.1-15.66-10.36-6.44-3.94-13.11-7.52-18.58-12.86A20.13,20.13,0,0,1,508.86,28c-1.66-4.59-4.42-6.55-9.27-6.57s-9.11-1.38-12.62-4.89c-1.65-1.66-4-2.16-6.09-3-2.57-1-3-3.11-.94-5,1.07-1,2.33-1.76,3.38-2.76,2.31-2.2,2.32-3.33.23-5.75q58.19,0,116.34,0c2.58,0,3.54.51,3,3.09a14.43,14.43,0,0,0,0,2.46c-1.21,1.5-3.07,1.89-4.66,2.72-3.37,1.75-3.54,3.15-1.08,6.08,1.66,2,4.31,2.7,5.74,4.89v69A29.34,29.34,0,0,1,597.34,96a57.29,57.29,0,0,0-6.92,7.67c-2.8,3.35-5.21,7-7.92,10.41-1.2,1.51-3,2.43-3.93,4.21-2.9,1.8-6,3.34-8.83,5.21A14.53,14.53,0,0,0,564,130c-2,3-3.32,6.44-5.62,9.25-2.45,3-4.73,6.19-8.48,7.77a6.78,6.78,0,0,1-2.62.64H526.12c-1.9-.14-1.32-1.17-.53-1.9a37.73,37.73,0,0,1,4.78-3.65c6.64-4.31,12.21-9.88,18-15.25a4,4,0,0,0,.88-2.22c1.16-2.09,1.19-4.53,2.09-6.73,2.8-6.8,6.53-13.11,9.84-19.65a29.35,29.35,0,0,0,3.24-9.45,5.8,5.8,0,0,1,1.77-3.86c3-5.21,3.72-10.86,3.2-16.74l-.45-5.13a1.81,1.81,0,0,1-.48-1.31A2.77,2.77,0,0,0,567.94,59.73Z"/><path class="cls-2" d="M10.47,94.19a33,33,0,0,1,12.94,12.14c2.2,3.75.86,9-2.85,11.61-1.34.94-2.84,1.64-4.18,2.58-2.43,1.7-2.65,3.33-1.14,6.07,2.12,3.86,5.67,6.61,7.92,10.36,2,3.32,4.5,6.4,5.34,10.33-4.44.78-8.92.14-13.38.35-3.62-.45-4.57-3.62-5.92-6.15-2.31-4.32-4.45-8.72-5.11-13.71-.43-3.28-3-5.78-4-8.89V97.54c.26-.24.5-.67.8-.69A25.43,25.43,0,0,0,10,94C10.11,94,10.31,94.11,10.47,94.19Z"/><path class="cls-2" d="M52.12.08A85.56,85.56,0,0,1,36.34,6.85C30.9,8.63,26.78,11.63,24.9,17.18,23.1,22.54,18.78,25.42,14.29,28S4.84,33.14.11,35.66V29.09a11.56,11.56,0,0,0,2.56-7.72,3.73,3.73,0,0,1,1-3c1.4-1.56,3.43-2,5.2-2.91,3.66-1.87,4-4.19.87-6.94A33.38,33.38,0,0,0,4.56,5.06C2.65,3.93.56,2.83.66.08Z"/><path class="cls-4" d="M602.91,116.15v31.2a5.06,5.06,0,0,1-2.67.27H568.73a1.87,1.87,0,0,1-.9-.19c-.4-1.55.8-2.39,1.72-3.06,3.33-2.42,6.28-5.52,10.64-6.2.65-.1,1-.69,1.49-1.12,3-1.09,6.25-1.7,9-3.57a9.16,9.16,0,0,0,3.81-4.1,18.16,18.16,0,0,1,4.31-6.16,2.18,2.18,0,0,0-.3-2.77c-1.19-1.16-1.85-2.52-.35-3.7C599.48,115.71,601.06,114.23,602.91,116.15Z"/><path class="cls-2" d="M602.91,116.15a13,13,0,0,0-1.82.43c-2.93,1.12-3,1.3-.66,3.31,1.9,1.66.16,2.63-.72,3.76-3.17.49-6.31-.14-9.46-.34a4.67,4.67,0,0,1-4.16-2.64,3.18,3.18,0,0,0-.63-1.46c-1-1.85-2.5-1.62-4.18-1.33-1.2.22-2.66,1.14-3.5-.69,6.58-7,11.55-15.42,18.33-22.3A1.78,1.78,0,0,1,597.84,96c1,2.48,3.1,3.83,5.07,5.35Z"/><path class="cls-5" d="M567.91,147.33h35c-.12.17.27.57-.28.56H2.57c-.8,0-1.85.63-2.46-.52,1.09-1.44,2.79-1.24,4.29-1.58,1.34-.12,2.6,1.07,4,.28a10,10,0,0,1,5.93,1.21H74.41c.87-1.19,2.19-1.22,3.46-1.23,7.21-.09,14.42,0,21.63,0a13,13,0,0,1,4.68,1.32l31.57-.08c2.45-1.81,4.89-1.4,7.34,0h13.64c.86-1.23,2.19-1.21,3.46-1.22q20.1-.13,40.21,0a19.12,19.12,0,0,1,5.59,1.24h42.64c.87-1.21,2.19-1.2,3.45-1.21q16.48-.14,33,0c2.53,0,5,.86,7.45,1.21H333c8.95-1.45,18-1.36,27-1.22,1.33,0,2.76-.08,3.7,1.23h32.89a36.77,36.77,0,0,1,7.3-1.16c1.48-.11,3.1-.26,4.21,1.15l63.39.09c2.55,0,5.09-.06,7.64-.09a22.08,22.08,0,0,1,7.64-1.27c5.88-.07,11.75.26,17.62-.22,3.89,1.09,7.77,0,11.66,0a18.14,18.14,0,0,0,6.44.43,3,3,0,0,1,2.86,1.1h23a24.82,24.82,0,0,1,8.83-1.43,12.59,12.59,0,0,0,5,.3C564.09,146,566.21,145.72,567.91,147.33Z"/><path class="cls-2" d="M456.18.08c2.58,1.94,5.58,3.18,7.92,5.6a20.67,20.67,0,0,1,5.29,9.25,31.33,31.33,0,0,0,2.92,6.94,3.14,3.14,0,0,1,.53,2.62,30.49,30.49,0,0,1-9.11-6.95,4.59,4.59,0,0,1-.72-4.19c.7-2.34-.55-3.23-2.46-3.61C451.73,8,444,3.64,435.73.7a4.51,4.51,0,0,1-.88-.62Z"/><path class="cls-2" d="M.11,66.32c2.8-2.55,4.23-6,6.22-9.14.54-.83,1-2,2.16-1.68s.84,1.47,1,2.34A99.21,99.21,0,0,1,10.63,70c.08,4.06-1.45,7-5,8.93-3.08,1-4.27-1.23-5.53-3.31Z"/><path class="cls-3" d="M.66.08C2.67,2.54,5.42,3.91,8,5.54A25.85,25.85,0,0,1,11.29,8c3.62,3.2,3.33,6-.94,8.25a61.73,61.73,0,0,1-5.73,2.46C2,19.11,1.18,17.08.11,15.39V1.12C.14.8-.4,0,.66.08Z"/><path class="cls-6" d="M.11,75.63l5.53,3.31c-2.4,2.6-1.23,3.65,1.64,7.81,1.6,2.32,3.3,4.45,3.19,7.44C7.86,97.92,4.17,98.3.11,97.54Z"/><path class="cls-7" d="M14.32,147.26h-6a6.07,6.07,0,0,1-2.24-2c-1.86-3.41-4.4-6.41-6-10V118.88c3.39,2.53,5,6,5.73,10.09C7,135.83,10.86,141.46,14.32,147.26Z"/><path class="cls-8" d="M602.91,19.24c-4.11-.29-6.39-3.32-8.72-6.09-1.11-1.32-.93-3,.64-4.27a13.58,13.58,0,0,1,8.08-3.34Z"/><path class="cls-8" d="M602.91,101.36c-4.82-.34-4.8-1.16-6.8-6.47,1.83-2,3.67-4,5.46-6,.39-.44.71-.79,1.34-.62Z"/><path class="cls-8" d="M.11,135.31c3.54,2.25,5.18,5.93,7.13,9.38.29,2.11-1.52,2.06-2.72,2.65H.11Z"/><path class="cls-9" d="M.11,15.41c1.61.94,3.35,1.71,4.51,3.27A12.75,12.75,0,0,0,4,23.77c.13,2.83-1.07,4.66-3.89,5.32Z"/><path class="cls-10" d="M348.87.08c-3.1,1.22-6.39,1.15-9.62,1.4a110.11,110.11,0,0,1-24-.91,3.08,3.08,0,0,1-.91-.49Z"/><path class="cls-3" d="M206,147.27H156.73c-1.65-1.57-3.28-3.15-4.93-4.71-3.58-3.4-3.74-7.69-3.13-12.16.13-.91.31-1.8.47-2.7a1.2,1.2,0,0,0,.07-1.7l-.07-.06c-2.41-4.17-8.91-5.37-12.4-2.28-2.27,2-6.77,2.61-9.44.88A45.51,45.51,0,0,1,115,112.41a11.21,11.21,0,0,1-1-2.81,3.8,3.8,0,0,1,0-3.88c1.52-3.79-1-6.38-2.76-9.18-.43-.68-1.11-1.2-1.6-1.85-2.28-3-1.77-5.76,1.23-7.92a17.45,17.45,0,0,1,8-3.39c6-.77,11.27-3.41,16.52-6.14,1.77-.92,3.65-1.62,5.48-2.42.72-.32,1.76-.32,1.68-1.46-.07-1-.85-1.35-1.65-1.62a26.18,26.18,0,0,0-12.13-1.3,19.79,19.79,0,0,1-12.42-2.2c-1.65-.9-3.24-2-3.3-4,0-2.16,1.86-3,3.52-3.72,12.16-5.59,25.21-7.6,38.29-9.51,1.26-.18,2.54-.32,3.78-.6,2.26-.51,3.85-1.66,3.54-4.32a2.33,2.33,0,0,1,0-2.77c1.06-2.48,3.32-2.91,5.61-3.24,2.9-.42,5.81-.08,8.72-.13a193.07,193.07,0,0,0,32.65-2.84c2.36-.45,4.72-.65,7,.43,1.87.9,2.42,2.07.81,3.81-1.31,1.41-3.62,2.76-2.29,5s4,2.32,6.37,2.36a12.71,12.71,0,0,0,5-1.24c7.9-3.33,16.17-3.38,24.5-2.81,9.08.63,18.1,2.22,27.25,2a16.94,16.94,0,0,1,5.65.87c1.29.42,3,.86,2.84,2.49s-1.82,2.11-3.34,2.12c-2.74,0-5.49.1-8.21-.13a153.27,153.27,0,0,0-38,1.46c-8.63,1.41-17.21,3.19-25.81,4.8-.72.13-1.44.29-2.16.36-5.37.49-6.34-.45-5.74-5.72a2.13,2.13,0,0,0-1.52-2.6l-.19,0c-1.71-.5-3.43-.73-5,.28a15.37,15.37,0,0,1-8.92,2.07,42.38,42.38,0,0,0-8.7.81c-1.75.32-2.44,1.09-2.06,3,.7,3.58-.18,5-3.68,6.19-4.42,1.54-9.11,1.78-13.68,2.62-1.54.3-3.24.3-4.9,1.3,1.6,1.36,3.51,1.3,5.09,2,3.78,1.79,6,2.71,3.17,7.74C160.53,80,159,84,157.09,87.81c-2.18,4.37-5.8,7.13-10.29,8.9-1.62.63-4,.89-4,3.11s2.44,2.39,4.07,3c2.87,1.16,6,1.73,8.65,3.37a10.29,10.29,0,0,1,4.9,6.31c1.1,4.29,3.92,6.82,8,8.28,4.44,1.6,9.16,1.47,13.72,2.3s7.56,2.82,9.13,7.71c2.07,6.41,7.21,10.78,12.49,14.79A18,18,0,0,0,206,147.27Z"/><path class="cls-3" d="M408,147.26H396.52c5.5-2.74,11.43-4.22,17.29-5.88,10.07-2.87,20.28-5.3,29.87-9.65,8.73-3.95,16.74-8.82,22.13-17.08a12.25,12.25,0,0,0,1.66-8.66c-.36-2.62-3.64-3.45-6.36-1.58-2.09,1.44-3.95,3.2-6,4.73-12.26,9.29-26.34,13.77-41.39,15.7-5.53.71-10.74,2.86-16.28,3.55a14.57,14.57,0,0,1-5.66,0c5.15-1.5,9.6-2.68,14-4.08,9.12-2.92,18.21-6,26.5-10.87A47.86,47.86,0,0,0,450.56,94c1.36-2.6,1.3-5.64,1.28-8.58,0-3.13.36-3.47,3.52-3a29.83,29.83,0,0,0,6.54.24c3-.23,3.53-1.43,2.28-4.17-3.06-6.76-6.59-13.38-7.49-20.92-.49-.48-.51-1.23-1-1.71-.21-1.79-.42-3.58-.64-5.39-.66-.61-.33-1.65-1-2.26-1.11-7-.2-14.18-1.1-21.23-.08-.68-.35-1.67.37-2,.89-.41,1.46.51,2,1.11a16.29,16.29,0,0,1,4.23,10.07c.5.47.51,1.23,1,1.7,1,6.33,5.44,10,10.35,13.41,3.69,2.53,7.1,5.24,8.92,9.65,2.62,6.34,1.89,12.63.48,19-.15.7-.49,1.37-.64,2.07-1.56,7-.22,8.89,6.86,9.88,8.82,1.23,11.4,7.67,6.15,15.17a20.4,20.4,0,0,1-11.16,8.3,48,48,0,0,0-7.83,3.19c-2.49,1.26-4.09,3.28-3.81,6.36.31,3.47-2,5.11-4.75,6.23-5.32,2.19-10.94,3.47-16.41,5.24A390.7,390.7,0,0,1,408,147.26Z"/><path class="cls-2" d="M504.35,147.27H479.06c6.95-4.79,14.7-7.87,22.66-10.47,4-1.3,8-2.48,10.55-6.26a3.25,3.25,0,0,0,.84-1.66c0-4.2,2.87-6.67,5.77-9,5.06-4.1,10.77-7.35,15.44-12a36.92,36.92,0,0,0,8.74-12.58,10.19,10.19,0,0,0-2-10.74c-4.84-5.73-8.44-12.38-13.54-17.91a54.17,54.17,0,0,0-10.12-8.37c.14-.84.67-.78,1.08-.72,7.91,1.11,15.58,2.92,21.91,8.2,3,2.52,4.92,6,7.27,9s5,6,9.06,6.9c2.12,1.29,2.54,3.31,2.67,5.61.38,6.82-2.33,12.59-6,18-6,8.88-13.9,16.07-21.41,23.6-2.69,2.71-5.46,5.34-8.15,8.06C518.4,142.44,511.65,145.38,504.35,147.27Z"/><path class="cls-2" d="M98.09,49.32c3.75-3.91,7.39-7.92,11.28-11.69C115.14,32,120.77,26.25,126,20.17c4.26-4.94,9.28-6,15.18-5,2.61.42,5.16,1.13,7.75,1.66A9.44,9.44,0,0,0,156,15.65a16.56,16.56,0,0,1,8.58-2.4c6.65-.23,13.31-.39,20-.54.68,0,1.6-.38,1.93.51a2,2,0,0,1-.8,2.16,7.39,7.39,0,0,1-3.61,1.82c-10.82,2.08-20.91,6.34-31.18,10a93.35,93.35,0,0,1-9.1,2.89c-2.77.69-5,1.36-6.57,4.37-2.6,4.89-7.35,7.87-12.21,10.44a116,116,0,0,1-22.14,8.44c-1.41.4-2.51.65-2.9-1.18A2.4,2.4,0,0,1,98.09,49.32Z"/><path class="cls-3" d="M292.5,147.26H248.63c-6.35-2.24-13-3.76-18.9-7.07-4.54-2.52-7.94-5.74-9.16-11.18-1-4.41-4.67-7.5-7-11.3-2.17-3.64-5.24-6.84-5.53-11.39-1-1.14,0-2.77-1-3.9a3.39,3.39,0,0,1,.61-2.37,46.17,46.17,0,0,0,6,8.42c4.75,5.42,10.29,10,15.75,14.67,3.24,2.78,6.42,5.61,9.52,8.54,4.53,4.29,10.4,5.44,16.4,5.82,4.27.28,8.55-.05,12.83.47a38.7,38.7,0,0,1,14.58,4.41A86.39,86.39,0,0,0,292.5,147.26Z"/><path class="cls-3" d="M442,30.2c-.22,3.46-1.94,6.13-4.31,8.54-1.17,1.19-2,1.4-2.91-.22s-2-3.21-3-4.83c-1.57-2.62-4-3.59-6.9-3.56-2.63,0-5.26.13-7.9.06-4.6-.12-6.26-2-8.23-6.08-1.5-3.11-.73-5.22.89-7.6a1.56,1.56,0,0,0,.07-2.21h0A6.47,6.47,0,0,0,406,9.83L395.08,4.24a4.89,4.89,0,0,1-2.76-2.43c3.23-.17,6.22.61,9.2,1.09C408.35,4,415.14,5.25,421.85,7,430.79,9.4,436.51,15.37,441,23a8.89,8.89,0,0,1,1,3.94A3,3,0,0,1,442,30.2Z"/><path class="cls-11" d="M504.35,147.27a20.78,20.78,0,0,1,7.14-3.84c6.44-2.26,10.9-7,15.5-11.57,5.74-5.72,11.74-11.32,17.19-17.32,5.08-5.56,9.71-11.49,12.49-18.49a18.26,18.26,0,0,0,0-14.39,1.42,1.42,0,0,0,.53.13,8.89,8.89,0,0,1,8.93,3.09A31.58,31.58,0,0,1,562,99.65a215.69,215.69,0,0,0-9.87,20c-.75,1.84-.3,4-1.76,5.66-7,4.59-13.6,9.86-20.31,14.91-2.7,2-5.71,3.55-8.47,5.48-1.58,1.1-3.74,1-5.61,1.55Z"/><path class="cls-3" d="M363.63,147.27H333c8.59-2.52,17.45-3.77,26.23-5.34,21.7-3.88,43.6-6.8,64.78-13.25,3.22-1,6.37-2.21,9.55-3.32l6.1-2.16c-2.63,3.48-5.68,5-8.69,6.54-10.24,5.1-21.36,7.25-32.46,9.39-10.74,2.07-21.49,4.11-32,7.14C365.49,146.54,364.57,146.93,363.63,147.27Z"/><path class="cls-3" d="M511.08,76c-1.26,5.48-2.77,10.47-8.11,13.12-2.62,1.3-3.5.85-3.45-2.09.11-7.73-2.46-14.76-5.35-21.75-1.56-3.77-2.88-7.64-4.3-11.46-.17-.45-.25-.94.21-1.21s.86.13,1.2.42c1.52,1.28,3.08,2.54,4.55,3.88,4,3.59,8.54,6.47,11.9,10.76C509.73,70.17,510.1,73.23,511.08,76Z"/><path class="cls-6" d="M104.17,147.34l-29.77-.06c-.15-.81-1-1-1.42-1.55-2.72-3.48-1.42-7.7,2.83-8.94,6.65-1.95,12.72-.18,18.5,3.15,2.73,1.58,5.46,3.14,8.2,4.71A6.38,6.38,0,0,0,104.17,147.34Z"/><path class="cls-2" d="M511.87,50.85c-5.1-4.28-9.83-8.2-14.5-12.18-3-2.53-5.75-5.25-8.77-7.71-1.22-1-1.13-1.3.12-2.06a6,6,0,0,1,5.4-.83c7.61,2.47,12.61,7.52,15.54,14.85A23.87,23.87,0,0,1,511.87,50.85Z"/><path class="cls-2" d="M525.79,101.37c-.93,5.72-4.83,9.4-9.07,12.66a69.79,69.79,0,0,1-19.43,10.18,13.52,13.52,0,0,1-1.79.25c11.23-8.73,23.47-15.54,28.09-29.6,2,.88,1.83,2.73,2.21,4.31A1.79,1.79,0,0,1,525.79,101.37Z"/><path class="cls-12" d="M448,68.54c-2.22-1.55-2.59-4.27-4-6.36-3.36-5-5.92-10.39-5.38-16.7.06-.77-.3-1.83.67-2.16.8-.28,1.48.44,2.17.89,6.5,4.22,8,10.52,7.44,17.71-.76,1.15-.33,2.45-.45,3.69C448.45,66.6,448.73,67.65,448,68.54Z"/><path class="cls-2" d="M273.19,129.93c-11.26-1.26-20.65-5.72-26.92-15.83,2.39-.1,4.15,1.35,6,2.23,8,3.78,16,7.72,23.2,13C275.09,130.78,274,130,273.19,129.93Z"/><path class="cls-13" d="M143.08,147.26h-7.35c.38-1.74.06-4.39,1.55-4.91,1.66-.57,2.93,1.89,4.43,2.93C142.34,145.71,142.64,146.59,143.08,147.26Z"/><path class="cls-14" d="M114,105.72v3.88C112.45,108.31,112.44,107,114,105.72Z"/><path class="cls-15" d="M207.1,102.42c1.5,1,.94,2.53,1,3.9C206.58,105.32,207.17,103.79,207.1,102.42Z"/><path class="cls-16" d="M442,30.2V26.9Q444.1,28.53,442,30.2Z"/><path class="cls-17" d="M448,65.3c0-1.21-.39-2.53.93-3.38v3.23a.59.59,0,0,1-.81.23A.5.5,0,0,1,448,65.3Z"/><path class="cls-18" d="M186.21,21.39c0,1.08.08,2.16.13,3.23C184.56,23.62,184.78,22.54,186.21,21.39Z"/><path class="cls-19" d="M448,65.3l1-.15c0,1.23.38,2.54-.95,3.39C448,67.46,448,66.38,448,65.3Z"/><path class="cls-20" d="M162.1,43.31v2.77C160.81,45.17,160.79,44.24,162.1,43.31Z"/><path class="cls-21" d="M37.82,50.46c-1.29-.92-1.3-1.84,0-2.76Z"/><path class="cls-22" d="M98.09,49.32v2.85C96.61,51.19,96.62,50.25,98.09,49.32Z"/><path class="cls-23" d="M273.19,129.93l2.31-.64c.31.14.78.2.91.44.23.44-.18.61-.56.64A4.79,4.79,0,0,1,273.19,129.93Z"/><path class="cls-24" d="M256.24,108l2.19-.51,1.47.51A4.13,4.13,0,0,1,256.24,108Z"/><path class="cls-25" d="M454,48.24a2,2,0,0,1,1,2.26A2.07,2.07,0,0,1,454,48.24Z"/><path class="cls-26" d="M529,29.65c-1.2-.73-1.21-1.46,0-2.21C529,28.18,529,28.91,529,29.65Z"/><path class="cls-27" d="M199.9,76.71V79C198.58,78.17,198.73,77.43,199.9,76.71Z"/><path class="cls-25" d="M409.73,14.29c1.17.76,1.13,1.51-.05,2.22C409.73,15.77,409.73,15,409.73,14.29Z"/><path class="cls-28" d="M525.79,101.37v-2.2C526.94,99.9,526.94,100.64,525.79,101.37Z"/><path class="cls-29" d="M455.67,55.89a1.68,1.68,0,0,1,1,1.71A1.68,1.68,0,0,1,455.67,55.89Z"/><path class="cls-30" d="M333.6,75.13V73.4C334.78,74,334.73,74.54,333.6,75.13Z"/><path class="cls-31" d="M474.94,26.63c-.12.1-.25.28-.34.26a.55.55,0,0,1-.39-.29c-.1-.37.15-.45.43-.35C474.73,26.3,474.84,26.54,474.94,26.63Z"/><path class="cls-32" d="M149.1,125.94c1,.59,1,1.18,0,1.76Z"/><path class="cls-33" d="M460.52,37.88a1.7,1.7,0,0,1-1-1.7A1.71,1.71,0,0,1,460.52,37.88Z"/><path class="cls-34" d="M221.37,93.13c1,.55,1.06,1.11,0,1.69Z"/><path class="cls-35" d="M270.54,20.87v1.69C269.33,22,269.47,21.4,270.54,20.87Z"/><path class="cls-16" d="M568.93,61.42v1.63a1.73,1.73,0,0,1-1-1.69.68.68,0,0,1,1,0Z"/><path class="cls-36" d="M568.93,61.42l-1-.06V59.73A1.69,1.69,0,0,1,568.93,61.42Z"/><path class="cls-37" d="M83.81,55.94a1.72,1.72,0,0,1-1-1.68A1.6,1.6,0,0,1,83.81,55.94Z"/><path class="cls-6" d="M62.57,127.14c-1.88,6.25-4.54,6.57-9.1,5.11-2.25-.72-4.56-1.39-6.33-2.94-3.73-3.26-4-4.49.21-7.9a5.28,5.28,0,0,1,1.15-.72c3.35-1.37,11.78,1.09,14.16,4.11A2,2,0,0,1,62.57,127.14Z"/><path class="cls-38" d="M62.57,127.14l.09-2.34C64.35,125.64,63.73,126.4,62.57,127.14Z"/><path class="cls-6" d="M577.78,117.19c2.21-.27,4.35-1.21,6.61-.83,1.1.19,2.73,0,2.53,2a1.2,1.2,0,0,0,0,1.68c1,1.93,2.9,1.89,4.65,2.1,2.13.25,4.28.38,6.42.57.72.06,1.48,0,1.67,1-2,2.46-3,5.5-4.89,8-3.1,4.1-7.79,5.63-12.71,6.45-6,.74-11.34-1.25-16.39-4.18-1.62-.94-3.09-2.32-2.72-4.61.11-2.7,2.17-3.94,4-5.42C570.29,121.14,574.11,119.3,577.78,117.19Z"/><path class="cls-2" d="M563,129.26c2.61,3.61,6.42,5.34,10.52,6.53,2.84.83,5.73,1.51,8.59,2.26-5.14,2.25-9.42,5.92-14.22,8.72-3.77-1.65-7.4-.59-11,.56h-8.63a44.92,44.92,0,0,0,13.38-16A18.93,18.93,0,0,1,563,129.26Z"/><path class="cls-2" d="M516,147.27c9.18-4.83,17.33-11.15,25.52-17.45,2.61-2,5.38-4,8.87-4.49-1.35,2.76-3.55,4.84-5.68,6.91a125.26,125.26,0,0,1-19.4,15Z"/><path class="cls-39" d="M556.86,147.33a13.46,13.46,0,0,1,6.27-2.91c2.28-.55,3.87.15,4.76,2.35v.56Z"/><path class="cls-40" d="M587,120c-1-.53-1.11-1.09,0-1.68C586.94,118.87,587,119.43,587,120Z"/><path class="cls-41" d="M4.52,147.34l2.72-2.65a6.26,6.26,0,0,1,1.13,2.57Z"/></g></g></g><g id="Layer_2-2-2" data-name="Layer 2"><path class="cls-42" d="M36.51,116.72H35.35q-4.62,0-6.24-1.73c-1.09-1.16-1.63-3.27-1.63-6.36l-.74-61.74h-.52a4.72,4.72,0,0,1-3.47-1.15A3.73,3.73,0,0,1,21.6,43a4.92,4.92,0,0,1,1.1-2.94,6.67,6.67,0,0,1,3.2-2.21,44.87,44.87,0,0,1,13.34-2.1H40.5q10.71,0,17.74,3.26a24,24,0,0,1,10.5,8.66A21.67,21.67,0,0,1,72.21,59.6a29.86,29.86,0,0,1-4.57,15.22,44.86,44.86,0,0,1-13.49,14,21.16,21.16,0,0,1,9.45,4.88,9.66,9.66,0,0,1,3.25,7q0,3.68-3.25,7.24t-10,6A58.33,58.33,0,0,1,36.51,116.72Zm3.88-9.45c3.92-.56,6.78-1.45,8.56-2.68s2.68-2.46,2.68-3.72-.77-2.26-2.31-3.21a12.31,12.31,0,0,0-6.41-1.41l-2.31.1Zm.32-21,2.52-1.15a24.92,24.92,0,0,0,10.5-10.19,27.9,27.9,0,0,0,4.09-14.17A16,16,0,0,0,54,50.05q-3.83-4.52-12.76-5-.31,12.81-.42,25.72Q40.81,78.5,40.71,86.27Z"/><path class="cls-42" d="M77.57,115a6.18,6.18,0,0,1-3.21-.84,2.84,2.84,0,0,1-1.52-2.31c-.07-3.29-.1-7.25-.1-11.86a2.66,2.66,0,0,1-1.95-1.63,7.14,7.14,0,0,1-.68-3.1,6.71,6.71,0,0,1,.74-3.2,2.81,2.81,0,0,1,2.2-1.63,167.13,167.13,0,0,1,2.36-22.1,67.8,67.8,0,0,1,6.25-19.53Q86,40.49,93.42,38a13,13,0,0,1,3.68-.53q6.08,0,12.07,5.78t9.13,18.16a145.73,145.73,0,0,1,2.84,20.95q.84,11.92.84,26.3a5.11,5.11,0,0,1-1.68,3.89,5.58,5.58,0,0,1-4.09,1.68h-2.95a5.7,5.7,0,0,1-4-1.63,5.2,5.2,0,0,1-1.73-3.94v-7.87l-24.78-.52-.1,6.3.1,4.3a3.46,3.46,0,0,1-1.63,3.2A6.56,6.56,0,0,1,77.57,115Zm29.61-23.83a141.63,141.63,0,0,0-3.05-26.78q-1.57-7.88-3.62-11.45c-1.37-2.37-2.75-3.6-4.15-3.67h-.31q-3.37,0-5.67,3.83a34.86,34.86,0,0,0-3.78,10,114.39,114.39,0,0,0-2.32,13.39q-.84,7.18-1.15,14.12Z"/><path class="cls-42" d="M148.23,114.41h-.95q-11.13-1.16-16.9-12.6A55.6,55.6,0,0,1,124.6,76.4,55.76,55.76,0,0,1,130,52q5.35-11.19,16.48-13.71a15.55,15.55,0,0,1,3.05-.31,14.59,14.59,0,0,1,13.23,7.35,3.38,3.38,0,0,1,.42,1.47,2.81,2.81,0,0,1-2,2.57,9.84,9.84,0,0,1-4.09.9,4.41,4.41,0,0,1-3.26-1.06,5.35,5.35,0,0,0-4.51-1.88q-5.15.74-8.09,10.76a75.94,75.94,0,0,0-2.94,21.47,56.93,56.93,0,0,0,2.1,16.07q2.1,7.14,6.72,8.81a8.43,8.43,0,0,0,2.21.32,6.68,6.68,0,0,0,5.88-3.15,4.11,4.11,0,0,1,3-1,9.16,9.16,0,0,1,4.05,1,3.06,3.06,0,0,1,2,2.78,3.38,3.38,0,0,1-.42,1.47,17.12,17.12,0,0,1-4.62,5.15A18.72,18.72,0,0,1,148.23,114.41Z"/><path class="cls-42" d="M200.73,115.35a6.11,6.11,0,0,1-2.47-.47,2.34,2.34,0,0,1-1.42-1.62,57.55,57.55,0,0,0-4.78-11.34,107.21,107.21,0,0,0-5.93-9.77,19.88,19.88,0,0,1-4.51,2.73v1c.35,5,.69,10.15,1,15.33v.1c0,1.12-.95,2-2.84,2.78a16,16,0,0,1-5.88,1.1,10.11,10.11,0,0,1-3.88-.68,2.74,2.74,0,0,1-1.89-2.25q-1.26-18.06-1.68-36.33l-.11-10.82q0-12.39.63-24.47a2.67,2.67,0,0,1,1.89-2.31,11.18,11.18,0,0,1,4.2-.73,15.66,15.66,0,0,1,5.67,1.05q2.73,1,2.73,2.73v.1q-.63,11.77-.63,23.73L181,75.67c0,2.72.06,5.53.21,8.4a29.83,29.83,0,0,0,8.66-12.45A77.8,77.8,0,0,0,194.43,55a110.27,110.27,0,0,0,1.47-14.91,2.42,2.42,0,0,1,1.57-2.31,8.11,8.11,0,0,1,3.47-.73,8.55,8.55,0,0,1,3.72.83,2.64,2.64,0,0,1,1.74,2.42v.31a139.11,139.11,0,0,1-4.1,22.48,72.73,72.73,0,0,1-9.87,22.47A111.47,111.47,0,0,1,200,96.82,66.25,66.25,0,0,1,206.5,111l.11.73a3,3,0,0,1-2,2.68A8.57,8.57,0,0,1,200.73,115.35Z"/><path class="cls-42" d="M263.72,113.78a15.78,15.78,0,0,1-4.83-.68c-1.4-.46-2.17-1.14-2.31-2q-.94-13-.94-24.78,0-17.53,1.26-35.39c.07-1,.14-2,.21-3q-8,0-16-.31A2.71,2.71,0,0,1,238.89,46a6.1,6.1,0,0,1-.79-3,5.84,5.84,0,0,1,.74-2.89,2.47,2.47,0,0,1,2.31-1.31h.1q9,.21,23.84.21,14.39,0,29.4-.32t22.89-1.05h.1a2.48,2.48,0,0,1,2.31,1.26,5.57,5.57,0,0,1,.74,2.84,6.11,6.11,0,0,1-.74,2.94,3.15,3.15,0,0,1-2.2,1.68q-2.52.32-10.34.58t-16.7.47q-8.87.21-14.65.21c-2,.07-3.46.1-4.3.1Q271,60.45,271,73q0,18.38,1.47,36.75V110c0,1.26-.93,2.21-2.78,2.84A18.67,18.67,0,0,1,263.72,113.78Zm35.07-1.26a17.32,17.32,0,0,1-10.44-3.15,26,26,0,0,1-7.2-7.93A38.3,38.3,0,0,1,277,91.36a38.77,38.77,0,0,1-1.36-9.6A38.85,38.85,0,0,1,277,72.15,38.22,38.22,0,0,1,281.21,62a25.88,25.88,0,0,1,7.24-7.92A17.2,17.2,0,0,1,298.69,51a26.17,26.17,0,0,1,3.25.21q8.93,1.57,14.81,10.13t5.88,20.43q0,12.18-6.25,20.89t-15.7,9.77Zm2.84-9.76a9,9,0,0,0,5.77-2.26,16.08,16.08,0,0,0,4.47-6.93,34.5,34.5,0,0,0,1.73-11.81,34.56,34.56,0,0,0-1.73-11.82A16.08,16.08,0,0,0,307.4,63a8.94,8.94,0,0,0-5.77-2.25,9.63,9.63,0,0,0-6.2,2.41,17.35,17.35,0,0,0-4.83,7.09,30.75,30.75,0,0,0-1.89,11.5,30.69,30.69,0,0,0,1.89,11.49,17.35,17.35,0,0,0,4.83,7.09A9.65,9.65,0,0,0,301.63,102.76Z"/><path class="cls-42" d="M376.6,115.67h-1.26q-9.24-.42-15.23-5.09a15.32,15.32,0,0,1-6-12.76,23.54,23.54,0,0,1,1.26-7.24,2.83,2.83,0,0,1,2.73-1.79,9.51,9.51,0,0,1,4.3,1.26,18.28,18.28,0,0,1,4.15,2.89c1.15,1.08,1.73,1.94,1.73,2.57l-.1,2.2c0,3.3.77,5.64,2.31,7a7.59,7.59,0,0,0,5.25,2.1,11.41,11.41,0,0,0,6.88-2.36,7.05,7.05,0,0,0,3.2-5.83A7.29,7.29,0,0,0,384,94.2a17.72,17.72,0,0,0-6.3-4.46q-11.76-5.56-17-13.34t-5.2-15.54a23.91,23.91,0,0,1,6.41-16.54q6.41-7.08,16.8-7.61h.52A20.59,20.59,0,0,1,390.3,40a24.65,24.65,0,0,1,8.45,9.14,3.87,3.87,0,0,1,.53,1.89q0,2.63-3.21,4.46a12.44,12.44,0,0,1-6.24,1.84,4.73,4.73,0,0,1-4.1-1.89q-3.15-6.61-8.29-8.4a8.43,8.43,0,0,0-2.21-.32,6.53,6.53,0,0,0-5.46,2.79,11.06,11.06,0,0,0-2.1,6.87q0,4.84,3.57,10.4a24.74,24.74,0,0,0,6,6A76.59,76.59,0,0,0,384.16,77a38.17,38.17,0,0,1,9.19,6.61q3.93,3.9,4.67,11.45v1.26a18.4,18.4,0,0,1-2.58,9.45,19.34,19.34,0,0,1-7.4,7.14A22.87,22.87,0,0,1,376.6,115.67Z"/><path class="cls-42" d="M410.2,116.62a7,7,0,0,1-4.31-1.53,5.25,5.25,0,0,1-2-4.46l.21-63.74H404a4.86,4.86,0,0,1-3.57-1.15A3.73,3.73,0,0,1,399.28,43a4.85,4.85,0,0,1,1.1-2.94,6.64,6.64,0,0,1,3.31-2.21,47,47,0,0,1,13.33-2q11.66.21,19.11,4.15a26.22,26.22,0,0,1,11,10.29,27.1,27.1,0,0,1,3.57,13.49,30.61,30.61,0,0,1-.42,5,35.94,35.94,0,0,1-11.55,20.79,40.28,40.28,0,0,1-21.63,10.08v2.94c0,1.61,0,3.24-.11,4.88a23.16,23.16,0,0,1-.52,4.26,6,6,0,0,1-2.42,3.62A6.82,6.82,0,0,1,410.2,116.62Zm7.14-26.15a26.56,26.56,0,0,0,19.42-25.1,20.56,20.56,0,0,0-4.41-12.86q-4.41-5.71-13.75-7.3Z"/><path class="cls-42" d="M456.08,115a6.14,6.14,0,0,1-3.2-.84,2.82,2.82,0,0,1-1.52-2.31c-.07-3.29-.11-7.25-.11-11.86a2.63,2.63,0,0,1-1.94-1.63,7,7,0,0,1-.68-3.1,6.83,6.83,0,0,1,.73-3.2,2.84,2.84,0,0,1,2.21-1.63,165.46,165.46,0,0,1,2.36-22.1,67.49,67.49,0,0,1,6.25-19.53q4.31-8.36,11.76-10.87a12.93,12.93,0,0,1,3.67-.53q6.09,0,12.08,5.78t9.13,18.16a145.73,145.73,0,0,1,2.84,20.95q.84,11.92.84,26.3a5.11,5.11,0,0,1-1.68,3.89,5.58,5.58,0,0,1-4.1,1.68h-2.94a5.69,5.69,0,0,1-4-1.63,5.17,5.17,0,0,1-1.73-3.94v-7.87l-24.78-.52-.11,6.3.11,4.3a3.48,3.48,0,0,1-1.63,3.2A6.59,6.59,0,0,1,456.08,115Zm29.61-23.83a140.89,140.89,0,0,0-3-26.78Q481.08,56.55,479,53c-1.36-2.37-2.74-3.6-4.14-3.67h-.32q-3.36,0-5.67,3.83a35.46,35.46,0,0,0-3.78,10,116.58,116.58,0,0,0-2.31,13.39q-.84,7.18-1.15,14.12Z"/><path class="cls-42" d="M526.74,114.41h-.94q-11.13-1.16-16.91-12.6a55.59,55.59,0,0,1-5.77-25.41A55.75,55.75,0,0,1,508.47,52Q513.82,40.8,525,38.28a15.45,15.45,0,0,1,3-.31,14.59,14.59,0,0,1,13.23,7.35,3.38,3.38,0,0,1,.42,1.47,2.8,2.8,0,0,1-2,2.57,9.85,9.85,0,0,1-4.1.9,4.38,4.38,0,0,1-3.25-1.06,5.36,5.36,0,0,0-4.51-1.88q-5.16.74-8.09,10.76a75.94,75.94,0,0,0-2.94,21.47,56.93,56.93,0,0,0,2.1,16.07q2.1,7.14,6.72,8.81a8.37,8.37,0,0,0,2.21.32,6.67,6.67,0,0,0,5.87-3.15,4.14,4.14,0,0,1,3.05-1,9.09,9.09,0,0,1,4,1,3.06,3.06,0,0,1,2,2.78,3.38,3.38,0,0,1-.42,1.47,17.12,17.12,0,0,1-4.62,5.15A18.75,18.75,0,0,1,526.74,114.41Z"/><path class="cls-42" d="M551.52,114.62h-.21a2.92,2.92,0,0,1-2-.74,2.71,2.71,0,0,1-1-1.88,281.9,281.9,0,0,1-1.47-28.67q0-18.37,1.68-36.65l-2-.21a2.41,2.41,0,0,1-2.05-1.36,5.7,5.7,0,0,1-.68-2.73,6.24,6.24,0,0,1,.79-3.1A2.55,2.55,0,0,1,547,37.86h.21q17.43.95,35,1a2.38,2.38,0,0,1,2.26,1.26,5.78,5.78,0,0,1,.68,2.83,7.79,7.79,0,0,1-.89,3.63,2.73,2.73,0,0,1-2.47,1.73L563,47.53q-1.58,17.31-1.58,34.64v4.52h13.86a2.53,2.53,0,0,1,2.37,1.57,7.54,7.54,0,0,1,.78,3.37,6.3,6.3,0,0,1-.73,3A2.45,2.45,0,0,1,575.36,96l-13.76-.63c.21,3.35.46,6.75.74,10.18l19-.74a2.46,2.46,0,0,1,2.31,1.32,6,6,0,0,1,.74,3,7.32,7.32,0,0,1-.84,3.41,2.55,2.55,0,0,1-2.31,1.63l-15.75-.11Q558.45,114.09,551.52,114.62Z"/></g></g></svg>