<svg xmlns="http://www.w3.org/2000/svg" viewBox="0 0 185.04 138.9"><defs><style>.cls-1{fill:none;stroke:#fdfdfd;stroke-miterlimit:10;}.cls-2{fill:#fdfdfd;}</style></defs><title>10</title><g id="Layer_2" data-name="Layer 2"><g id="lines"><line class="cls-1" x1="8.67" y1="8.5" x2="126.11" y2="59.44"/><line class="cls-1" x1="169.27" y1="94.82" x2="126.11" y2="59.44"/><line class="cls-1" x1="177.76" y1="130.9" x2="169.27" y2="94.82"/></g><g id="dots"><path class="cls-2" d="M8.21,17c10.94,0,11-17,0-17s-11,17,0,17Z"/><path class="cls-2" d="M177.31,138.9c10.29,0,10.31-16,0-16s-10.31,16,0,16Z"/><path class="cls-2" d="M168.82,97.82c3.86,0,3.86-6,0-6s-3.87,6,0,6Z"/><path class="cls-2" d="M125.66,64.44c6.43,0,6.44-10,0-10s-6.45,10,0,10Z"/></g></g></svg>