<svg xmlns="http://www.w3.org/2000/svg" viewBox="0 0 127.61 190.54"><defs><style>.cls-1{fill:none;stroke:#fdfdfd;stroke-miterlimit:10;}.cls-2{fill:#fdfdfd;}</style></defs><title>4</title><g id="Layer_2" data-name="Layer 2"><g id="lines"><line class="cls-1" x1="7.24" y1="183.04" x2="36.28" y2="153.15"/><line class="cls-1" x1="120.37" y1="81.55" x2="36.28" y2="153.15"/><line class="cls-1" x1="11.43" y1="122.78" x2="7.24" y2="183.04"/><line class="cls-1" x1="63.89" y1="66.17" x2="11.43" y2="122.78"/><line class="cls-1" x1="92.89" y1="59.26" x2="63.89" y2="66.17"/><line class="cls-1" x1="120.37" y1="81.55" x2="92.89" y2="59.26"/><line class="cls-1" x1="49.4" y1="46.84" x2="63.89" y2="66.17"/><line class="cls-1" x1="54.79" y1="4.57" x2="49.4" y2="46.84"/><line class="cls-1" x1="77.7" y1="3" x2="54.79" y2="4.57"/></g><g id="dots"><path class="cls-2" d="M77.7,6c3.86,0,3.87-6,0-6s-3.86,6,0,6Z"/><path class="cls-2" d="M92.89,62.26c3.86,0,3.87-6,0-6s-3.87,6,0,6Z"/><path class="cls-2" d="M63.89,69.17c3.87,0,3.87-6,0-6s-3.86,6,0,6Z"/><path class="cls-2" d="M49.4,49.84c3.86,0,3.86-6,0-6s-3.87,6,0,6Z"/><path class="cls-2" d="M11.43,125.78c3.86,0,3.86-6,0-6s-3.87,6,0,6Z"/><path class="cls-2" d="M36.28,156.15c3.86,0,3.87-6,0-6s-3.87,6,0,6Z"/><path class="cls-2" d="M54.79,9.07c5.79,0,5.8-9,0-9s-5.8,9,0,9Z"/><path class="cls-2" d="M7.24,190.54c9.66,0,9.67-15,0-15s-9.66,15,0,15Z"/><path class="cls-2" d="M120.37,89.05c9.65,0,9.67-15,0-15s-9.67,15,0,15Z"/></g></g></svg>