<svg xmlns="http://www.w3.org/2000/svg" viewBox="0 0 97.98 187.76"><defs><style>.cls-1{fill:none;stroke:#fdfdfd;stroke-miterlimit:10;}.cls-2{fill:#fdfdfd;}</style></defs><title>5</title><g id="Layer_2" data-name="Layer 2"><g id="lines"><line class="cls-1" x1="78.43" y1="7.5" x2="78.01" y2="39.33"/><line class="cls-1" x1="71.22" y1="63.09" x2="78.01" y2="39.33"/><line class="cls-1" x1="13.08" y1="58.42" x2="46.18" y2="69.03"/><line class="cls-1" x1="74.19" y1="100.86" x2="71.22" y2="63.09"/><line class="cls-1" x1="46.18" y1="69.03" x2="71.22" y2="63.09"/><line class="cls-1" x1="45.76" y1="111.89" x2="46.18" y2="69.03"/><line class="cls-1" x1="90.74" y1="125.47" x2="74.19" y2="100.86"/><line class="cls-1" x1="45.76" y1="111.89" x2="90.74" y2="125.47"/><line class="cls-1" x1="24.96" y1="129.29" x2="45.76" y2="111.89"/><line class="cls-1" x1="2.9" y1="167.48" x2="24.96" y2="129.29"/><line class="cls-1" x1="40.67" y1="182.76" x2="53.82" y2="157.72"/><line class="cls-1" x1="66.55" y1="163.66" x2="53.82" y2="157.72"/><line class="cls-1" x1="90.74" y1="125.47" x2="66.55" y2="163.66"/></g><g id="dots"><path class="cls-2" d="M78.43,15c9.66,0,9.67-15,0-15s-9.66,15,0,15Z"/><path class="cls-2" d="M90.74,133c9.65,0,9.67-15,0-15s-9.67,15,0,15Z"/><path class="cls-2" d="M78,42.33c3.86,0,3.87-6,0-6s-3.87,6,0,6Z"/><path class="cls-2" d="M46.18,72c3.86,0,3.87-6,0-6s-3.86,6,0,6Z"/><path class="cls-2" d="M74.19,103.86c3.86,0,3.87-6,0-6s-3.87,6,0,6Z"/><path class="cls-2" d="M25,132.29c3.87,0,3.87-6,0-6s-3.86,6,0,6Z"/><path class="cls-2" d="M2.9,170.48c3.86,0,3.87-6,0-6s-3.87,6,0,6Z"/><path class="cls-2" d="M53.82,160.72c3.86,0,3.87-6,0-6s-3.87,6,0,6Z"/><path class="cls-2" d="M66.55,166.66c3.86,0,3.87-6,0-6s-3.87,6,0,6Z"/><path class="cls-2" d="M40.67,187.76c6.43,0,6.44-10,0-10s-6.45,10,0,10Z"/><path class="cls-2" d="M45.76,116.89c6.43,0,6.44-10,0-10s-6.45,10,0,10Z"/><path class="cls-2" d="M71.22,68.09c6.43,0,6.44-10,0-10s-6.45,10,0,10Z"/><path class="cls-2" d="M12.66,61.35c3.22,0,3.22-5,0-5s-3.22,5,0,5Z"/></g></g></svg>