<svg xmlns="http://www.w3.org/2000/svg" viewBox="0 0 137.29 178.49"><defs><style>.cls-1{fill:none;stroke:#fdfdfd;stroke-miterlimit:10;}.cls-2{fill:#fdfdfd;}</style></defs><title>2</title><g id="Layer_2" data-name="Layer 2"><g id="lines"><line class="cls-1" x1="3.38" y1="77.75" x2="33.18" y2="75.86"/><line class="cls-1" x1="42.29" y1="56.18" x2="33.18" y2="75.86"/><line class="cls-1" x1="65.3" y1="4.5" x2="42.29" y2="56.18"/><line class="cls-1" x1="130.05" y1="48.23" x2="65.3" y2="4.5"/><line class="cls-1" x1="119.47" y1="123.7" x2="130.05" y2="48.23"/><line class="cls-1" x1="71.27" y1="149.26" x2="119.47" y2="123.7"/><line class="cls-1" x1="68.78" y1="174.99" x2="71.27" y2="149.26"/><line class="cls-1" x1="65.3" y1="4.5" x2="119.47" y2="123.7"/></g><g id="dots"><path class="cls-2" d="M3.38,81.25c4.51,0,4.51-7,0-7s-4.51,7,0,7Z"/><path class="cls-2" d="M33.18,79.36c4.51,0,4.52-7,0-7s-4.51,7,0,7Z"/><path class="cls-2" d="M42.29,59.68c4.51,0,4.51-7,0-7s-4.51,7,0,7Z"/><path class="cls-2" d="M71.27,152.76c4.5,0,4.51-7,0-7s-4.51,7,0,7Z"/><path class="cls-2" d="M68.78,178.49c4.51,0,4.52-7,0-7s-4.51,7,0,7Z"/><path class="cls-2" d="M130.05,55.73c9.65,0,9.66-15,0-15s-9.67,15,0,15Z"/><path class="cls-2" d="M119.47,128.2c5.79,0,5.8-9,0-9s-5.8,9,0,9Z"/><path class="cls-2" d="M65.3,9c5.8,0,5.8-9,0-9s-5.8,9,0,9Z"/></g></g></svg>