<svg xmlns="http://www.w3.org/2000/svg" viewBox="0 0 189.71 151.61"><defs><style>.cls-1{fill:none;stroke:#fdfdfd;stroke-miterlimit:10;}.cls-2{fill:#fdfdfd;}</style></defs><title>8</title><g id="Layer_2" data-name="Layer 2"><g id="lines"><line class="cls-1" x1="6.76" y1="81.45" x2="21.67" y2="64.19"/><line class="cls-1" x1="38.93" y1="41.44" x2="21.67" y2="64.19"/><line class="cls-1" x1="70.7" y1="55.56" x2="38.93" y2="41.44"/><line class="cls-1" x1="91.49" y1="75.57" x2="70.7" y2="55.56"/><line class="cls-1" x1="108.75" y1="52.03" x2="91.49" y2="75.57"/><line class="cls-1" x1="36.57" y1="117.93" x2="6.76" y2="81.45"/><line class="cls-1" x1="52.26" y1="144.61" x2="36.57" y2="117.93"/><line class="cls-1" x1="75.8" y1="126.17" x2="52.26" y2="144.61"/><line class="cls-1" x1="80.9" y1="148.53" x2="52.26" y2="144.61"/><line class="cls-1" x1="92.67" y1="44.97" x2="108.75" y2="52.03"/><line class="cls-1" x1="126.4" y1="40.66" x2="108.75" y2="52.03"/><line class="cls-1" x1="142.88" y1="7.31" x2="126.4" y2="40.66"/><line class="cls-1" x1="138.17" y1="63.02" x2="126.4" y2="40.66"/><line class="cls-1" x1="160.14" y1="65.76" x2="138.17" y2="63.02"/><line class="cls-1" x1="186.81" y1="45.36" x2="160.14" y2="65.76"/><line class="cls-1" x1="129.93" y1="86.95" x2="138.17" y2="63.02"/><line class="cls-1" x1="142.88" y1="100.28" x2="129.93" y2="86.95"/><line class="cls-1" x1="80.51" y1="23.79" x2="92.67" y2="44.97"/><line class="cls-1" x1="88.75" y1="9.28" x2="80.51" y2="23.79"/><line class="cls-1" x1="64.03" y1="19.87" x2="80.51" y2="23.79"/><line class="cls-1" x1="43.63" y1="3" x2="64.03" y2="19.87"/></g><g id="dots"><path class="cls-2" d="M43.63,6c3.87,0,3.87-6,0-6s-3.86,6,0,6Z"/><path class="cls-2" d="M64,22.87c3.86,0,3.87-6,0-6s-3.86,6,0,6Z"/><path class="cls-2" d="M80.51,26.79c3.86,0,3.87-6,0-6s-3.87,6,0,6Z"/><path class="cls-2" d="M88.75,12.28c3.86,0,3.86-6,0-6s-3.87,6,0,6Z"/><path class="cls-2" d="M92.67,48c3.86,0,3.87-6,0-6s-3.87,6,0,6Z"/><path class="cls-2" d="M108.75,55c3.86,0,3.87-6,0-6s-3.87,6,0,6Z"/><path class="cls-2" d="M126.4,43.66c3.86,0,3.87-6,0-6s-3.86,6,0,6Z"/><path class="cls-2" d="M138.17,66c3.86,0,3.87-6,0-6s-3.87,6,0,6Z"/><path class="cls-2" d="M186.81,48.36c3.86,0,3.87-6,0-6s-3.86,6,0,6Z"/><path class="cls-2" d="M129.93,90c3.86,0,3.87-6,0-6s-3.86,6,0,6Z"/><path class="cls-2" d="M142.88,103.28c3.86,0,3.87-6,0-6s-3.87,6,0,6Z"/><path class="cls-2" d="M70.7,58.56c3.86,0,3.87-6,0-6s-3.87,6,0,6Z"/><path class="cls-2" d="M38.93,44.44c3.86,0,3.86-6,0-6s-3.87,6,0,6Z"/><path class="cls-2" d="M21.67,67.19c3.86,0,3.87-6,0-6s-3.87,6,0,6Z"/><path class="cls-2" d="M36.57,120.93c3.86,0,3.87-6,0-6s-3.86,6,0,6Z"/><path class="cls-2" d="M75.8,129.17c3.86,0,3.87-6,0-6s-3.87,6,0,6Z"/><path class="cls-2" d="M80.9,151.53c3.86,0,3.87-6,0-6s-3.87,6,0,6Z"/><path class="cls-2" d="M6.76,88.45c9,0,9-14,0-14s-9,14,0,14Z"/><path class="cls-2" d="M91.49,82.57c9,0,9-14,0-14s-9,14,0,14Z"/><path class="cls-2" d="M142.88,14.31c9,0,9-14,0-14s-9,14,0,14Z"/><path class="cls-2" d="M52.26,151.61c9,0,9-14,0-14s-9,14,0,14Z"/><path class="cls-2" d="M160.14,69.76c5.15,0,5.15-8,0-8s-5.16,8,0,8Z"/></g></g></svg>