<svg xmlns="http://www.w3.org/2000/svg" viewBox="0 0 176.96 182.12"><defs><style>.cls-1{fill:none;stroke:#fdfdfd;stroke-miterlimit:10;}.cls-2{fill:#fdfdfd;}</style></defs><title>9</title><g id="Layer_2" data-name="Layer 2"><g id="lines"><line class="cls-1" x1="8.21" y1="7.5" x2="44.46" y2="71.72"/><line class="cls-1" x1="56.37" y1="101.23" x2="40.32" y2="182.02"/><line class="cls-1" x1="168.75" y1="161.83" x2="56.37" y2="101.23"/><line class="cls-1" x1="44.46" y1="71.72" x2="55.34" y2="99.68"/></g><g id="dots"><path class="cls-2" d="M44.46,75.72c3.86,0,3.87-6,0-6s-3.87,6,0,6Z"/><path class="cls-2" d="M168.75,171.33c10.94,0,11-17,0-17s-11,17,0,17Z"/><path class="cls-2" d="M8.21,17c10.94,0,11-17,0-17s-11,17,0,17Z"/><path class="cls-2" d="M56.37,105.23c3.86,0,3.87-6,0-6s-3.86,6,0,6Z"/></g></g></svg>