<svg xmlns="http://www.w3.org/2000/svg" viewBox="0 0 129.05 193.3"><defs><style>.cls-1{fill:none;stroke:#fdfdfd;stroke-miterlimit:10;}.cls-2{fill:#fdfdfd;}</style></defs><title>12</title><g id="Layer_2" data-name="Layer 2"><g id="lines"><line class="cls-1" x1="14.69" y1="159.55" x2="7.24" y2="185.8"/><line class="cls-1" x1="36.68" y1="171.26" x2="7.24" y2="185.8"/><line class="cls-1" x1="67.18" y1="164.52" x2="36.68" y2="171.26"/><line class="cls-1" x1="100.17" y1="143.24" x2="67.18" y2="164.52"/><line class="cls-1" x1="121.8" y1="141.82" x2="100.17" y2="143.24"/><line class="cls-1" x1="116.13" y1="112.03" x2="121.8" y2="141.82"/><line class="cls-1" x1="81.02" y1="29.04" x2="116.13" y2="112.03"/><line class="cls-1" x1="78.89" y1="3.5" x2="81.02" y2="29.04"/><line class="cls-1" x1="53.71" y1="115.57" x2="81.02" y2="29.04"/><line class="cls-1" x1="32.78" y1="137.56" x2="51.93" y2="115.57"/><line class="cls-1" x1="14.69" y1="159.55" x2="32.78" y2="137.56"/><line class="cls-1" x1="7.24" y1="185.8" x2="14.69" y2="159.55"/></g><g id="dots"><path class="cls-2" d="M78.89,7c4.5,0,4.51-7,0-7s-4.51,7,0,7Z"/><path class="cls-2" d="M116.13,115.53c4.5,0,4.51-7,0-7s-4.51,7,0,7Z"/><path class="cls-2" d="M100.17,146.74c4.5,0,4.51-7,0-7s-4.51,7,0,7Z"/><path class="cls-2" d="M67.18,168c4.51,0,4.52-7,0-7s-4.51,7,0,7Z"/><path class="cls-2" d="M32.78,141.06c4.51,0,4.51-7,0-7s-4.51,7,0,7Z"/><path class="cls-2" d="M14.69,163.05c4.51,0,4.51-7,0-7s-4.51,7,0,7Z"/><path class="cls-2" d="M36.68,174.76c4.51,0,4.51-7,0-7s-4.51,7,0,7Z"/><path class="cls-2" d="M53.71,120.07c5.79,0,5.8-9,0-9s-5.8,9,0,9Z"/><path class="cls-2" d="M121.8,149.32c9.65,0,9.67-15,0-15s-9.67,15,0,15Z"/><path class="cls-2" d="M81,36.54c9.65,0,9.66-15,0-15s-9.67,15,0,15Z"/><path class="cls-2" d="M7.24,193.3c9.66,0,9.67-15,0-15s-9.66,15,0,15Z"/></g></g></svg>