<svg xmlns="http://www.w3.org/2000/svg" viewBox="0 0 169.2 190.29"><defs><style>.cls-1{fill:none;stroke:#fdfdfd;stroke-miterlimit:10;}.cls-2{fill:#fdfdfd;}</style></defs><title>3</title><g id="Layer_2" data-name="Layer 2"><g id="lines"><line class="cls-1" x1="161.96" y1="182.79" x2="90.94" y2="120.01"/><line class="cls-1" x1="88.26" y1="100.67" x2="90.94" y2="120.01"/><line class="cls-1" x1="75.77" y1="113.51" x2="90.94" y2="120.01"/><line class="cls-1" x1="58.41" y1="104.85" x2="75.77" y2="113.51"/><line class="cls-1" x1="81.25" y1="86.04" x2="88.26" y2="100.67"/><line class="cls-1" x1="70.59" y1="54.68" x2="81.25" y2="86.04"/><line class="cls-1" x1="7.24" y1="46.32" x2="56.48" y2="104.85"/><line class="cls-1" x1="41.35" y1="7.5" x2="70.59" y2="54.68"/></g><g id="dots"><path class="cls-2" d="M110.49,140.6c4.5,0,4.51-7,0-7s-4.51,7,0,7Z"/><path class="cls-2" d="M81.25,89.54c4.51,0,4.51-7,0-7s-4.51,7,0,7Z"/><path class="cls-2" d="M88.26,104.17c4.5,0,4.51-7,0-7s-4.52,7,0,7Z"/><path class="cls-2" d="M58.41,108.35c4.5,0,4.51-7,0-7s-4.51,7,0,7Z"/><path class="cls-2" d="M75.77,117c4.5,0,4.51-7,0-7s-4.51,7,0,7Z"/><path class="cls-2" d="M70.59,58.18c4.51,0,4.51-7,0-7s-4.51,7,0,7Z"/><path class="cls-2" d="M162,190.29c9.65,0,9.67-15,0-15s-9.67,15,0,15Z"/><path class="cls-2" d="M7.24,53.82c9.66,0,9.67-15,0-15s-9.66,15,0,15Z"/><path class="cls-2" d="M41.35,15C51,15,51,0,41.35,0s-9.66,15,0,15Z"/><path class="cls-2" d="M90.94,124.51c5.79,0,5.8-9,0-9s-5.8,9,0,9Z"/></g></g></svg>