<svg xmlns="http://www.w3.org/2000/svg" viewBox="0 0 128.26 189.88"><defs><style>.cls-1{fill:none;stroke:#fdfdfd;stroke-miterlimit:10;}.cls-2{fill:#fdfdfd;}</style></defs><title>6</title><g id="Layer_2" data-name="Layer 2"><g id="lines"><line class="cls-1" x1="121.02" y1="7.5" x2="67.65" y2="47.3"/><line class="cls-1" x1="21.39" y1="78.16" x2="67.65" y2="47.3"/><line class="cls-1" x1="62.48" y1="103.54" x2="21.39" y2="78.16"/><line class="cls-1" x1="103.52" y1="93.81" x2="62.48" y2="103.54"/><line class="cls-1" x1="20.53" y1="108.1" x2="21.39" y2="78.16"/><line class="cls-1" x1="4.72" y1="104.76" x2="20.53" y2="108.1"/><line class="cls-1" x1="2.9" y1="123.61" x2="4.72" y2="104.76"/><line class="cls-1" x1="42.94" y1="182.38" x2="2.9" y2="123.61"/><line class="cls-1" x1="52.15" y1="152.79" x2="42.94" y2="182.38"/><line class="cls-1" x1="80.71" y1="140.92" x2="52.15" y2="152.79"/><line class="cls-1" x1="90.75" y1="159.48" x2="80.71" y2="140.92"/><line class="cls-1" x1="116.59" y1="174.37" x2="90.75" y2="159.48"/></g><g id="dots"><path class="cls-2" d="M4.72,107.76c3.86,0,3.87-6,0-6s-3.87,6,0,6Z"/><path class="cls-2" d="M20.53,111.1c3.86,0,3.87-6,0-6s-3.87,6,0,6Z"/><path class="cls-2" d="M2.9,126.61c3.86,0,3.87-6,0-6s-3.87,6,0,6Z"/><path class="cls-2" d="M52.15,155.79c3.86,0,3.86-6,0-6s-3.87,6,0,6Z"/><path class="cls-2" d="M90.75,162.48c3.86,0,3.87-6,0-6s-3.86,6,0,6Z"/><path class="cls-2" d="M116.59,177.37c3.86,0,3.87-6,0-6s-3.86,6,0,6Z"/><path class="cls-2" d="M103.52,96.81c3.86,0,3.87-6,0-6s-3.87,6,0,6Z"/><path class="cls-2" d="M67.65,50.3c3.86,0,3.87-6,0-6s-3.87,6,0,6Z"/><path class="cls-2" d="M62.48,106.54c3.86,0,3.87-6,0-6s-3.87,6,0,6Z"/><path class="cls-2" d="M80.71,145.42c5.79,0,5.8-9,0-9s-5.8,9,0,9Z"/><path class="cls-2" d="M21.39,85.66c9.65,0,9.67-15,0-15s-9.67,15,0,15Z"/><path class="cls-2" d="M42.94,189.88c9.65,0,9.67-15,0-15s-9.66,15,0,15Z"/><path class="cls-2" d="M121,15c9.65,0,9.67-15,0-15s-9.67,15,0,15Z"/></g></g></svg>