<svg id="edvik4x3iox61" xmlns="http://www.w3.org/2000/svg" xmlns:xlink="http://www.w3.org/1999/xlink" viewBox="0 0 603.060000 148.040000" shape-rendering="geometricPrecision" text-rendering="geometricPrecision"><g id="edvik4x3iox62"><g id="edvik4x3iox63"><g id="edvik4x3iox64"><path id="edvik4x3iox65" d="M108.240000,0.540000L259.350000,0.540000C260.260000,1.870000,259.620000,2.710000,258.460000,3.420000C255.899237,4.886639,252.917505,5.443511,250,5C249.820472,4.990372,249.642642,4.960175,249.470000,4.910000C236.780000,0.430000,225.280000,5.200000,213.830000,9.700000C206.830000,12.460000,200.180000,16.160000,193.070000,18.780000C191.350000,19.410000,189.400000,19.980000,188.560000,21.910000C188.560000,21.910000,188.670000,22.110000,188.710000,22.070000C193.350000,20.640000,197.710000,18.630000,202.340000,17.250000C208.970000,15.250000,215.570000,13.170000,222.060000,10.730000C225.560000,9.410000,227.060000,10.090000,229.220000,13.210000C231.650000,16.800000,234.010000,17.880000,237.720000,15.990000C244.820000,12.360000,252.530000,11.710000,260.180000,10.670000C263.899001,10.225317,267.539529,9.273127,271,7.840000C274.820759,6.022657,279.358192,6.668612,282.520000,9.480000C283.455330,10.157041,284.052464,11.205237,284.157865,12.355071C284.263267,13.504904,283.866652,14.644194,283.070000,15.480000C281.211314,17.622306,278.846167,19.265532,276.190000,20.260000C275.190000,20.660000,274.070000,20.920000,273.510000,21.970000C273.560000,22.160000,273.580000,22.350000,273.650000,22.540000C275.160000,23.850000,276.880000,23.430000,278.330000,22.800000C286.070000,19.450000,294.330000,19.510000,302.480000,18.930000C306.830000,18.620000,311.130000,17.640000,315.540000,18.370000C317.055959,18.595971,318.548602,18.957419,320,19.450000C321.715157,19.982591,322.880358,21.574086,322.870000,23.370000C322.990000,25.370000,321.760000,26.440000,320.170000,27.080000C317.514000,28.049921,314.724855,28.606401,311.900000,28.730000C306.420000,29.130000,301.030000,29.940000,296.070000,32.560000C293.970580,33.663536,292.046335,35.072178,290.360000,36.740000C289.850000,37.240000,289.310000,37.870000,289.690000,38.670000C290.070000,39.470000,290.890000,39.410000,291.610000,39.310000C303.700000,37.670000,316.050000,39.800000,328.080000,36.670000C332.510000,35.510000,334.370000,36.850000,336.530000,41.050000C337.329436,42.502055,338.593833,43.643182,340.120000,44.290000C342.741875,45.578827,345.485361,46.603865,348.310000,47.350000C356.147133,49.479365,363.603642,52.819611,370.410000,57.250000C374.676894,59.876280,378.781053,62.758207,382.700000,65.880000C385.810000,68.360000,388.460000,71.330000,391.800000,73.620000C395.950000,76.480000,394.520000,81.330000,390.310000,83.420000C387.474813,84.676285,384.456479,85.469695,381.370000,85.770000C379.920000,85.980000,377.810000,85.670000,377.370000,87.430000C376.930000,89.190000,379.150000,89.170000,380.080000,90.080000C380.780000,90.770000,381.680000,91.280000,382.450000,91.920000C385.380000,94.360000,385.170000,97.200000,381.900000,99.170000C381.515925,99.418090,381.098372,99.610029,380.660000,99.740000C374.270000,101.310000,368.330000,104.250000,361.990000,105.910000C357.620000,107.050000,353.130000,107.010000,349.040000,104.450000C348.040000,103.820000,346.960000,103.320000,345.960000,102.670000C341.690000,99.880000,337.310000,99.810000,332.710000,101.940000C329,103.660000,325,106,321,103.840000C316.180000,101.200000,311.600000,101.840000,306.740000,102.950000C304.770635,103.407151,302.714076,103.320741,300.790000,102.700000C298.200000,101.850000,296.890000,99.950000,297.880000,97.440000C299.620000,93.020000,299.140000,91.730000,293.630000,89.770000C291.633931,89.095557,289.769724,88.080563,288.120000,86.770000C286.010000,85.040000,286.010000,82.770000,288.280000,81.130000C292.550000,78.130000,297.580000,77.530000,302.560000,76.970000C307.775190,76.471891,313.021914,77.514977,317.650000,79.970000C318.930000,80.610000,320.040000,81.360000,320.050000,82.970000C320.060000,84.580000,318.960000,85.360000,317.590000,85.860000C316.220000,86.360000,314.900000,86.970000,313.490000,87.390000C312.790000,87.600000,312,87.900000,311.960000,88.750000C311.960000,89.750000,312.830000,90.060000,313.610000,90.300000C315.961352,91.032545,318.369697,91.567733,320.810000,91.900000C325.860000,92.600000,330.890000,93.520000,336.030000,93.310000C338.966425,93.227689,341.816882,92.300683,344.240000,90.640000C345.050000,90.080000,346,89.460000,345.740000,88.250000C345.520000,87.250000,344.550000,86.950000,343.670000,86.700000C341.480000,86.080000,339.270000,85.510000,337.030000,85.090000L336.480000,85.020000C329.480000,83.760000,328.270000,81.320000,331.710000,75.460000C331.726887,75.106623,331.632450,74.756856,331.440000,74.460000C330.632831,73.671245,329.566848,73.202212,328.440000,73.140000C321.640000,71.850000,314.940000,71.690000,308.210000,73.880000C304.800000,74.990000,301.040000,75.680000,297.830000,72.880000C295.900000,71.240000,296.020000,69.460000,298.060000,67.880000C298.553185,67.475990,299.125446,67.179641,299.740000,67.010000C307.990000,65.140000,316.150000,62.670000,324.740000,63.010000C327.740000,63.150000,330.680000,63.930000,333.670000,64.260000C335.014113,64.470428,336.389555,64.339761,337.670000,63.880000C338.980000,63.340000,339.060000,62.470000,337.870000,61.680000C336.777170,61.012139,335.558539,60.576427,334.290000,60.400000C323.010000,58.460000,311.830000,57.890000,301.050000,62.890000C297.092911,64.831806,292.389768,64.447876,288.800000,61.890000C283.030000,58.040000,277.430000,58.490000,271.550000,61.650000C267.230000,63.980000,262.370000,64.530000,257.550000,65.080000C253.820000,65.510000,250.090000,66.010000,246.770000,67.880000C244.959233,69.101503,242.552748,68.949558,240.910000,67.510000C236.600000,63.900000,231.910000,64.390000,226.910000,65.510000C218.740000,67.440000,211.260000,70.910000,204.010000,74.990000C203.011411,75.459769,202.210953,76.267311,201.750000,77.270000C201.585061,77.745788,201.553929,78.257731,201.660000,78.750000C202.060000,80.320000,203.280000,81.060000,204.580000,81.750000C208.730000,83.990000,213.230000,85.470000,217.460000,87.510000C219.920000,88.700000,222.300000,90.080000,222.460000,93.310000C222.408172,93.856759,222.452165,94.408368,222.590000,94.940000C222.400000,97.330000,223.800000,98.510000,225.750000,99.490000C233.190000,103.210000,241.180000,104.920000,249.310000,106.080000C251.590000,106.410000,253.790000,107.140000,256.090000,107.330000C256.309760,107.395841,256.523799,107.479450,256.730000,107.580000L256.870000,107.650000C250.640000,106.820000,246.180000,102.910000,241.710000,99.020000C240.031800,97.763900,238.447586,96.386903,236.970000,94.900000C234.790000,92.360000,234.970000,89.900000,237.640000,87.900000C240.050000,86.140000,242.890000,84.980000,244.640000,82.360000C245.300000,81.360000,246.640000,81.490000,247.700000,81.540000C254.548457,81.792973,261.285682,83.350851,267.550000,86.130000C271.550000,87.930000,271.830000,92.130000,268.490000,94.980000C267.490000,95.810000,266.440000,96.510000,265.490000,97.320000C264.540000,98.130000,263.420000,99.010000,263.660000,100.470000C263.930000,102.100000,265.380000,102.470000,266.660000,102.870000C268.789084,103.377066,270.951026,103.734605,273.130000,103.940000C277.040000,104.500000,280.840000,105.410000,284.130000,107.730000C287.420000,110.050000,288.470000,112.900000,287.420000,116.730000C286.510000,120.100000,287.420000,121.820000,290.800000,122.980000C293.440748,123.703778,296.172532,124.040620,298.910000,123.980000C308.580000,124.350000,318.290000,124.310000,327.610000,121.230000C339.710000,117.230000,352.200000,114.380000,363.700000,108.570000C368.220000,106.280000,373.280000,105,378.550000,106.070000C379.960000,106.360000,381.220000,106.820000,381.640000,108.380000C382.060000,109.940000,381.210000,110.940000,380.050000,111.840000C376.760983,114.443094,373.180237,116.654633,369.380000,118.430000C360.640000,122.340000,351.580000,125.430000,342.510000,128.430000C349.740000,126.870000,356.820000,124.750000,363.940000,122.830000C373.540000,120.240000,383.210000,117.930000,392.640000,114.760000C399.640000,112.400000,406.700000,110.140000,413.380000,107C419.050000,104.340000,424.170000,100.850000,426.870000,94.790000C428.710000,90.690000,428.060000,87.460000,424.620000,84.530000C423.401299,83.716265,422.539267,82.467929,422.210000,81.040000C421.570000,77.040000,425.210000,73.820000,429.680000,74.480000C430.940000,74.670000,432.120000,75.230000,433.410000,75.300000C434.050000,75.300000,434.770000,75.420000,435.120000,74.740000C435.470000,74.060000,434.970000,73.530000,434.580000,73.030000C432.056112,70.068683,428.728824,67.901431,425,66.790000C421.864219,65.785944,418.846576,64.444769,416,62.790000C414.418921,61.859865,413.199369,60.421781,412.540000,58.710000C410.590000,53.710000,406.850000,50.280000,402.450000,47.560000C397.671378,44.734511,393.343290,41.208669,389.610000,37.100000C385.220000,32.100000,376.750000,30.100000,370.610000,32.940000C366.302401,35.048621,361.331413,35.350983,356.800000,33.780000C353.244972,32.500401,349.355028,32.500401,345.800000,33.780000C342.320000,35.010000,338.800000,35.250000,335.730000,32.610000C333.883282,31.009494,333.590555,28.252618,335.060000,26.300000C336.435534,24.574514,338.311341,23.316990,340.430000,22.700000C343.040951,21.916337,345.719165,21.377346,348.430000,21.090000C350.733640,20.928394,352.963874,20.211288,354.930000,19C356.550228,17.922015,358.581112,17.663068,360.420000,18.300000C363.600000,19.160000,366.700000,20.230000,369.770000,21.390000C371.453915,22.120713,373.288722,22.436231,375.120000,22.310000C377.190000,22.070000,377.720000,20.750000,376.490000,19.070000C375.864963,18.280304,375.130972,17.583350,374.310000,17C373,16,371.860000,14.870000,372.470000,13.110000C373.080000,11.350000,374.680000,10.530000,376.470000,10.270000C379.540000,9.830000,382.470000,10.720000,385.360000,11.480000C386.360806,11.930611,387.453549,12.139568,388.550000,12.090000C387.060000,10.090000,384.900000,9.320000,382.990000,8.370000C378.920000,6.370000,374.610000,4.790000,370.370000,3.120000C369.220000,2.670000,367.780000,2.380000,368.290000,0.560000L435.080000,0.560000C442.140000,1.410000,448.280000,5,454.870000,7.220000C456.600000,7.800000,458.370000,8.220000,460.140000,8.610000C463.780000,9.460000,464.620000,10.550000,464.520000,14.200000C464.375274,15.954300,465.127884,17.662723,466.520000,18.740000C467.670000,19.620000,468.780000,20.570000,470.020000,21.340000C467.490000,13.930000,467.350000,8.400000,457.720000,3.130000C456.820000,2.630000,455.720000,1.980000,456.400000,0.560000L483.770000,0.560000C486.960000,1.830000,487.450000,3.890000,485.230000,6.560000C484.330000,7.670000,483,8.410000,482,9.450000C480.520000,10.980000,480.620000,12.310000,482.600000,13.040000C485.372479,14.180957,487.944892,15.757488,490.220000,17.710000C492.854117,19.743280,496.139433,20.745941,499.460000,20.530000C504.550000,20.300000,508.400000,22.690000,510.590000,28.380000C512.290000,32.800000,515.790000,35.860000,519.410000,38.600000C525.300000,43.060000,531.800000,46.600000,538.130000,50.360000C541.870000,52.600000,545.790000,54.600000,549,57.650000C550.109758,58.789667,551.717187,59.296683,553.280000,59C555.580000,58.580000,556.570000,56.870000,555.510000,54.780000C553.357630,50.122494,550.169902,46.018123,546.190000,42.780000C541.982280,39.580206,537.501743,36.756029,532.800000,34.340000C530.970000,33.390000,528.560000,32.750000,528.440000,29.970000C528.446839,29.281085,528.403390,28.592590,528.310000,27.910000C528.115786,27.095762,528.279107,26.237335,528.758756,25.551303C529.238405,24.865271,529.988576,24.417149,530.820000,24.320000C532.543766,23.735608,534.433822,24.518142,535.240000,26.150000C536.320530,28.164535,538.021152,29.777496,540.090000,30.750000C546.091578,33.809573,551.830978,37.358234,557.250000,41.360000C563.140000,45.860000,567.630000,51.240000,569.370000,58.600000C569.491527,59.039062,569.538845,59.495343,569.510000,59.950000C569.334657,60.448360,569.334657,60.991640,569.510000,61.490000C570.001882,62.184796,570.308223,62.993675,570.400000,63.840000C571.050000,68.730000,571.580000,73.630000,570.470000,78.500000C569.870000,81.120000,569.470000,83.880000,567.200000,85.810000C566.200000,86.230000,565.200000,86.460000,564.420000,85.620000C562.320000,83.250000,559.580000,83.620000,556.890000,83.620000C551.560000,82.260000,547.970000,78.470000,545.350000,74.120000C540.760000,66.510000,534.020000,62.520000,525.660000,60.640000C524.420000,60.360000,523.190000,60,521.430000,59.640000C524.713298,61.857159,527.645854,64.553762,530.130000,67.640000C532.440000,70.640000,534.970000,73.550000,536.980000,76.820000C538.990000,80.090000,541.810000,82.990000,543.840000,86.350000C545.625844,89.291606,545.886380,92.913054,544.540000,96.080000C542.414570,101.328403,539.117208,106.021330,534.900000,109.800000C530.630000,113.800000,525.670000,116.920000,521.030000,120.450000C517.740508,122.757664,515.379653,126.160698,514.370000,130.050000C513.370000,133.950000,509.600000,135.940000,505.950000,137.190000C500.700000,139.010000,495.430000,140.740000,490.330000,143.010000C487.270000,144.370000,484.420000,146.210000,481.180000,147.200000C480.281632,147.646443,479.301676,147.905043,478.300000,147.960000L409.110000,147.960000C406.960000,147.050000,408.540000,146.380000,409.350000,146.040000C411.492831,145.257620,413.711542,144.701266,415.970000,144.380000C425.850000,142.500000,435.400000,139.430000,444.970000,136.470000C450.890000,134.640000,456.880000,133.010000,462.750000,131.010000C466.470000,129.740000,468.940000,127.840000,468.910000,123.450000C468.910000,120.640000,470.910000,118.890000,473.260000,117.610000C476.280585,116.101751,479.421418,114.847425,482.650000,113.860000C488.140000,111.930000,491.510000,107.940000,493.450000,102.640000C494.830000,98.920000,493.450000,93.940000,487.550000,93.640000C478.860000,93.150000,476.620000,89.980000,478.720000,81.480000C479.696156,77.727660,480.239692,73.875935,480.340000,70C480.470000,63.290000,477.570000,58.280000,472.430000,54.320000C471.284740,53.418345,470.093113,52.577196,468.860000,51.800000C464.184366,48.847602,460.738002,44.299822,459.160000,39C458.812846,38.291149,458.596059,37.525621,458.520000,36.740000C458.129315,33.860685,456.972332,31.139186,455.170000,28.860000C455.500000,35.390000,454.310000,41.930000,455.980000,48.350000C456.110000,49.210000,456.410000,50.030000,456.550000,50.890000C456.621887,52.530667,456.994750,54.144144,457.650000,55.650000C457.969923,56.397728,458.172313,57.190425,458.250000,58C459.325790,63.578056,461.212465,68.968555,463.850000,74C464.740000,75.680000,465.420000,77.490000,466.140000,79.250000C467.250000,81.960000,466.030000,83.920000,463.090000,84.410000C460.826879,84.686672,458.540866,84.723544,456.270000,84.520000C454.610000,84.440000,453.480000,85.140000,453.510000,86.800000C453.700000,96.590000,447.570000,102.880000,441.300000,109.080000C435.190000,115.080000,427.470000,118.450000,419.640000,121.500000C412.971891,124.147873,406.099162,126.248152,399.090000,127.780000C406.520000,125.590000,416.230000,123.780000,425.850000,121.710000C437.360000,119.170000,447.950000,114.390000,456.970000,106.500000C459.240000,104.500000,461.570000,102.300000,465.130000,102.770000C467.580000,103.090000,468.870000,103.950000,469.130000,106.420000C469.667987,110.061050,468.822423,113.771544,466.760000,116.820000C461.180000,124.680000,453.350000,129.500000,444.760000,133.400000C432.660000,138.930000,419.630000,141.500000,407,145.400000C403.388343,146.508285,399.715526,147.406456,396,148.090000L364.590000,148.090000C362.820000,147.030000,364.190000,146.350000,364.990000,145.950000C366.749335,145.196945,368.578016,144.617528,370.450000,144.220000C382.980000,140.940000,395.760000,138.880000,408.400000,136.170000C417.170000,134.290000,425.710000,131.820000,433.530000,127.290000C434.220000,126.890000,435.020000,126.710000,435.340000,126.500000C425.920000,130.650000,415.590000,133.200000,405.160000,135.500000C385.310000,139.840000,365.160000,142.580000,345.220000,146.330000C341.020000,147.120000,336.740000,147.520000,332.500000,148.120000L293.800000,148.120000C290.533974,147.894098,287.364576,146.915212,284.540000,145.260000C277.210000,140.880000,269.170000,139.260000,260.750000,139.350000C255.080000,139.350000,249.490000,139.180000,244.150000,136.900000C242.186657,136.159148,240.381482,135.052969,238.830000,133.640000C232.540000,127.440000,225.470000,122.140000,219.030000,116.120000C215.356830,112.679730,211.972140,108.943862,208.910000,104.950000C208.910000,105.610000,209.530000,105.950000,209.560000,106.550000C210.660000,111.920000,214.150000,116.010000,217.070000,120.380000C219.450000,123.930000,221.920000,127.310000,223.070000,131.590000C224.070000,135.280000,227.130000,137.530000,230.410000,139.320000C234.522726,141.488084,238.853558,143.214383,243.330000,144.470000C245.017272,144.865120,246.649530,145.466301,248.190000,146.260000C248.880000,146.670000,250.280000,147.610000,248.100000,148.120000L207,148.120000C202.540000,147.560000,199.490000,144.610000,196.610000,141.630000C193.520000,138.420000,190.810000,134.890000,189.510000,130.430000C188.570000,127.170000,185.820000,125.870000,182.720000,125.200000C179.620000,124.530000,176.570000,124.510000,173.520000,123.960000C169.730000,123.280000,166.020000,122.430000,163.030000,119.720000C161.437335,118.340072,160.274563,116.531702,159.680000,114.510000C158.650075,110.523703,155.530073,107.415199,151.540000,106.400000C149.347651,105.773941,147.199542,105.002225,145.110000,104.090000C143.490000,103.350000,141.640000,102.570000,141.670000,100.300000C141.670000,98.200000,143.310000,97.420000,144.890000,96.630000C145.461413,96.348519,146.049126,96.101413,146.650000,95.890000C151.268809,94.224534,154.974222,90.693323,156.860000,86.160000C158.240000,82.990000,159.730000,79.870000,161.280000,76.780000C163.080000,73.210000,162.440000,71.720000,158.750000,70.270000C157.750000,69.870000,156.700000,69.520000,155.660000,69.180000C154.630970,68.984166,153.915104,68.044053,154,67C154.090000,65.830000,154.940000,65.310000,156,65C159.460000,64.150000,163,63.820000,166.510000,63.210000C168.499680,62.943393,170.458837,62.484581,172.360000,61.840000C174.459183,61.242467,175.833839,59.233032,175.630000,57.060000C175.510000,53.590000,176.010000,53.060000,179.500000,52.380000C182.188042,51.863529,184.923550,51.635570,187.660000,51.700000C190.501791,51.821033,193.323790,51.175117,195.830000,49.830000C197.830000,48.720000,199.830000,48.900000,201.930000,49.420000C203.732857,49.697635,204.976798,51.374058,204.720000,53.180000C204.620000,57.180000,205.840000,58.180000,209.860000,57.520000C214.810000,56.740000,219.720000,55.710000,224.620000,54.650000C240.057259,51.353157,255.847630,50.009295,271.620000,50.650000C274.710000,50.760000,277.780000,51.300000,280.890000,51.100000C281.740000,51.050000,282.990000,51.290000,283.060000,50.100000C283.120000,49.100000,281.970000,49.040000,281.210000,48.810000C279.795036,48.439470,278.329320,48.301003,276.870000,48.400000C268.270000,48.620000,259.790000,47.190000,251.260000,46.520000C242.900000,45.860000,234.690000,46,226.770000,49.190000C223.390000,50.550000,219.960000,51.100000,216.410000,49.570000C213.250000,48.210000,212.410000,46.010000,214.120000,43.020000C214.710000,42.020000,216.040000,41.020000,214.990000,39.610000C213.940000,38.200000,212.520000,38.450000,211.180000,38.680000C205.434838,39.779145,199.632309,40.553706,193.800000,41C187.080000,41.360000,180.370000,42.230000,173.610000,41.770000C171.698476,41.691429,169.783775,41.788503,167.890000,42.060000C166.319586,42.114852,164.871669,42.922559,164,44.230000C163.664448,45.038837,163.547204,45.921616,163.660000,46.790000C163.490000,50.160000,162.200000,51.670000,158.820000,52.240000C149.670000,53.770000,140.430000,54.810000,131.450000,57.330000C126.800000,58.630000,122.120000,59.800000,117.810000,62.070000C116.650000,62.680000,115.440000,63.250000,115.430000,64.770000C115.420000,66.290000,116.510000,66.980000,117.680000,67.590000C121.055034,69.461198,124.953932,70.164335,128.770000,69.590000C133.029669,69.005828,137.367496,69.465692,141.410000,70.930000C142.810000,71.400000,143.850000,72.190000,143.930000,73.790000C144.010000,75.390000,142.790000,76.150000,141.440000,76.620000C136,78.450000,131.330000,82,125.830000,83.730000C123.720000,84.410000,121.540000,84.520000,119.440000,85.130000C116.900000,85.880000,114.350000,86.570000,112.220000,88.260000C109.820000,90.170000,109.460000,92.260000,111.390000,94.610000C112.638972,96.186278,113.762415,97.858069,114.750000,99.610000C116.074870,101.621004,116.360914,104.143392,115.520000,106.400000C114.959402,107.488741,114.959402,108.781259,115.520000,109.870000C118.340000,116.080000,123.140000,120.510000,128.840000,123.870000C131.310000,125.340000,134.040000,124.750000,136.430000,122.720000C139.730000,119.920000,147.170000,120.980000,149.800000,124.420000C150.290641,124.962778,150.514210,125.695792,150.410000,126.420000C150.364657,126.983030,150.425720,127.549564,150.590000,128.090000C150.790000,130.190000,150.120000,132.210000,150.090000,134.310000C149.984510,137.154116,151.072098,139.912964,153.090000,141.920000C154.290000,143.150000,155.450000,144.430000,156.610000,145.710000C157.290000,146.470000,157.860000,147.350000,156.500000,148.080000C152.400000,148.080000,148.310000,148.080000,144.230000,148.080000C142.590000,148.080000,141.490000,146.860000,140.230000,146.080000C138.740000,145.140000,137.950000,145.460000,137.230000,146.760000C136.750000,147.580000,136.230000,148.210000,135.110000,148.060000C125.050000,148.060000,114.990000,148.060000,104.930000,148.060000C103.437168,148.057684,102.121555,147.079095,101.690000,145.650000C101.900000,142.480000,99.830000,140.220000,98.300000,137.850000C95.980000,134.270000,93.510000,130.780000,91.180000,127.200000C89.987974,125.458590,89.366013,123.390043,89.400000,121.280000C89.415364,118.698762,88.349137,116.229031,86.460000,114.470000C82.744210,110.592359,78.804107,106.936076,74.660000,103.520000C65.160000,95.580000,62.870000,85.850000,65.660000,74.030000C66.660000,69.740000,69.990000,66.530000,73.400000,63.730000C75.100322,62.358652,76.921055,61.143715,78.840000,60.100000C80.090000,59.410000,81.460000,58.690000,81.500000,56.940000C81.407105,56.628922,81.226576,56.351185,80.980000,56.140000C79.360000,55.300000,77.710000,55.950000,76.150000,56.210000C67.870734,57.640133,59.989963,60.813575,53.030000,65.520000C51.017040,66.930051,48.919799,68.215780,46.750000,69.370000C45.500000,69.980000,44.210000,69.880000,43.660000,68.660000C41.210000,63.200000,38.200000,57.960000,36.800000,52.070000C36.728328,51.619906,36.798213,51.158661,37,50.750000C37.209951,49.919734,37.209951,49.050266,37,48.220000C37,43.950000,40.370000,42.220000,43.320000,40.380000C49.100000,36.710000,55.650000,34.480000,61.540000,30.990000C62.765184,30.387374,63.902352,29.620290,64.920000,28.710000C67.501435,25.913305,71.256517,24.507005,75.040000,24.920000C83.570000,25.540000,91.680000,23.220000,99.830000,21.290000C103.380000,20.440000,106.950000,19.700000,110.540000,19.030000C111.220000,18.900000,112.180000,18.840000,112.170000,17.890000C112.160000,16.940000,111.260000,16.890000,110.550000,16.710000C106.504891,16.040765,102.511746,15.088424,98.600000,13.860000C96.777509,13.246540,95.082856,12.304314,93.600000,11.080000C90.600000,8.610000,91.100000,5.530000,94.820000,4.330000C97.930000,3.330000,101.120000,2.540000,104.300000,1.750000C105.645073,1.458372,106.963096,1.053598,108.240000,0.540000Z" transform="matrix(1 0 0 1 -0.27000001072884 -0.46000000834465)" fill="rgb(32,139,69)" stroke="none" stroke-width="1"/><path id="edvik4x3iox66" d="M270.810000,21.330000C272.400000,19.660000,274.700000,19.460000,276.650000,18.540000C278.825196,17.611808,280.745702,16.174858,282.250000,14.350000C283.250000,13.070000,283.250000,11.940000,282.040000,10.790000C279.310000,8.270000,275.930000,7.400000,272.690000,8.790000C266.360000,11.560000,259.690000,12.180000,252.990000,12.980000C248.267461,13.415169,243.671647,14.749110,239.450000,16.910000C237.534185,18.001750,235.321182,18.456957,233.130000,18.210000C231.096763,18.151083,229.292956,16.889598,228.540000,15C227.030000,11.400000,225.880000,10.780000,222.480000,12.110000C212.970000,15.820000,203,18.110000,193.480000,21.890000C191.130000,22.830000,188.880000,24.030000,186.580000,25.100000C185.783928,24.187297,185.729853,22.843728,186.450000,21.870000C187.320000,19.870000,189.160000,18.870000,190.990000,18.230000C201.130000,14.490000,210.520000,8.980000,220.780000,5.530000C225.880388,3.853545,231.107196,2.589481,236.410000,1.750000C239.948198,1.297817,243.543264,1.706035,246.890000,2.940000C250.780000,4.190000,254.580000,4.240000,258.190000,1.940000C258.778694,1.686213,259.210054,1.165607,259.350000,0.540000L314.640000,0.540000C322.942510,1.425355,331.302700,1.642720,339.640000,1.190000C342.811583,1.203560,345.979949,0.986319,349.120000,0.540000L368.300000,0.540000C373.220000,2.620000,378.170000,4.630000,383.040000,6.820000C386.623196,8.259107,389.896022,10.374222,392.680000,13.050000C391.130000,14.410000,389.490000,14.280000,387.770000,13.780000C385.500000,13.120000,383.230000,12.430000,380.930000,11.880000C379.774075,11.628076,378.592900,11.510630,377.410000,11.530000C375.920000,11.530000,374.280000,11.830000,373.620000,13.230000C372.790000,15.010000,374.960000,15.230000,375.720000,16.230000C376.309375,16.913598,376.981156,17.521560,377.720000,18.040000C378.930000,19.040000,379.930000,20.120000,379.430000,21.730000C378.930000,23.340000,377.230000,23.490000,375.820000,23.730000C373.590000,24.110000,371.490000,23.360000,369.410000,22.730000C367.330000,22.100000,365.120000,21.210000,362.970000,20.450000C360.020000,19.450000,357.340000,18.730000,354.270000,20.940000C351.720000,22.780000,348.150000,22.440000,345.010000,23C341.700000,23.590000,338.340000,24.060000,336.130000,27.120000C334.900000,28.830000,334.950000,30.200000,336.600000,31.590000C338.741458,33.427208,341.746472,33.874267,344.330000,32.740000C349.120000,30.840000,353.700000,31.160000,358.450000,32.800000C362.208849,34.078639,366.332339,33.715656,369.810000,31.800000C376.620000,28.350000,386.560000,30.910000,391.250000,36.800000C394.730000,41.190000,399.650000,43.920000,404.150000,47.100000C408.400000,50.100000,412.330000,53.260000,413.950000,58.630000C414.640000,60.940000,417.040000,62.020000,419.250000,63.020000C422.890000,64.660000,426.770000,65.730000,430.250000,67.710000C433.423672,69.641383,436.077305,72.319046,437.980000,75.510000C439.160000,77.290000,437.980000,77.320000,436.980000,77.510000C435.030000,77.810000,433.190000,77.180000,431.340000,76.660000C429.840000,76.230000,428.340000,75.840000,426.810000,76.550000C425.490000,77.150000,423.960000,77.490000,423.640000,79.210000C423.277558,80.940878,423.991536,82.719907,425.450000,83.720000C429.400000,86.960000,430.700000,91.500000,428.890000,95.320000C426.874623,99.498159,423.729111,103.028200,419.810000,105.510000C412.410000,110.340000,404.060000,112.980000,395.810000,115.740000C379.120000,121.300000,361.910000,125.040000,345.040000,129.950000C342.603880,130.612695,340.038142,130.636803,337.590000,130.020000L337.420000,129.300000C340.670000,128.160000,343.930000,127.040000,347.180000,125.890000C356.350000,122.620000,365.690000,119.770000,374.230000,114.970000C376.261588,113.953193,378.120902,112.623665,379.740000,111.030000C381.330000,109.340000,381.190000,108.540000,378.940000,107.950000C376.071217,107.353381,373.099287,107.477068,370.290000,108.310000C365.010000,109.550000,360.430000,112.520000,355.370000,114.310000C343.440000,118.500000,331.500000,122.820000,319,125C310.415996,126.304943,301.691907,126.405916,293.080000,125.300000C291.634338,125.102268,290.223783,124.701657,288.890000,124.110000C287.481963,123.657917,286.340820,122.614711,285.764545,121.252781C285.188270,119.890850,285.234075,118.345409,285.890000,117.020000C287.240000,113.640000,286.460000,111.180000,283.440000,109.130000C280.250000,106.960000,276.600000,106.240000,272.890000,105.700000C270.259258,105.450496,267.655765,104.968616,265.110000,104.260000C260.760000,102.850000,260.270000,100.560000,263.710000,97.500000C265.060000,96.300000,266.610000,95.320000,267.940000,94.100000C270.530000,91.750000,270.250000,89.100000,267.060000,87.650000C260.920000,84.940000,254.350000,83.850000,247.720000,83.170000C247.120000,83.100000,246.090000,83.170000,245.930000,83.530000C244.270000,86.950000,240.570000,87.720000,237.930000,89.840000C236.380000,91.100000,236.400000,92.730000,237.650000,93.840000C243.950000,99.590000,250.230000,105.410000,258.650000,107.940000C258.190000,109.280000,257.250000,108.550000,256.460000,108.450000C245.100000,107.600000,234.040000,105.700000,223.710000,100.450000C221.060000,99.110000,220.310000,97.780000,221.620000,95.240000C222.078575,94.769991,222.078575,94.020009,221.620000,93.550000C220.880000,91.010000,218.740000,89.920000,216.620000,88.930000C212.620000,87.070000,208.500000,85.370000,204.460000,83.540000C202.550000,82.670000,200.750000,81.600000,200.100000,79.380000C199.584474,78.718589,199.584474,77.791411,200.100000,77.130000C200.620000,75.490000,202.030000,74.710000,203.360000,73.990000C211.770000,69.380000,220.500000,65.580000,229.980000,63.700000C233.830000,62.940000,237.380000,63.060000,240.440000,65.900000C242.380000,67.710000,244.440000,68.100000,246.870000,66.620000C249.980000,64.710000,253.580000,64.420000,257.110000,64C262.820000,63.320000,268.330000,62.200000,273.570000,59.450000C278.057339,56.866780,283.635519,57.120333,287.870000,60.100000C292.810000,63.460000,297.750000,63.640000,303.030000,60.850000C306.230431,59.265416,309.731109,58.379168,313.300000,58.250000C322.300000,57.690000,331.360000,57.190000,339.890000,61.160000C340.890000,61.640000,342.460000,61.960000,342.330000,63.330000C342.200000,64.700000,340.570000,64.960000,339.390000,65.330000C336.948023,66.137124,334.328255,66.241083,331.830000,65.630000C323.970000,63.630000,316.270000,64.690000,308.580000,66.540000C305.840000,67.200000,303.050000,67.670000,300.320000,68.390000C299.150000,68.700000,297.530000,69.080000,297.670000,70.640000C297.810000,72.200000,299.220000,72.850000,300.560000,73.130000C302.980496,73.663031,305.502924,73.493018,307.830000,72.640000C315.600000,69.800000,323.440000,70.640000,331.270000,72.350000C332.290070,72.431145,333.219344,72.967405,333.800000,73.810000C334.188378,74.321275,334.188378,75.028725,333.800000,75.540000C333.338449,76.411459,332.729448,77.196393,332,77.860000C330.110000,79.600000,330.500000,81.410000,332.840000,82.540000C335.010000,83.540000,337.400000,83.800000,339.710000,84.290000C342.042452,84.697866,344.325172,85.351508,346.520000,86.240000C349.520000,87.550000,349.570000,88.570000,347.070000,90.520000C343.295531,93.612502,338.475951,95.134286,333.610000,94.770000C326.240000,94.250000,318.900000,93.490000,311.800000,91.330000C310.550000,90.950000,308.800000,90.730000,308.800000,89.020000C308.750000,87.110000,310.600000,87.020000,311.910000,86.500000C313.710000,85.850000,315.560000,85.350000,317.370000,84.740000C318.140000,84.490000,319.010000,84.250000,319.090000,83.230000C319.170000,82.210000,318.430000,81.890000,317.670000,81.480000C308.200000,76.400000,298.810000,77.890000,289.490000,81.820000C287.160000,82.820000,287.140000,84.270000,289.210000,85.890000C290.971720,87.171103,292.926187,88.163527,295,88.830000C296.540293,89.345674,298.024506,90.015748,299.430000,90.830000C301.020000,91.830000,301.630000,93.150000,300.280000,94.920000C299.791693,95.686287,299.452420,96.537862,299.280000,97.430000C298.600000,100.040000,299.340000,101.160000,302.050000,101.590000C305.380000,102.130000,308.590000,101.320000,311.770000,100.520000C314.408527,99.710657,317.272522,100.156659,319.540000,101.730000C323.240000,104.220000,327.170000,103.280000,330.700000,101.350000C336.640000,98.110000,342.260000,97.930000,347.810000,102.070000C353.810000,106.530000,360.140000,105.720000,366.470000,103.070000C370.322695,101.434642,374.302612,100.116922,378.370000,99.130000C380.370000,98.650000,382.800000,98.130000,383.230000,95.790000C383.680000,93.240000,381.140000,92.510000,379.530000,91.280000C378.160000,90.220000,376.390000,89.890000,375.100000,88.640000C373.420000,86.980000,373.440000,86.220000,375.740000,85.530000C377.849718,84.950161,380.003697,84.545453,382.180000,84.320000C384.903038,84.042252,387.551054,83.262426,389.990000,82.020000C393.640000,80.020000,394.440000,76.350000,390.990000,74.590000C386.370000,72.210000,383.740000,67.890000,379.680000,65.050000C369.290000,57.780000,358.680000,50.970000,346.090000,48.140000C343.340202,47.478080,340.709172,46.395310,338.290000,44.930000C336.700000,44.010000,335.340000,43.040000,334.950000,40.930000C334.652799,39.046299,332.995760,37.681173,331.090000,37.750000C329.997961,37.685610,328.902181,37.762920,327.830000,37.980000C320.972073,39.519171,313.943294,40.161207,306.920000,39.890000C301.450192,39.668193,295.972006,40.003250,290.570000,40.890000C289.410000,41.100000,287.840000,41.600000,287.140000,40.090000C286.440000,38.580000,287.470000,37.460000,288.560000,36.340000C294.730000,29.990000,302.560000,27.940000,311.040000,27.340000C313.950000,27.120000,316.860000,26.990000,319.640000,25.910000C320.840000,25.440000,321.760000,24.790000,321.720000,23.390000C321.683201,22.167253,320.883080,21.099091,319.720000,20.720000C316.758582,19.482305,313.521306,19.054349,310.340000,19.480000C304.260000,20.010000,298.170000,20.480000,292.070000,20.860000C287.594419,21.163158,283.200773,22.210874,279.070000,23.960000C276.240000,25.100000,273.230000,25.620000,270.720000,22.960000C270.377378,22.458989,270.414303,21.790245,270.810000,21.330000Z" transform="matrix(1 0 0 1 -0.27000001072884 -0.46000000834465)" fill="rgb(165,201,84)" stroke="none" stroke-width="1"/><path id="edvik4x3iox67" d="M38.090000,50.920000C38.750000,55.920000,41.610000,60.190000,43.460000,64.790000C45.140000,68.960000,45.460000,68.960000,49.340000,66.340000C57.160000,61,65.400000,56.720000,74.800000,55.110000C77.500000,54.640000,80.250000,53.480000,83.070000,54.720000C83.600000,55.160000,83.600000,55.930000,84.070000,56.400000C83.320000,58.830000,81.560000,60.280000,79.390000,61.450000C74.962795,63.810360,71.221573,67.275985,68.530000,71.510000C65.450000,76.320000,65.740000,81.590000,66.350000,86.830000C67.100000,93.300000,70.720000,98.220000,75.500000,102.420000C80.280000,106.620000,85.390000,110.710000,89.410000,115.820000C90.258071,116.659676,90.730552,117.806614,90.720000,119C90.140000,123.900000,92.980000,127.440000,95.410000,131.160000C97.410000,134.270000,99.930000,137.050000,101.590000,140.430000C102.388792,141.855592,102.799149,143.465982,102.780000,145.100000C101.120000,146.330000,99.780000,145.100000,98.550000,144.380000C95.932791,142.741833,93.225145,141.252795,90.440000,139.920000C86.440000,138.250000,82.440000,137.120000,77.990000,138.220000C73.540000,139.320000,72.500000,141.390000,74.620000,145.530000C75.140000,146.530000,76.110000,147.690000,73.990000,148.080000L29.860000,148.080000C28.641870,148.172109,27.504625,147.463861,27.050000,146.330000C24.122349,140.667047,20.497518,135.392732,16.260000,130.630000C15.373894,129.585817,14.602784,128.449268,13.960000,127.240000C12.658757,124.867190,13.273253,121.900655,15.410000,120.240000C16.690000,119.170000,18.240000,118.590000,19.570000,117.620000C23.330000,114.880000,24.190000,110.900000,21.960000,106.790000C20.182809,103.809917,17.834544,101.210174,15.050000,99.140000C13.370000,97.750000,11.610000,96.470000,10.050000,94.940000C8.920000,91.140000,6.290000,88.200000,4.320000,84.880000C3,82.620000,3.230000,80.720000,4.890000,78.700000C8.610000,76.120000,9.890000,72.590000,9.490000,68.120000C9.200000,65.120000,8.880000,62.120000,8.300000,58.670000C5.740000,60.820000,5.200000,63.670000,3.300000,65.670000C2.460000,66.520000,1.810000,67.580000,0.380000,66.820000L0.380000,36.120000C1.210000,34.120000,2.880000,33.120000,4.710000,32.210000C10.220000,29.410000,15.930000,26.930000,20.390000,22.430000C21.807704,21.133547,22.903408,19.524232,23.590000,17.730000C25.590000,11.730000,29.710000,8.050000,35.710000,6.170000C41.310000,4.410000,46.520000,1.510000,52.390000,0.540000L108.240000,0.540000C105.430000,3.330000,101.640000,3.810000,98.080000,4.870000C96.170000,5.440000,93.240000,5.200000,93.140000,7.810000C93.040000,10.210000,95.680000,11.170000,97.640000,11.990000C101.904601,13.589501,106.335909,14.703198,110.850000,15.310000C111.926930,15.482040,112.980513,15.777311,113.990000,16.190000C114.869551,16.554373,115.391705,17.467116,115.260000,18.410000C115.165892,19.370866,114.345125,20.095586,113.380000,20.070000C103.660000,21.070000,94.450000,24.610000,84.770000,25.890000C81.054914,26.249697,77.320531,26.369945,73.590000,26.250000C71.029147,26.251918,68.566618,27.236214,66.710000,29C61.930000,33.230000,55.910000,35.290000,50.350000,38.150000C46.560000,40.090000,42.610000,41.770000,39.660000,45.050000C38.810241,45.874634,38.258067,46.957880,38.090000,48.130000C37.412920,48.936764,37.412920,50.113236,38.090000,50.920000Z" transform="matrix(1 0 0 1 -0.27000001072884 -0.46000000834465)" fill="rgb(92,171,74)" stroke="none" stroke-width="1"/><path id="edvik4x3iox68" d="M568.210000,60.190000C566.920000,52.550000,562.310000,47.190000,556.450000,42.530000C550.847149,38.332741,544.856682,34.679528,538.560000,31.620000C536.730000,30.670000,535.070000,29.540000,534.340000,27.570000C534.062793,26.384511,532.997337,25.552123,531.780000,25.570000C530.190000,25.570000,529.570000,26.570000,529.210000,27.910000C528.903301,28.195636,528.729114,28.595891,528.729114,29.015000C528.729114,29.434109,528.903301,29.834364,529.210000,30.120000C530.520000,32.120000,532.760000,32.900000,534.750000,33.950000C541.470000,37.500000,547.930000,41.390000,552.650000,47.530000C554.090927,49.518332,555.426111,51.581190,556.650000,53.710000C557.560000,55.220000,558.420000,56.990000,557.180000,58.550000C555.856140,60.254420,553.662979,61.034904,551.560000,60.550000C550.478043,60.369744,549.461493,59.911435,548.610000,59.220000C544,54.820000,538.290000,52.120000,532.950000,48.860000C526.510000,44.920000,519.840000,41.340000,514.370000,36C512.064427,33.925110,510.270873,31.344310,509.130000,28.460000C507.470000,23.870000,504.710000,21.910000,499.860000,21.890000C495.010000,21.870000,490.750000,20.510000,487.240000,17C485.590000,15.340000,483.240000,14.840000,481.150000,14C478.580000,13,478.150000,10.890000,480.210000,9C481.280000,8,482.540000,7.240000,483.590000,6.240000C485.900000,4.040000,485.910000,2.910000,483.820000,0.490000Q542,0.540000,600.160000,0.460000C602.740000,0.460000,603.700000,0.970000,603.160000,3.550000C603.084854,4.368278,603.084854,5.191722,603.160000,6.010000C601.950000,7.510000,600.090000,7.900000,598.500000,8.730000C595.130000,10.480000,594.960000,11.880000,597.420000,14.810000C599.080000,16.810000,601.730000,17.510000,603.160000,19.700000L603.160000,88.700000C601.740191,91.553872,599.865726,94.157858,597.610000,96.410000C594.950000,98.650000,592.900000,101.410000,590.690000,104.080000C587.890000,107.430000,585.480000,111.080000,582.770000,114.490000C581.570000,116,579.770000,116.920000,578.840000,118.700000C575.940000,120.500000,572.840000,122.040000,570.010000,123.910000C567.454497,125.444058,565.433005,127.727401,564.220000,130.450000C562.220000,133.450000,560.900000,136.890000,558.600000,139.700000C556.150000,142.700000,553.870000,145.890000,550.120000,147.470000C549.297977,147.855612,548.407229,148.073199,547.500000,148.110000L526.390000,148.110000C524.490000,147.970000,525.070000,146.940000,525.860000,146.210000C527.353671,144.868079,528.952081,143.647536,530.640000,142.560000C537.280000,138.250000,542.850000,132.680000,548.640000,127.310000C549.152538,126.676867,549.459558,125.902342,549.520000,125.090000C550.680000,123,550.710000,120.560000,551.610000,118.360000C554.410000,111.560000,558.140000,105.250000,561.450000,98.710000C563.063548,95.768940,564.159507,92.572393,564.690000,89.260000C564.770835,87.795846,565.403262,86.416654,566.460000,85.400000C569.460000,80.190000,570.180000,74.540000,569.660000,68.660000L569.210000,63.530000C568.881373,63.175020,568.708516,62.703265,568.730000,62.220000C568.830277,61.501285,568.643463,60.771993,568.210000,60.190000Z" transform="matrix(1 0 0 1 -0.27000001072884 -0.46000000834465)" fill="rgb(92,171,74)" stroke="none" stroke-width="1"/><path id="edvik4x3iox69" d="M10.740000,94.650000C16.080743,97.439452,20.555847,101.637888,23.680000,106.790000C25.880000,110.540000,24.540000,115.790000,20.830000,118.400000C19.490000,119.340000,17.990000,120.040000,16.650000,120.980000C14.220000,122.680000,14,124.310000,15.510000,127.050000C17.630000,130.910000,21.180000,133.660000,23.430000,137.410000C25.430000,140.730000,27.930000,143.810000,28.770000,147.740000C24.330000,148.520000,19.850000,147.880000,15.390000,148.090000C11.770000,147.640000,10.820000,144.470000,9.470000,141.940000C7.160000,137.620000,5.020000,133.220000,4.360000,128.230000C3.930000,124.950000,1.360000,122.450000,0.360000,119.340000L0.360000,98C0.620000,97.760000,0.860000,97.330000,1.160000,97.310000C4.333286,96.952735,7.410549,95.999360,10.230000,94.500000C10.380000,94.420000,10.580000,94.570000,10.740000,94.650000Z" transform="matrix(1 0 0 1 -0.27000001072884 -0.46000000834465)" fill="rgb(165,201,84)" stroke="none" stroke-width="1"/><path id="edvik4x3iox610" d="M52.390000,0.540000C47.369464,3.318347,42.083029,5.586355,36.610000,7.310000C31.170000,9.090000,27.050000,12.090000,25.170000,17.640000C23.370000,23,19.050000,25.880000,14.560000,28.500000C10.070000,31.120000,5.110000,33.600000,0.380000,36.120000L0.380000,29.550000C2.138700,27.370847,3.048173,24.628219,2.940000,21.830000C2.811970,20.731187,3.178288,19.632232,3.940000,18.830000C5.340000,17.270000,7.370000,16.830000,9.140000,15.920000C12.800000,14.050000,13.140000,11.730000,10.010000,8.980000C8.395658,7.666776,6.661350,6.508339,4.830000,5.520000C2.920000,4.390000,0.830000,3.290000,0.930000,0.540000Z" transform="matrix(1 0 0 1 -0.27000001072884 -0.46000000834465)" fill="rgb(165,201,84)" stroke="none" stroke-width="1"/><path id="edvik4x3iox611" d="M603.180000,116.610000L603.180000,147.810000C602.331232,148.141623,601.407975,148.234986,600.510000,148.080000L569,148.080000C568.688860,148.092589,568.379501,148.027280,568.100000,147.890000C567.700000,146.340000,568.900000,145.500000,569.820000,144.830000C573.150000,142.410000,576.100000,139.310000,580.460000,138.630000C581.110000,138.530000,581.460000,137.940000,581.950000,137.510000C584.950000,136.420000,588.200000,135.810000,590.950000,133.940000C592.615818,133.003245,593.947742,131.569941,594.760000,129.840000C595.750994,127.508362,597.219152,125.410020,599.070000,123.680000C599.645968,122.803897,599.520182,121.642476,598.770000,120.910000C597.580000,119.750000,596.920000,118.390000,598.420000,117.210000C599.750000,116.170000,601.330000,114.690000,603.180000,116.610000Z" transform="matrix(1 0 0 1 -0.27000001072884 -0.46000000834465)" fill="rgb(92,172,74)" stroke="none" stroke-width="1"/><path id="edvik4x3iox612" d="M603.180000,116.610000C602.564066,116.710805,601.955921,116.854488,601.360000,117.040000C598.430000,118.160000,598.360000,118.340000,600.700000,120.350000C602.600000,122.010000,600.860000,122.980000,599.980000,124.110000C596.810000,124.600000,593.670000,123.970000,590.520000,123.770000C588.743461,123.754937,587.130052,122.731043,586.360000,121.130000C586.277028,120.597835,586.060251,120.095463,585.730000,119.670000C584.730000,117.820000,583.230000,118.050000,581.550000,118.340000C580.350000,118.560000,578.890000,119.480000,578.050000,117.650000C584.630000,110.650000,589.600000,102.230000,596.380000,95.350000C597.134477,95.323603,597.825262,95.770817,598.110000,96.470000C599.110000,98.950000,601.210000,100.300000,603.180000,101.820000Z" transform="matrix(1 0 0 1 -0.27000001072884 -0.46000000834465)" fill="rgb(165,201,84)" stroke="none" stroke-width="1"/><path id="edvik4x3iox613" d="M568.180000,147.790000L603.180000,147.790000C603.060000,147.960000,603.450000,148.360000,602.900000,148.350000C602.170000,148.350000,601.440000,148.350000,600.710000,148.350000Q301.770000,148.350000,2.840000,148.350000C2.040000,148.350000,0.990000,148.980000,0.380000,147.830000C1.470000,146.390000,3.170000,146.590000,4.670000,146.250000C6.010000,146.130000,7.270000,147.320000,8.670000,146.530000C10.724198,146.311134,12.795766,146.733832,14.600000,147.740000L28.780000,147.740000L74.680000,147.740000C75.550000,146.550000,76.870000,146.520000,78.140000,146.510000C85.350000,146.420000,92.560000,146.510000,99.770000,146.510000C101.399137,146.651731,102.986908,147.099564,104.450000,147.830000L136.020000,147.750000C138.470000,145.940000,140.910000,146.350000,143.360000,147.750000L157,147.750000C157.860000,146.520000,159.190000,146.540000,160.460000,146.530000C173.860000,146.440000,187.270000,146.460000,200.670000,146.530000C202.584860,146.661454,204.469164,147.079439,206.260000,147.770000L248.900000,147.770000C249.770000,146.560000,251.090000,146.570000,252.350000,146.560000Q268.830000,146.430000,285.350000,146.560000C287.880000,146.560000,290.350000,147.420000,292.800000,147.770000L333.250000,147.770000C342.200000,146.320000,351.250000,146.410000,360.250000,146.550000C361.580000,146.550000,363.010000,146.470000,363.950000,147.780000L396.840000,147.780000C399.227336,147.145061,401.673439,146.756365,404.140000,146.620000C405.620000,146.510000,407.240000,146.360000,408.350000,147.770000L471.740000,147.860000C474.290000,147.860000,476.830000,147.800000,479.380000,147.770000C481.833201,146.904690,484.418784,146.474888,487.020000,146.500000C492.900000,146.430000,498.770000,146.760000,504.640000,146.280000C508.530000,147.370000,512.410000,146.280000,516.300000,146.280000C518.403601,146.807795,520.584903,146.953441,522.740000,146.710000C523.822823,146.525426,524.919939,146.947394,525.600000,147.810000L548.600000,147.810000C551.432219,146.801642,554.424291,146.317082,557.430000,146.380000C559.059575,146.814966,560.760107,146.916997,562.430000,146.680000C564.360000,146.420000,566.480000,146.180000,568.180000,147.790000Z" transform="matrix(1 0 0 1 -0.27000001072884 -0.46000000834465)" fill="rgb(254,254,254)" stroke="none" stroke-width="1"/><path id="edvik4x3iox614" d="M456.450000,0.540000C459.030000,2.480000,462.030000,3.720000,464.370000,6.140000C466.913703,8.706301,468.738011,11.896254,469.660000,15.390000C470.350812,17.812304,471.331223,20.142460,472.580000,22.330000C473.138139,23.080775,473.332448,24.041320,473.110000,24.950000C469.660498,23.231328,466.568998,20.872829,464,18C463.085412,16.806786,462.816192,15.240074,463.280000,13.810000C463.980000,11.470000,462.730000,10.580000,460.820000,10.200000C452,8.460000,444.260000,4.100000,436,1.160000C435.681686,0.991284,435.386004,0.782962,435.120000,0.540000Z" transform="matrix(1 0 0 1 -0.27000001072884 -0.46000000834465)" fill="rgb(165,201,84)" stroke="none" stroke-width="1"/><path id="edvik4x3iox615" d="M0.380000,66.780000C3.180000,64.230000,4.610000,60.780000,6.600000,57.640000C7.140000,56.810000,7.600000,55.640000,8.760000,55.960000C9.920000,56.280000,9.600000,57.430000,9.760000,58.300000C10.390588,62.329278,10.771315,66.393707,10.900000,70.470000C10.980000,74.530000,9.450000,77.470000,5.900000,79.400000C2.820000,80.400000,1.630000,78.170000,0.370000,76.090000Z" transform="matrix(1 0 0 1 -0.27000001072884 -0.46000000834465)" fill="rgb(165,201,84)" stroke="none" stroke-width="1"/><path id="edvik4x3iox616" d="M0.930000,0.540000C2.940000,3,5.690000,4.370000,8.280000,6C9.434976,6.715876,10.531709,7.521706,11.560000,8.410000C15.180000,11.610000,14.890000,14.410000,10.620000,16.660000C8.790000,17.660000,6.810000,18.310000,4.890000,19.120000C2.270000,19.570000,1.450000,17.540000,0.380000,15.850000C0.380000,11.090000,0.380000,6.340000,0.380000,1.580000C0.410000,1.260000,-0.130000,0.440000,0.930000,0.540000Z" transform="matrix(1 0 0 1 -0.27000001072884 -0.46000000834465)" fill="rgb(92,171,74)" stroke="none" stroke-width="1"/><path id="edvik4x3iox617" d="M0.380000,76.090000L5.910000,79.400000C3.510000,82,4.680000,83.050000,7.550000,87.210000C9.150000,89.530000,10.850000,91.660000,10.740000,94.650000C8.130000,98.380000,4.440000,98.760000,0.380000,98Z" transform="matrix(1 0 0 1 -0.27000001072884 -0.46000000834465)" fill="rgb(244,248,238)" stroke="none" stroke-width="1"/><path id="edvik4x3iox618" d="M14.590000,147.720000L8.640000,147.720000C7.735877,147.253980,6.965070,146.565759,6.400000,145.720000C4.540000,142.310000,2,139.310000,0.400000,135.720000L0.400000,119.340000C3.790000,121.870000,5.400000,125.340000,6.130000,129.430000C7.260000,136.290000,11.130000,141.920000,14.590000,147.720000Z" transform="matrix(1 0 0 1 -0.27000001072884 -0.46000000834465)" fill="rgb(93,172,74)" stroke="none" stroke-width="1"/><path id="edvik4x3iox619" d="M603.180000,19.700000C599.070000,19.410000,596.790000,16.380000,594.460000,13.610000C593.350000,12.290000,593.530000,10.610000,595.100000,9.340000C597.350693,7.365094,600.191772,6.190688,603.180000,6Z" transform="matrix(1 0 0 1 -0.27000001072884 -0.46000000834465)" fill="rgb(243,248,237)" stroke="none" stroke-width="1"/><path id="edvik4x3iox620" d="M603.180000,101.820000C598.360000,101.480000,598.380000,100.660000,596.380000,95.350000C598.210000,93.350000,600.050000,91.350000,601.840000,89.350000C602.230000,88.910000,602.550000,88.560000,603.180000,88.730000Z" transform="matrix(1 0 0 1 -0.27000001072884 -0.46000000834465)" fill="rgb(243,248,237)" stroke="none" stroke-width="1"/><path id="edvik4x3iox621" d="M0.380000,135.770000C3.920000,138.020000,5.560000,141.700000,7.510000,145.150000C7.800000,147.260000,5.990000,147.210000,4.790000,147.800000L0.380000,147.800000Z" transform="matrix(1 0 0 1 -0.27000001072884 -0.46000000834465)" fill="rgb(243,248,237)" stroke="none" stroke-width="1"/><path id="edvik4x3iox622" d="M0.380000,15.870000C1.990000,16.810000,3.730000,17.580000,4.890000,19.140000C4.340774,20.777174,4.129843,22.508854,4.270000,24.230000C4.400000,27.060000,3.200000,28.890000,0.380000,29.550000Z" transform="matrix(1 0 0 1 -0.27000001072884 -0.46000000834465)" fill="rgb(244,248,237)" stroke="none" stroke-width="1"/><path id="edvik4x3iox623" d="M349.140000,0.540000C346.040000,1.760000,342.750000,1.690000,339.520000,1.940000C331.510780,2.514432,323.462725,2.209277,315.520000,1.030000C315.190604,0.920541,314.882702,0.754748,314.610000,0.540000Z" transform="matrix(1 0 0 1 -0.27000001072884 -0.46000000834465)" fill="rgb(34,140,69)" stroke="none" stroke-width="1"/><path id="edvik4x3iox624" d="M206.220000,147.730000L157,147.730000C155.350000,146.160000,153.720000,144.580000,152.070000,143.020000C148.490000,139.620000,148.330000,135.330000,148.940000,130.860000C149.070000,129.950000,149.250000,129.060000,149.410000,128.160000C149.654944,127.932914,149.794157,127.614014,149.794157,127.280000C149.794157,126.945986,149.654944,126.627086,149.410000,126.400000C147,122.230000,140.500000,121.030000,137.010000,124.120000C134.740000,126.120000,130.240000,126.730000,127.570000,125C122.718622,121.783237,118.529551,117.665455,115.230000,112.870000C114.770636,111.983078,114.434211,111.037724,114.230000,110.060000C113.515593,108.865322,113.515593,107.374678,114.230000,106.180000C115.750000,102.390000,113.230000,99.800000,111.470000,97C111.040000,96.320000,110.360000,95.800000,109.870000,95.150000C107.590000,92.150000,108.100000,89.390000,111.100000,87.230000C113.437312,85.442054,116.189688,84.275735,119.100000,83.840000C125.100000,83.070000,130.370000,80.430000,135.620000,77.700000C137.390000,76.780000,139.270000,76.080000,141.100000,75.280000C141.820000,74.960000,142.860000,74.960000,142.780000,73.820000C142.710000,72.870000,141.930000,72.470000,141.130000,72.200000C137.245285,70.818244,133.089298,70.372838,129,70.900000C124.730840,71.542431,120.368740,70.769756,116.580000,68.700000C114.930000,67.800000,113.340000,66.700000,113.280000,64.700000C113.280000,62.540000,115.140000,61.700000,116.800000,60.980000C128.960000,55.390000,142.010000,53.380000,155.090000,51.470000C156.350000,51.290000,157.630000,51.150000,158.870000,50.870000C161.130000,50.360000,162.720000,49.210000,162.410000,46.550000C161.801573,45.726897,161.801573,44.603103,162.410000,43.780000C163.470000,41.300000,165.730000,40.870000,168.020000,40.540000C170.920000,40.120000,173.830000,40.460000,176.740000,40.410000C187.684117,40.389559,198.606718,39.439476,209.390000,37.570000C211.750000,37.120000,214.110000,36.920000,216.390000,38C218.260000,38.900000,218.810000,40.070000,217.200000,41.810000C215.890000,43.220000,213.580000,44.570000,214.910000,46.810000C216.240000,49.050000,218.910000,49.130000,221.280000,49.170000C223.014157,49.104562,224.716222,48.682450,226.280000,47.930000C234.180000,44.600000,242.450000,44.550000,250.780000,45.120000C259.860000,45.750000,268.880000,47.340000,278.030000,47.120000C279.949126,47.086274,281.859919,47.380503,283.680000,47.990000C284.970000,48.410000,286.680000,48.850000,286.520000,50.480000C286.360000,52.110000,284.700000,52.590000,283.180000,52.600000C280.440000,52.600000,277.690000,52.700000,274.970000,52.470000C262.301701,51.382716,249.547402,51.873137,237,53.930000C228.370000,55.340000,219.790000,57.120000,211.190000,58.730000C210.470000,58.860000,209.750000,59.020000,209.030000,59.090000C203.660000,59.580000,202.690000,58.640000,203.290000,53.370000C203.441439,52.791100,203.342388,52.175199,203.017081,51.672970C202.691774,51.170741,202.170216,50.828510,201.580000,50.730000C199.870000,50.230000,198.150000,50,196.580000,51.010000C193.886519,52.591455,190.774687,53.313596,187.660000,53.080000C184.739820,53.049100,181.824285,53.320546,178.960000,53.890000C177.210000,54.210000,176.520000,54.980000,176.900000,56.890000C177.600000,60.470000,176.720000,61.890000,173.220000,63.080000C168.800000,64.620000,164.110000,64.860000,159.540000,65.700000C158,66,156.300000,66,154.640000,67C156.240000,68.360000,158.150000,68.300000,159.730000,69C163.510000,70.790000,165.730000,71.710000,162.900000,76.740000C160.800000,80.440000,159.260000,84.450000,157.360000,88.270000C155.180000,92.640000,151.560000,95.400000,147.070000,97.170000C145.450000,97.800000,143.070000,98.060000,143.070000,100.280000C143.070000,102.500000,145.510000,102.670000,147.140000,103.280000C150.010000,104.440000,153.140000,105.010000,155.790000,106.650000C158.204248,108.010178,159.970062,110.284114,160.690000,112.960000C161.790000,117.250000,164.610000,119.780000,168.640000,121.240000C173.080000,122.840000,177.800000,122.710000,182.360000,123.540000C186.920000,124.370000,189.920000,126.360000,191.490000,131.250000C193.560000,137.660000,198.700000,142.030000,203.980000,146.040000C204.700000,146.720000,205.470000,147.210000,206.220000,147.730000Z" transform="matrix(1 0 0 1 -0.27000001072884 -0.46000000834465)" fill="rgb(92,171,74)" stroke="none" stroke-width="1"/><path id="edvik4x3iox625" d="M408.300000,147.720000L396.790000,147.720000C402.290000,144.980000,408.220000,143.500000,414.080000,141.840000C424.150000,138.970000,434.360000,136.540000,443.950000,132.190000C452.680000,128.240000,460.690000,123.370000,466.080000,115.110000C467.684577,112.527689,468.275942,109.442618,467.740000,106.450000C467.380000,103.830000,464.100000,103,461.380000,104.870000C459.290000,106.310000,457.430000,108.070000,455.380000,109.600000C443.120000,118.890000,429.040000,123.370000,413.990000,125.300000C408.460000,126.010000,403.250000,128.160000,397.710000,128.850000C395.841371,129.218947,393.918629,129.218947,392.050000,128.850000C397.200000,127.350000,401.650000,126.170000,406.050000,124.770000C415.170000,121.850000,424.260000,118.770000,432.550000,113.900000C440.356500,109.289157,446.695118,102.558709,450.830000,94.490000C452.190000,91.890000,452.130000,88.850000,452.110000,85.910000C452.110000,82.780000,452.470000,82.440000,455.630000,82.910000C457.794630,83.229294,459.987790,83.309777,462.170000,83.150000C465.170000,82.920000,465.700000,81.720000,464.450000,78.980000C461.390000,72.220000,457.860000,65.600000,456.960000,58.060000C456.470000,57.580000,456.450000,56.830000,455.960000,56.350000Q455.650000,53.670000,455.320000,50.960000C454.660000,50.350000,454.990000,49.310000,454.320000,48.700000C453.210000,41.700000,454.120000,34.520000,453.220000,27.470000C453.140000,26.790000,452.870000,25.800000,453.590000,25.470000C454.480000,25.060000,455.050000,25.980000,455.590000,26.580000C458.114733,29.351204,459.608434,32.907128,459.820000,36.650000C460.320000,37.120000,460.330000,37.880000,460.820000,38.350000C461.820000,44.680000,466.260000,48.350000,471.170000,51.760000C474.860000,54.290000,478.270000,57,480.090000,61.410000C482.710000,67.750000,481.980000,74.040000,480.570000,80.410000C480.420000,81.110000,480.080000,81.780000,479.930000,82.480000C478.370000,89.480000,479.710000,91.370000,486.790000,92.360000C495.610000,93.590000,498.190000,100.030000,492.940000,107.530000C490.305199,111.516720,486.356227,114.453679,481.780000,115.830000C479.080276,116.658220,476.459876,117.725790,473.950000,119.020000C471.460000,120.280000,469.860000,122.300000,470.140000,125.380000C470.450000,128.850000,468.140000,130.490000,465.390000,131.610000C460.070000,133.800000,454.450000,135.080000,448.980000,136.850000C435.624143,141.198197,422.044629,144.826745,408.300000,147.720000Z" transform="matrix(1 0 0 1 -0.27000001072884 -0.46000000834465)" fill="rgb(92,171,74)" stroke="none" stroke-width="1"/><path id="edvik4x3iox626" d="M504.620000,147.730000L479.330000,147.730000C486.280000,142.940000,494.030000,139.860000,501.990000,137.260000C505.990000,135.960000,509.990000,134.780000,512.540000,131C512.890000,130.470000,513.370000,130,513.380000,129.340000C513.380000,125.140000,516.250000,122.670000,519.150000,120.340000C524.210000,116.240000,529.920000,112.990000,534.590000,108.340000C538.348966,104.802242,541.326091,100.517090,543.330000,95.760000C544.800842,92.094909,544.021525,87.909976,541.330000,85.020000C536.490000,79.290000,532.890000,72.640000,527.790000,67.110000C524.769213,63.919247,521.370828,61.108528,517.670000,58.740000C517.810000,57.900000,518.340000,57.960000,518.750000,58.020000C526.660000,59.130000,534.330000,60.940000,540.660000,66.220000C543.660000,68.740000,545.580000,72.220000,547.930000,75.270000C550.280000,78.320000,552.930000,81.270000,556.990000,82.170000C559.110000,83.460000,559.530000,85.480000,559.660000,87.780000C560.040000,94.600000,557.330000,100.370000,553.660000,105.780000C547.660000,114.660000,539.760000,121.850000,532.250000,129.380000C529.560000,132.090000,526.790000,134.720000,524.100000,137.440000C518.670000,142.900000,511.920000,145.840000,504.620000,147.730000Z" transform="matrix(1 0 0 1 -0.27000001072884 -0.46000000834465)" fill="rgb(165,201,84)" stroke="none" stroke-width="1"/><path id="edvik4x3iox627" d="M98.360000,49.780000C102.110000,45.870000,105.750000,41.860000,109.640000,38.090000C115.410000,32.480000,121.040000,26.710000,126.270000,20.630000C130.530000,15.690000,135.550000,14.630000,141.450000,15.630000C144.060000,16.050000,146.610000,16.760000,149.200000,17.290000C151.632823,17.851364,154.188940,17.427142,156.310000,16.110000C158.897875,14.543116,161.864738,13.713224,164.890000,13.710000C171.540000,13.480000,178.200000,13.320000,184.890000,13.170000C185.570000,13.170000,186.490000,12.790000,186.820000,13.680000C187.036328,14.496701,186.716127,15.361245,186.020000,15.840000C185.011691,16.773975,183.760501,17.404768,182.410000,17.660000C171.590000,19.740000,161.500000,24,151.230000,27.670000C148.248516,28.789565,145.211126,29.754187,142.130000,30.560000C139.360000,31.250000,137.130000,31.920000,135.560000,34.930000C132.960000,39.820000,128.210000,42.800000,123.350000,45.370000C116.278162,48.933327,108.859297,51.761476,101.210000,53.810000C99.800000,54.210000,98.700000,54.460000,98.310000,52.630000C97.699621,51.771906,97.719897,50.616156,98.360000,49.780000Z" transform="matrix(1 0 0 1 -0.27000001072884 -0.46000000834465)" fill="rgb(165,201,84)" stroke="none" stroke-width="1"/><path id="edvik4x3iox628" d="M292.770000,147.720000L248.900000,147.720000C242.550000,145.480000,235.900000,143.960000,230,140.650000C225.460000,138.130000,222.060000,134.910000,220.840000,129.470000C219.840000,125.060000,216.170000,121.970000,213.840000,118.170000C211.670000,114.530000,208.600000,111.330000,208.310000,106.780000C207.310000,105.640000,208.310000,104.010000,207.310000,102.880000C207.210161,102.041539,207.427770,101.196073,207.920000,100.510000C209.598874,103.532185,211.611457,106.356510,213.920000,108.930000C218.670000,114.350000,224.210000,118.930000,229.670000,123.600000C232.910000,126.380000,236.090000,129.210000,239.190000,132.140000C243.720000,136.430000,249.590000,137.580000,255.590000,137.960000C259.860000,138.240000,264.140000,137.910000,268.420000,138.430000C273.523904,138.920899,278.479634,140.419854,283,142.840000C286.150309,144.671420,289.413516,146.301353,292.770000,147.720000Z" transform="matrix(1 0 0 1 -0.27000001072884 -0.46000000834465)" fill="rgb(92,171,74)" stroke="none" stroke-width="1"/><path id="edvik4x3iox629" d="M442.280000,30.660000C442.060000,34.120000,440.340000,36.790000,437.970000,39.200000C436.800000,40.390000,435.970000,40.600000,435.060000,38.980000C434.150000,37.360000,433.060000,35.770000,432.060000,34.150000C430.490000,31.530000,428.060000,30.560000,425.160000,30.590000C422.530000,30.590000,419.900000,30.720000,417.260000,30.650000C412.660000,30.530000,411,28.650000,409.030000,24.570000C407.530000,21.460000,408.300000,19.350000,409.920000,16.970000C410.223508,16.683640,410.399642,16.287622,410.409038,15.870451C410.418434,15.453281,410.260308,15.049735,409.970000,14.750000C409.506499,12.761144,408.131229,11.107854,406.260000,10.290000L395.350000,4.700000C394.150499,4.277182,393.161336,3.406289,392.590000,2.270000C395.820000,2.100000,398.810000,2.880000,401.790000,3.360000C408.620000,4.480000,415.410000,5.710000,422.120000,7.490000C431.060000,9.860000,436.780000,15.830000,441.240000,23.420000C441.873490,24.638347,442.215791,25.987013,442.240000,27.360000C442.911535,28.353187,442.927264,29.650827,442.280000,30.660000Z" transform="matrix(1 0 0 1 -0.27000001072884 -0.46000000834465)" fill="rgb(92,171,74)" stroke="none" stroke-width="1"/><path id="edvik4x3iox630" d="M504.620000,147.730000C506.725536,145.994731,509.151475,144.690025,511.760000,143.890000C518.200000,141.630000,522.660000,136.890000,527.260000,132.320000C533,126.600000,539,121,544.450000,115C549.530000,109.440000,554.160000,103.510000,556.940000,96.510000C558.905028,91.914584,558.905028,86.715416,556.940000,82.120000C557.106161,82.198437,557.286403,82.242647,557.470000,82.250000C560.792825,81.484245,564.261068,82.684342,566.400000,85.340000C566.244644,90.529844,564.816074,95.601956,562.240000,100.110000C558.604797,106.600680,555.310329,113.276400,552.370000,120.110000C551.620000,121.950000,552.070000,124.160000,550.610000,125.770000C543.610000,130.360000,537.010000,135.630000,530.300000,140.680000C527.600000,142.680000,524.590000,144.230000,521.830000,146.160000C520.250000,147.260000,518.090000,147.160000,516.220000,147.710000Z" transform="matrix(1 0 0 1 -0.27000001072884 -0.46000000834465)" fill="rgb(39,143,69)" stroke="none" stroke-width="1"/><path id="edvik4x3iox631" d="M363.900000,147.730000L333.220000,147.730000C341.810000,145.210000,350.670000,143.960000,359.450000,142.390000C381.150000,138.510000,403.050000,135.590000,424.230000,129.140000C427.450000,128.140000,430.600000,126.930000,433.780000,125.820000L439.880000,123.660000C437.250000,127.140000,434.200000,128.660000,431.190000,130.200000C420.950000,135.300000,409.830000,137.450000,398.730000,139.590000C387.990000,141.660000,377.240000,143.700000,366.730000,146.730000C365.760000,147,364.840000,147.390000,363.900000,147.730000Z" transform="matrix(1 0 0 1 -0.27000001072884 -0.46000000834465)" fill="rgb(92,171,74)" stroke="none" stroke-width="1"/><path id="edvik4x3iox632" d="M511.350000,76.410000C510.090000,81.890000,508.580000,86.880000,503.240000,89.530000C500.620000,90.830000,499.740000,90.380000,499.790000,87.440000C499.900000,79.710000,497.330000,72.680000,494.440000,65.690000C492.880000,61.920000,491.560000,58.050000,490.140000,54.230000C489.970000,53.780000,489.890000,53.290000,490.350000,53.020000C490.810000,52.750000,491.210000,53.150000,491.550000,53.440000C493.070000,54.720000,494.630000,55.980000,496.100000,57.320000C500.100000,60.910000,504.640000,63.790000,508,68.080000C510,70.630000,510.370000,73.690000,511.350000,76.410000Z" transform="matrix(1 0 0 1 -0.27000001072884 -0.46000000834465)" fill="rgb(92,171,74)" stroke="none" stroke-width="1"/><path id="edvik4x3iox633" d="M104.440000,147.800000L74.670000,147.740000C74.520000,146.930000,73.670000,146.740000,73.250000,146.190000C70.530000,142.710000,71.830000,138.490000,76.080000,137.250000C82.730000,135.300000,88.800000,137.070000,94.580000,140.400000C97.310000,141.980000,100.040000,143.540000,102.780000,145.110000C103.095335,146.133351,103.666710,147.059254,104.440000,147.800000Z" transform="matrix(1 0 0 1 -0.27000001072884 -0.46000000834465)" fill="rgb(244,248,238)" stroke="none" stroke-width="1"/><path id="edvik4x3iox634" d="M512.140000,51.310000C507.040000,47.030000,502.310000,43.110000,497.640000,39.130000C494.640000,36.600000,491.890000,33.880000,488.870000,31.420000C487.650000,30.420000,487.740000,30.120000,488.990000,29.360000C490.552318,28.232332,492.561144,27.923568,494.390000,28.530000C502,31,507,36.050000,509.930000,43.380000C511.120549,45.875326,511.868344,48.558589,512.140000,51.310000Z" transform="matrix(1 0 0 1 -0.27000001072884 -0.46000000834465)" fill="rgb(165,201,84)" stroke="none" stroke-width="1"/><path id="edvik4x3iox635" d="M526.060000,101.830000C525.130000,107.550000,521.230000,111.230000,516.990000,114.490000C511.090606,118.886590,504.532913,122.322375,497.560000,124.670000C496.969661,124.793643,496.371626,124.877168,495.770000,124.920000C507,116.190000,519.240000,109.380000,523.860000,95.320000C525.860000,96.200000,525.690000,98.050000,526.070000,99.630000C526.570899,100.279083,526.566778,101.185498,526.060000,101.830000Z" transform="matrix(1 0 0 1 -0.27000001072884 -0.46000000834465)" fill="rgb(165,201,84)" stroke="none" stroke-width="1"/><path id="edvik4x3iox636" d="M448.310000,69C446.090000,67.450000,445.720000,64.730000,444.310000,62.640000C440.950000,57.640000,438.390000,52.250000,438.930000,45.940000C438.990000,45.170000,438.630000,44.110000,439.600000,43.780000C440.400000,43.500000,441.080000,44.220000,441.770000,44.670000C448.270000,48.890000,449.770000,55.190000,449.210000,62.380000C448.450000,63.530000,448.880000,64.830000,448.760000,66.070000C448.720000,67.060000,449,68.110000,448.310000,69Z" transform="matrix(1 0 0 1 -0.27000001072884 -0.46000000834465)" fill="rgb(150,195,82)" stroke="none" stroke-width="1"/><path id="edvik4x3iox637" d="M273.460000,130.390000C262.200000,129.130000,252.810000,124.670000,246.540000,114.560000C248.930000,114.460000,250.690000,115.910000,252.540000,116.790000C260.540000,120.570000,268.540000,124.510000,275.740000,129.790000C275.360000,131.240000,274.300000,130.420000,273.460000,130.390000Z" transform="matrix(1 0 0 1 -0.27000001072884 -0.46000000834465)" fill="rgb(165,201,84)" stroke="none" stroke-width="1"/><path id="edvik4x3iox638" d="M143.350000,147.720000L136,147.720000C136.380000,145.980000,136.060000,143.330000,137.550000,142.810000C139.210000,142.240000,140.480000,144.700000,141.980000,145.740000C142.610000,146.170000,142.910000,147.050000,143.350000,147.720000Z" transform="matrix(1 0 0 1 -0.27000001072884 -0.46000000834465)" fill="rgb(163,200,83)" stroke="none" stroke-width="1"/><path id="edvik4x3iox639" d="M114.220000,106.180000L114.220000,110.060000C112.720000,108.770000,112.710000,107.470000,114.220000,106.180000Z" transform="matrix(1 0 0 1 -0.27000001072884 -0.46000000834465)" fill="rgb(59,154,71)" stroke="none" stroke-width="1"/><path id="edvik4x3iox640" d="M207.370000,102.880000C208.870000,103.880000,208.310000,105.410000,208.370000,106.780000C206.850000,105.780000,207.440000,104.250000,207.370000,102.880000Z" transform="matrix(1 0 0 1 -0.27000001072884 -0.46000000834465)" fill="rgb(55,152,71)" stroke="none" stroke-width="1"/><path id="edvik4x3iox641" d="M442.280000,30.660000C442.280000,29.560000,442.280000,28.460000,442.280000,27.360000Q444.360000,29,442.280000,30.660000Z" transform="matrix(1 0 0 1 -0.27000001072884 -0.46000000834465)" fill="rgb(45,147,70)" stroke="none" stroke-width="1"/><path id="edvik4x3iox642" d="M448.300000,65.760000C448.300000,64.550000,447.910000,63.230000,449.230000,62.380000L449.230000,65.610000C449.140630,65.770464,448.982685,65.881155,448.801355,65.910402C448.620025,65.939648,448.435289,65.884229,448.300000,65.760000Z" transform="matrix(1 0 0 1 -0.27000001072884 -0.46000000834465)" fill="rgb(120,181,78)" stroke="none" stroke-width="1"/><path id="edvik4x3iox643" d="M186.480000,21.850000C186.480000,22.930000,186.560000,24.010000,186.610000,25.080000C184.830000,24.080000,185.050000,23,186.480000,21.850000Z" transform="matrix(1 0 0 1 -0.27000001072884 -0.46000000834465)" fill="rgb(99,171,76)" stroke="none" stroke-width="1"/><path id="edvik4x3iox644" d="M448.300000,65.760000L449.300000,65.610000C449.300000,66.840000,449.680000,68.150000,448.350000,69C448.300000,67.920000,448.300000,66.840000,448.300000,65.760000Z" transform="matrix(1 0 0 1 -0.27000001072884 -0.46000000834465)" fill="rgb(65,155,72)" stroke="none" stroke-width="1"/><path id="edvik4x3iox645" d="M162.370000,43.770000L162.370000,46.540000C161.080000,45.630000,161.060000,44.700000,162.370000,43.770000Z" transform="matrix(1 0 0 1 -0.27000001072884 -0.46000000834465)" fill="rgb(52,150,70)" stroke="none" stroke-width="1"/><path id="edvik4x3iox646" d="M38.090000,50.920000C36.800000,50,36.790000,49.080000,38.090000,48.160000Z" transform="matrix(1 0 0 1 -0.27000001072884 -0.46000000834465)" fill="rgb(77,163,73)" stroke="none" stroke-width="1"/><path id="edvik4x3iox647" d="M98.360000,49.780000C98.360000,50.730000,98.360000,51.680000,98.360000,52.630000C96.880000,51.650000,96.890000,50.710000,98.360000,49.780000Z" transform="matrix(1 0 0 1 -0.27000001072884 -0.46000000834465)" fill="rgb(112,177,78)" stroke="none" stroke-width="1"/><path id="edvik4x3iox648" d="M273.460000,130.390000L275.770000,129.750000C276.080000,129.890000,276.550000,129.950000,276.680000,130.190000C276.910000,130.630000,276.500000,130.800000,276.120000,130.830000C275.209494,130.941045,274.286249,130.788327,273.460000,130.390000Z" transform="matrix(1 0 0 1 -0.27000001072884 -0.46000000834465)" fill="rgb(127,184,79)" stroke="none" stroke-width="1"/><path id="edvik4x3iox649" d="M256.510000,108.460000L258.700000,107.950000L260.170000,108.460000C259.015533,109.025511,257.664467,109.025511,256.510000,108.460000Z" transform="matrix(1 0 0 1 -0.27000001072884 -0.46000000834465)" fill="rgb(133,186,80)" stroke="none" stroke-width="1"/><path id="edvik4x3iox650" d="M454.310000,48.700000C455.124576,49.132629,455.537662,50.066204,455.310000,50.960000C454.511621,50.512466,454.104262,49.591834,454.310000,48.700000Z" transform="matrix(1 0 0 1 -0.27000001072884 -0.46000000834465)" fill="rgb(72,161,72)" stroke="none" stroke-width="1"/><path id="edvik4x3iox651" d="M529.230000,30.110000C528.030000,29.380000,528.020000,28.650000,529.230000,27.900000C529.220000,28.640000,529.230000,29.370000,529.230000,30.110000Z" transform="matrix(1 0 0 1 -0.27000001072884 -0.46000000834465)" fill="rgb(77,164,72)" stroke="none" stroke-width="1"/><path id="edvik4x3iox652" d="M200.170000,77.170000C200.170000,77.920000,200.170000,78.670000,200.170000,79.420000C198.850000,78.630000,199,77.890000,200.170000,77.170000Z" transform="matrix(1 0 0 1 -0.27000001072884 -0.46000000834465)" fill="rgb(73,159,73)" stroke="none" stroke-width="1"/><path id="edvik4x3iox653" d="M410,14.750000C411.170000,15.510000,411.130000,16.260000,409.950000,16.970000C410,16.230000,410,15.490000,410,14.750000Z" transform="matrix(1 0 0 1 -0.27000001072884 -0.46000000834465)" fill="rgb(72,161,72)" stroke="none" stroke-width="1"/><path id="edvik4x3iox654" d="M526.060000,101.830000L526.060000,99.630000C527.210000,100.360000,527.210000,101.100000,526.060000,101.830000Z" transform="matrix(1 0 0 1 -0.27000001072884 -0.46000000834465)" fill="rgb(44,145,70)" stroke="none" stroke-width="1"/><path id="edvik4x3iox655" d="M455.940000,56.350000C456.607473,56.644420,457.010683,57.333910,456.940000,58.060000C456.272527,57.765580,455.869317,57.076090,455.940000,56.350000Z" transform="matrix(1 0 0 1 -0.27000001072884 -0.46000000834465)" fill="rgb(63,156,72)" stroke="none" stroke-width="1"/><path id="edvik4x3iox656" d="M333.870000,75.590000L333.870000,73.860000C335.050000,74.430000,335,75,333.870000,75.590000Z" transform="matrix(1 0 0 1 -0.27000001072884 -0.46000000834465)" fill="rgb(91,166,75)" stroke="none" stroke-width="1"/><path id="edvik4x3iox657" d="M475.210000,27.090000C475.090000,27.190000,474.960000,27.370000,474.870000,27.350000C474.701388,27.320602,474.556695,27.213010,474.480000,27.060000C474.380000,26.690000,474.630000,26.610000,474.910000,26.710000C475,26.760000,475.110000,27,475.210000,27.090000Z" transform="matrix(1 0 0 1 -0.27000001072884 -0.46000000834465)" fill="rgb(61,153,73)" stroke="none" stroke-width="1"/><path id="edvik4x3iox658" d="M149.370000,126.400000C150.370000,126.990000,150.370000,127.580000,149.370000,128.160000Z" transform="matrix(1 0 0 1 -0.27000001072884 -0.46000000834465)" fill="rgb(57,153,71)" stroke="none" stroke-width="1"/><path id="edvik4x3iox659" d="M460.790000,38.340000C460.126280,38.046770,459.723818,37.362584,459.790000,36.640000C460.449470,36.937981,460.849965,37.618822,460.790000,38.340000Z" transform="matrix(1 0 0 1 -0.27000001072884 -0.46000000834465)" fill="rgb(62,155,72)" stroke="none" stroke-width="1"/><path id="edvik4x3iox660" d="M221.640000,93.590000C222.640000,94.140000,222.700000,94.700000,221.640000,95.280000Z" transform="matrix(1 0 0 1 -0.27000001072884 -0.46000000834465)" fill="rgb(136,188,80)" stroke="none" stroke-width="1"/><path id="edvik4x3iox661" d="M270.810000,21.330000L270.810000,23.020000C269.600000,22.430000,269.740000,21.860000,270.810000,21.330000Z" transform="matrix(1 0 0 1 -0.27000001072884 -0.46000000834465)" fill="rgb(81,162,74)" stroke="none" stroke-width="1"/><path id="edvik4x3iox662" d="M569.200000,61.880000L569.200000,63.510000C568.548271,63.208755,568.150347,62.536264,568.200000,61.820000C568.335492,61.684743,568.522373,61.613910,568.713477,61.625376C568.904582,61.636842,569.081653,61.729513,569.200000,61.880000Z" transform="matrix(1 0 0 1 -0.27000001072884 -0.46000000834465)" fill="rgb(45,147,70)" stroke="none" stroke-width="1"/><path id="edvik4x3iox663" d="M569.200000,61.880000L568.200000,61.820000L568.200000,60.190000C568.859995,60.482020,569.261718,61.160931,569.200000,61.880000Z" transform="matrix(1 0 0 1 -0.27000001072884 -0.46000000834465)" fill="rgb(70,160,72)" stroke="none" stroke-width="1"/><path id="edvik4x3iox664" d="M84.080000,56.400000C83.427836,56.104565,83.028764,55.434125,83.080000,54.720000C83.756499,54.987542,84.167357,55.677782,84.080000,56.400000Z" transform="matrix(1 0 0 1 -0.27000001072884 -0.46000000834465)" fill="rgb(73,161,72)" stroke="none" stroke-width="1"/><path id="edvik4x3iox665" d="M62.840000,127.600000C60.960000,133.850000,58.300000,134.170000,53.740000,132.710000C51.490000,131.990000,49.180000,131.320000,47.410000,129.770000C43.680000,126.510000,43.460000,125.280000,47.620000,121.870000C47.968318,121.578146,48.355315,121.335852,48.770000,121.150000C52.120000,119.780000,60.550000,122.240000,62.930000,125.260000C63.407507,125.977864,63.371235,126.920934,62.840000,127.600000Z" transform="matrix(1 0 0 1 -0.27000001072884 -0.46000000834465)" fill="rgb(244,248,238)" stroke="none" stroke-width="1"/><path id="edvik4x3iox666" d="M62.840000,127.600000L62.930000,125.260000C64.620000,126.100000,64,126.860000,62.840000,127.600000Z" transform="matrix(1 0 0 1 -0.27000001072884 -0.46000000834465)" fill="rgb(171,211,160)" stroke="none" stroke-width="1"/><path id="edvik4x3iox667" d="M578.050000,117.650000C580.260000,117.380000,582.400000,116.440000,584.660000,116.820000C585.760000,117.010000,587.390000,116.820000,587.190000,118.820000C586.727215,119.284389,586.727215,120.035611,587.190000,120.500000C588.190000,122.430000,590.090000,122.390000,591.840000,122.600000C593.970000,122.850000,596.120000,122.980000,598.260000,123.170000C598.980000,123.230000,599.740000,123.170000,599.930000,124.170000C597.930000,126.630000,596.930000,129.670000,595.040000,132.170000C591.940000,136.270000,587.250000,137.800000,582.330000,138.620000C576.330000,139.360000,570.990000,137.370000,565.940000,134.440000C564.320000,133.500000,562.850000,132.120000,563.220000,129.830000C563.330000,127.130000,565.390000,125.890000,567.220000,124.410000C570.560000,121.600000,574.380000,119.760000,578.050000,117.650000Z" transform="matrix(1 0 0 1 -0.27000001072884 -0.46000000834465)" fill="rgb(244,248,238)" stroke="none" stroke-width="1"/><path id="edvik4x3iox668" d="M563.270000,129.720000C565.880000,133.330000,569.690000,135.060000,573.790000,136.250000C576.630000,137.080000,579.520000,137.760000,582.380000,138.510000C577.240000,140.760000,572.960000,144.430000,568.160000,147.230000C564.390000,145.580000,560.760000,146.640000,557.160000,147.790000L548.530000,147.790000C554.181494,143.578121,558.764588,138.097590,561.910000,131.790000C562.314329,131.069021,562.768780,130.377321,563.270000,129.720000Z" transform="matrix(1 0 0 1 -0.27000001072884 -0.46000000834465)" fill="rgb(165,201,84)" stroke="none" stroke-width="1"/><path id="edvik4x3iox669" d="M516.240000,147.730000C525.420000,142.900000,533.570000,136.580000,541.760000,130.280000C544.370000,128.280000,547.140000,126.280000,550.630000,125.790000C549.280000,128.550000,547.080000,130.630000,544.950000,132.700000C538.991233,138.324505,532.493230,143.348734,525.550000,147.700000Z" transform="matrix(1 0 0 1 -0.27000001072884 -0.46000000834465)" fill="rgb(165,201,84)" stroke="none" stroke-width="1"/><path id="edvik4x3iox670" d="M557.130000,147.790000C558.931047,146.290729,561.092317,145.287652,563.400000,144.880000C565.680000,144.330000,567.270000,145.030000,568.160000,147.230000C568.160000,147.420000,568.160000,147.610000,568.160000,147.790000Z" transform="matrix(1 0 0 1 -0.27000001072884 -0.46000000834465)" fill="rgb(242,247,234)" stroke="none" stroke-width="1"/><path id="edvik4x3iox671" d="M587.240000,120.450000C586.240000,119.920000,586.130000,119.360000,587.240000,118.770000C587.210000,119.330000,587.220000,119.890000,587.240000,120.450000Z" transform="matrix(1 0 0 1 -0.27000001072884 -0.46000000834465)" fill="rgb(229,239,210)" stroke="none" stroke-width="1"/><path id="edvik4x3iox672" d="M4.790000,147.800000L7.510000,145.150000C8.076383,145.910066,8.462766,146.788830,8.640000,147.720000Z" transform="matrix(1 0 0 1 -0.27000001072884 -0.46000000834465)" fill="rgb(165,201,87)" stroke="none" stroke-width="1"/></g></g><g id="edvik4x3iox673"><path id="edvik4x3iox674" d="M95,106.390000L63.500000,106.090000C62.565465,106.061936,61.721226,105.524693,61.300000,104.690000C60.826235,103.797683,60.585459,102.800184,60.600000,101.790000C60.589508,100.694564,60.846983,99.613172,61.350000,98.640000C61.735799,97.744468,62.625079,97.171377,63.600000,97.190000L64.200000,97.190000Q63.800000,87.290000,63.800000,77.790000L63.900000,68.490000Q64.200000,55.080000,65.200000,42.890000L64.100000,42.890000C63.181504,42.803178,62.380019,42.230689,62,41.390000C61.504648,40.467838,61.246883,39.436779,61.250000,38.390000C61.235086,37.497209,61.459527,36.616712,61.900000,35.840000C62.324501,35.088659,63.138313,34.643000,64,34.690000L79.500000,35.090000C80.340147,35.125807,81.099659,35.600503,81.500000,36.340000C81.969903,37.147855,82.218267,38.065422,82.220000,39C82.223117,40.046779,81.965352,41.077838,81.470000,42C81.093776,42.851225,80.250660,43.400230,79.320000,43.400000L77.920000,43.400000Q76.920000,55.490000,76.620000,68.700000L76.520000,78Q76.520000,87.490000,76.920000,97.600000L95.020000,97.400000C95.983012,97.372777,96.868969,97.924039,97.270000,98.800000C98.270276,100.745632,98.270276,103.054368,97.270000,105C96.858977,105.875225,95.966410,106.421774,95,106.390000Z" transform="matrix(1 0 0 1 -0.27000001072884 -0.46000000834465)" fill="rgb(249,247,247)" stroke="rgb(0,0,0)" stroke-width="1" stroke-miterlimit="10"/><path id="edvik4x3iox675" d="M105.320000,107.090000L105.120000,107.090000C104.421519,107.101855,103.743835,106.852182,103.220000,106.390000C102.688714,105.936564,102.363977,105.287091,102.320000,104.590000C101.386921,95.519919,100.919641,86.407950,100.920000,77.290000Q100.920000,59.780000,102.520000,42.390000L100.620000,42.190000C99.763860,42.161023,98.994054,41.660649,98.620000,40.890000C98.184591,40.093166,97.960797,39.197987,97.970000,38.290000C97.962271,37.258546,98.220583,36.242518,98.720000,35.340000C99.147154,34.480839,100.041559,33.955180,101,34L101.200000,34Q117.790000,34.900000,134.500000,34.900000C135.390779,34.840223,136.233265,35.310448,136.650000,36.100000C137.089528,36.931300,137.313043,37.859747,137.300000,38.800000C137.296320,40.001388,137.004851,41.184408,136.450000,42.250000C136.068948,43.221902,135.143547,43.871652,134.100000,43.900000L116.200000,43.200000Q114.700000,59.700000,114.700000,76.200000L114.700000,80.500000L127.900000,80.500000C128.887116,80.489681,129.779865,81.084847,130.150000,82C130.650422,82.992027,130.907508,84.088927,130.900000,85.200000C130.909454,86.209609,130.668976,87.205874,130.200000,88.100000C129.788899,88.930844,128.926095,89.440683,128,89.400000L114.900000,88.800000Q115.200000,93.600000,115.600000,98.500000L133.700000,97.800000C134.614803,97.750063,135.474601,98.238585,135.900000,99.050000C136.374214,99.924121,136.615291,100.905650,136.600000,101.900000C136.597695,103.031797,136.323318,104.146452,135.800000,105.150000C135.441479,106.059233,134.576854,106.668401,133.600000,106.700000L118.600000,106.600000Q111.920000,106.590000,105.320000,107.090000Z" transform="matrix(1 0 0 1 -0.27000001072884 -0.46000000834465)" fill="rgb(249,247,247)" stroke="rgb(0,0,0)" stroke-width="1" stroke-miterlimit="10"/><path id="edvik4x3iox676" d="M164.720000,106.390000C163.155184,106.413388,161.597341,106.176839,160.110000,105.690000C158.780000,105.220000,158.050000,104.550000,157.910000,103.690000Q157.010000,91.290000,157.010000,80.190000Q157.010000,63.480000,158.220000,46.490000C158.280000,45.490000,158.350000,44.490000,158.410000,43.490000Q150.820000,43.490000,143.220000,43.190000C142.304589,43.133562,141.485331,42.602562,141.060000,41.790000C140.556836,40.907116,140.297959,39.906126,140.310000,38.890000C140.302909,37.928383,140.544011,36.981197,141.010000,36.140000C141.438812,35.326984,142.302267,34.838604,143.220000,34.890000L143.310000,34.890000Q152.410000,35.090000,161.510000,35.090000Q174.110000,35.090000,186.510000,34.690000L186.610000,34.690000C187.525405,34.637495,188.386499,35.126753,188.810000,35.940000C189.280300,36.779481,189.521698,37.727828,189.510000,38.690000C189.524541,39.700184,189.283765,40.697683,188.810000,41.590000C188.420954,42.403045,187.619923,42.939621,186.720000,42.990000Q179.500000,43.290000,172.220000,43.390000Q171.610000,55.480000,171.610000,67.590000Q171.610000,84.990000,173.010000,102.490000L173.010000,102.690000C173.010000,103.890000,172.130000,104.800000,170.360000,105.440000C168.549072,106.080397,166.640788,106.401828,164.720000,106.390000Z" transform="matrix(1 0 0 1 -0.27000001072884 -0.46000000834465)" fill="rgb(249,247,247)" stroke="rgb(0,0,0)" stroke-width="1" stroke-miterlimit="10"/><path id="edvik4x3iox677" d="M208.920000,108.080000L207.720000,108.080000Q198.910000,107.690000,193.220000,103.240000C189.457109,100.357106,187.328054,95.826805,187.510000,91.090000C187.549131,88.740791,187.957452,86.412349,188.720000,84.190000C189.132703,83.129184,190.172557,82.446653,191.310000,82.490000C192.755751,82.558567,194.164485,82.969876,195.420000,83.690000C196.853921,84.420495,198.179835,85.345943,199.360000,86.440000C200.470000,87.440000,201.010000,88.290000,201.010000,88.890000L200.920000,90.990000Q200.920000,95.690000,203.110000,97.690000C204.458641,98.973004,206.248568,99.688975,208.110000,99.690000C210.483931,99.677855,212.788365,98.887462,214.670000,97.440000C216.551994,96.217549,217.696980,94.134050,217.720000,91.890000C217.617726,90.310578,216.983217,88.812434,215.920000,87.640000C214.256368,85.799911,212.207833,84.348865,209.920000,83.390000Q198.710000,78.080000,193.760000,70.690000Q188.810000,63.300000,188.810000,55.890000C188.749660,50.050377,190.937308,44.411184,194.920000,40.140000Q201.010000,33.390000,210.920000,32.890000L211.420000,32.890000C215.172278,32.888237,218.845549,33.967998,222,36C225.371262,38.162824,228.126888,41.159567,230,44.700000C230.321717,45.245735,230.494158,45.866522,230.500000,46.500000Q230.500000,48.990000,227.500000,50.750000C225.689686,51.853069,223.619467,52.456883,221.500000,52.500000C219.979055,52.599195,218.511275,51.921758,217.600000,50.700000Q214.600000,44.400000,209.710000,42.700000C209.023022,42.507159,208.313503,42.406280,207.600000,42.400000C205.549585,42.356588,203.610371,43.329939,202.420000,45C201.040727,46.898797,200.336663,49.204605,200.420000,51.550000Q200.420000,56.140000,203.810000,61.450000C205.382311,63.682589,207.327411,65.627689,209.560000,67.200000C211.671994,68.662107,213.858252,70.013915,216.110000,71.250000C219.328794,72.894907,222.279101,75.019127,224.860000,77.550000Q228.610000,81.240000,229.310000,88.450000L229.310000,89.650000C229.322597,92.816403,228.475852,95.926897,226.860000,98.650000C225.164810,101.509842,222.729157,103.859124,219.810000,105.450000C216.471087,107.260357,212.717127,108.166961,208.920000,108.080000Z" transform="matrix(1 0 0 1 -0.27000001072884 -0.46000000834465)" fill="rgb(249,247,247)" stroke="rgb(0,0,0)" stroke-width="1" stroke-miterlimit="10"/><path id="edvik4x3iox678" d="M267.810000,107.090000L267.610000,107.090000C266.912173,107.098036,266.235816,106.848852,265.710000,106.390000C265.185849,105.931017,264.862696,105.284711,264.810000,104.590000C263.881890,95.519536,263.414623,86.407822,263.410000,77.290000Q263.410000,59.780000,265.010000,42.390000L263.110000,42.190000C262.274198,42.136844,261.530529,41.641065,261.160000,40.890000C260.729101,40.091410,260.505603,39.197414,260.510000,38.290000C260.502271,37.258546,260.760583,36.242518,261.260000,35.340000C261.682658,34.491058,262.562229,33.967224,263.510000,34L263.710000,34Q280.310000,34.900000,297.010000,34.900000C297.901368,34.837596,298.745192,35.308568,299.160000,36.100000C299.604061,36.929581,299.827862,37.859216,299.810000,38.800000C299.811059,40.001965,299.519317,41.186098,298.960000,42.250000C298.581145,43.223626,297.654423,43.874303,296.610000,43.900000L278.710000,43.200000Q277.210000,59.700000,277.210000,76.200000L277.210000,80.500000L290.410000,80.500000C291.397116,80.489681,292.289865,81.084847,292.660000,82C293.160422,82.992027,293.417508,84.088927,293.410000,85.200000C293.424541,86.210184,293.183765,87.207683,292.710000,88.100000C292.300885,88.932686,291.436750,89.443312,290.510000,89.400000L277.410000,88.800000C277.610000,92,277.850000,95.230000,278.110000,98.500000L296.210000,97.800000C297.125405,97.747495,297.986499,98.236753,298.410000,99.050000C298.888962,99.922278,299.130353,100.905083,299.110000,101.900000C299.112473,103.032376,298.837820,104.148157,298.310000,105.150000C297.955835,106.062649,297.088604,106.673652,296.110000,106.700000L281.110000,106.600000Q274.420000,106.590000,267.810000,107.090000Z" transform="matrix(1 0 0 1 -0.27000001072884 -0.46000000834465)" fill="rgb(249,247,247)" stroke="rgb(0,0,0)" stroke-width="1" stroke-miterlimit="10"/><path id="edvik4x3iox679" d="M339.110000,108C338.140284,108.104412,337.188164,107.685480,336.610000,106.900000L324.410000,82.800000L312.910000,105.600000C312.393491,106.486802,311.435997,107.022999,310.410000,107C309.146051,106.978692,307.921123,106.558717,306.910000,105.800000C305.906808,105.213681,305.267406,104.160547,305.210000,103C305.222845,102.614955,305.325582,102.238253,305.510000,101.900000L319.810000,73.700000L303,40.590000C302.873993,40.341777,302.805629,40.068318,302.800000,39.790000C302.929624,38.612341,303.546066,37.542633,304.500000,36.840000C305.693390,35.761708,307.041712,34.868445,308.500000,34.190000C309.799281,33.511677,311.235019,33.135650,312.700000,33.090000C313.740893,33.006576,314.742203,33.507231,315.300000,34.390000L327.500000,58.390000L339,35.590000C339.547237,34.747731,340.496203,34.254268,341.500000,34.290000C342.745459,34.328848,343.949267,34.747564,344.950000,35.490000C345.979168,36.056976,346.641342,37.116455,346.700000,38.290000C346.686064,38.674880,346.583394,39.051336,346.400000,39.390000L332.100000,67.590000L348.900000,100.590000C349.029584,100.907603,349.097461,101.246989,349.100000,101.590000C349.100000,103.050000,347.900000,104.490000,345.500000,105.890000C343.590881,107.139436,341.387744,107.866919,339.110000,108Z" transform="matrix(1 0 0 1 -0.27000001072884 -0.46000000834465)" fill="rgb(249,247,247)" stroke="rgb(0,0,0)" stroke-width="1" stroke-miterlimit="10"/><path id="edvik4x3iox680" d="M359.510000,109C358.019721,108.988286,356.576296,108.477806,355.410000,107.550000C354.115559,106.532562,353.404969,104.943084,353.510000,103.300000L353.710000,42.600000L353.610000,42.600000C352.375391,42.700835,351.151578,42.304896,350.210000,41.500000C349.502668,40.820598,349.105042,39.880755,349.110000,38.900000C349.140660,37.876219,349.509929,36.891502,350.160000,36.100000C350.964918,35.088206,352.066453,34.353850,353.310000,34C357.428741,32.753904,361.706909,32.113863,366.010000,32.100000Q377.110000,32.290000,384.210000,36.050000C388.593226,38.219307,392.243913,41.626615,394.710000,45.850000C396.947514,49.762321,398.119846,54.193046,398.110000,58.700000C398.110978,60.308364,397.977176,61.913982,397.710000,63.500000C396.394974,71.156516,392.516085,78.138517,386.710000,83.300000C380.967190,88.502111,373.786954,91.848240,366.110000,92.900000L366.110000,95.700000C366.110000,97.230000,366.110000,98.780000,366.010000,100.350000C365.965316,101.695764,365.797955,103.034645,365.510000,104.350000C365.201325,105.744298,364.380520,106.971936,363.210000,107.790000C362.130422,108.564185,360.838410,108.986708,359.510000,109ZM366.310000,84.100000C377.084338,81.102426,384.608718,71.381739,384.810000,60.200000C384.843136,55.757967,383.361737,51.437220,380.610000,47.950000Q376.410000,42.490000,367.510000,41Z" transform="matrix(1 0 0 1 -0.27000001072884 -0.46000000834465)" fill="rgb(249,247,247)" stroke="rgb(0,0,0)" stroke-width="1" stroke-miterlimit="10"/><path id="edvik4x3iox681" d="M417.310000,43.390000Q416.310000,55.480000,416.110000,68.690000Q416,73.580000,416.010000,78.590000Q416.010000,87.780000,416.310000,97.590000L460.910000,97.390000C461.873012,97.362777,462.758969,97.914039,463.160000,98.790000C463.666379,99.743948,463.924314,100.810078,463.910000,101.890000C463.919330,102.975551,463.643466,104.044525,463.110000,104.990000C462.677802,105.861468,461.782617,106.406363,460.810000,106.390000L403,106C402.073905,106.040683,401.211101,105.530844,400.800000,104.700000C400.326235,103.807683,400.085459,102.810184,400.100000,101.800000C400.089508,100.704564,400.346983,99.623172,400.850000,98.650000C401.235799,97.754468,402.125079,97.181377,403.100000,97.200000L403.600000,97.200000Q403.300000,87.600000,403.300000,78.400000Q403.300000,73.400000,403.400000,68.500000Q403.590000,55.090000,404.600000,42.900000L403.600000,42.900000C402.663025,42.830588,401.838604,42.255410,401.450000,41.400000C400.954648,40.477838,400.696883,39.446779,400.700000,38.400000C400.685086,37.507209,400.909527,36.626712,401.350000,35.850000C401.782503,35.081644,402.620811,34.633247,403.500000,34.700000L403.600000,34.700000L418.900000,35.100000C419.780124,35.133166,420.577865,35.627005,421,36.400000C421.461124,37.188691,421.702815,38.086402,421.700000,39C421.701170,40.052871,421.425266,41.087512,420.900000,42C420.496549,42.850586,419.641405,43.394769,418.700000,43.400000ZM446.010000,37.690000Q454.500000,39.080000,460.110000,46.790000C463.916184,52.156929,465.880964,58.612634,465.710000,65.190000C465.880023,71.975867,463.786677,78.625317,459.760000,84.090000Q453.760000,91.980000,444.810000,92.890000C444.210000,92.950000,443.610000,92.990000,443.010000,92.990000C439.478891,93.088021,436.003738,92.092625,433.060000,90.140000C430.297596,88.246247,427.963861,85.793270,426.210000,82.940000C424.445990,80.114808,423.098781,77.049908,422.210000,73.840000C421.393710,71.027355,420.956516,68.118333,420.910000,65.190000C420.955799,62.261607,421.393008,59.352491,422.210000,56.540000C423.096796,53.329385,424.444127,50.264207,426.210000,47.440000C427.964107,44.584357,430.318569,42.144588,433.110000,40.290000C436.052316,38.380081,439.503202,37.404073,443.010000,37.490000C444.009945,37.491881,445.008713,37.558688,446,37.690000ZM457.110000,65.190000Q457.110000,55.490000,453.560000,50.890000Q450.010000,46.290000,445.610000,46.290000C443.474867,46.334585,441.415850,47.091318,439.760000,48.440000C437.670541,50.123858,436.065832,52.332491,435.110000,54.840000C433.825321,58.135311,433.213297,61.654449,433.310000,65.190000C433.205213,68.742390,433.817399,72.279466,435.110000,75.590000C436.087127,78.085917,437.688147,80.289470,439.760000,81.990000C441.407252,83.360092,443.468136,84.135125,445.610000,84.190000C447.632159,84.165811,449.587242,83.461276,451.160000,82.190000C453.128781,80.530792,454.614169,78.371797,455.460000,75.940000C456.669465,72.489390,457.228913,68.844501,457.110000,65.190000Z" transform="matrix(1 0 0 1 -0.27000001072884 -0.46000000834465)" fill="rgb(249,247,247)" stroke="rgb(0,0,0)" stroke-width="1" stroke-miterlimit="10"/><path id="edvik4x3iox682" d="M474.410000,108.790000L473.310000,108.790000C471.835028,108.816949,470.417772,108.217341,469.410000,107.140000C468.351953,106.081670,467.773711,104.636064,467.810000,103.140000L470.110000,42.340000C468.898406,42.368176,467.720495,41.939845,466.810000,41.140000C466.114043,40.494175,465.715953,39.589426,465.710000,38.640000C465.725403,37.589286,466.115491,36.578603,466.810000,35.790000C467.656071,34.811698,468.767592,34.099630,470.010000,33.740000C473.558259,32.746859,477.225375,32.242210,480.910000,32.240000L482.710000,32.240000Q493.600000,32.840000,500.510000,36.690000C504.753599,38.905975,508.275287,42.288877,510.660000,46.440000C512.803337,50.292834,513.922344,54.631137,513.910000,59.040000C513.845944,65.112476,512.060114,71.042127,508.760000,76.140000C505.213322,81.766962,500.177062,86.301327,494.210000,89.240000C495.116137,92.736927,497.112654,95.854296,499.910000,98.140000C500.059807,98.215910,500.195181,98.317440,500.310000,98.440000C500.769185,98.834555,501.318845,99.109385,501.910000,99.240000C502.720185,99.445198,503.386822,100.019246,503.710000,100.790000C504.116160,101.649236,504.321346,102.589672,504.310000,103.540000C504.317576,104.708511,503.987707,105.854373,503.360000,106.840000C502.718479,107.833605,501.590431,108.403365,500.410000,108.330000C499.725973,108.314983,499.049554,108.183081,498.410000,107.940000C494.637290,106.432604,491.265612,104.070718,488.560000,101.040000C486.286543,98.538337,484.353184,95.747575,482.810000,92.740000L480.710000,93.040000L480.310000,100.340000C480.316946,101.933142,480.080899,103.518027,479.610000,105.040000C479.073281,106.575559,477.910243,107.811287,476.410000,108.440000C475.763886,108.653246,475.090134,108.771153,474.410000,108.790000ZM481.310000,84.190000C487.018224,82.801697,492.060018,79.458192,495.560000,74.740000C498.765539,70.559979,500.536631,65.457131,500.610000,60.190000C500.641352,55.879992,499.214013,51.686082,496.560000,48.290000Q492.510000,42.980000,483.910000,41.290000Z" transform="matrix(1 0 0 1 -0.27000001072884 -0.46000000834465)" fill="rgb(249,247,247)" stroke="rgb(0,0,0)" stroke-width="1" stroke-miterlimit="10"/><path id="edvik4x3iox683" d="M521.210000,107.090000L521,107.090000C520.301519,107.101855,519.623835,106.852182,519.100000,106.390000C518.568714,105.936564,518.243977,105.287091,518.200000,104.590000C517.266921,95.519919,516.799641,86.407950,516.800000,77.290000Q516.800000,59.780000,518.400000,42.390000L516.500000,42.190000C515.643860,42.161023,514.874054,41.660649,514.500000,40.890000C514.064591,40.093166,513.840797,39.197987,513.850000,38.290000C513.842271,37.258546,514.100583,36.242518,514.600000,35.340000C515.031546,34.470451,515.940934,33.942928,516.910000,34L517.110000,34Q533.700000,34.900000,550.410000,34.900000C551.300779,34.840223,552.143265,35.310448,552.560000,36.100000C552.999528,36.931300,553.223043,37.859747,553.210000,38.800000C553.206320,40.001388,552.914851,41.184408,552.360000,42.250000C551.974397,43.221265,551.044763,43.867282,550,43.890000L532.100000,43.190000Q530.600000,59.690000,530.600000,76.190000L530.600000,80.490000L543.800000,80.490000C544.787116,80.479681,545.679865,81.074847,546.050000,81.990000C546.550422,82.982027,546.807508,84.078927,546.800000,85.190000C546.809454,86.199609,546.568976,87.195874,546.100000,88.090000C545.688899,88.920844,544.826095,89.430683,543.900000,89.390000L530.800000,88.790000Q531.100000,93.590000,531.500000,98.490000L549.600000,97.790000C550.514803,97.740063,551.374601,98.228585,551.800000,99.040000C552.274214,99.914121,552.515291,100.895650,552.500000,101.890000C552.497695,103.021797,552.223318,104.136452,551.700000,105.140000C551.341479,106.049233,550.476854,106.658401,549.500000,106.690000L534.500000,106.590000Q527.800000,106.590000,521.210000,107.090000Z" transform="matrix(1 0 0 1 -0.27000001072884 -0.46000000834465)" fill="rgb(249,247,247)" stroke="rgb(0,0,0)" stroke-width="1" stroke-miterlimit="10"/></g></g></svg>